<svg id="Layer_1" data-name="Layer 1" xmlns="http://www.w3.org/2000/svg" viewBox="0 0 58.54 61.94"><defs><style>.cls-1{fill:none;stroke:#000;stroke-width:0.28px;}</style></defs><path class="cls-1" d="M8.67,59.69l7.76-44.64L1.3,20.33,3,11,27.62,2.32h.79L18.68,59.69Z"/><path class="cls-1" d="M45.08,48.81a6.85,6.85,0,0,1,5.16-2.08,6.78,6.78,0,0,1,4.91,1.89,6.4,6.4,0,0,1,2,4.8A6.71,6.71,0,0,1,55,58.53a7.17,7.17,0,0,1-5.1,2A6.77,6.77,0,0,1,45,58.66a6.28,6.28,0,0,1-1.93-4.72A7.12,7.12,0,0,1,45.08,48.81Z"/></svg>