<svg id="Layer_1" data-name="Layer 1" xmlns="http://www.w3.org/2000/svg" viewBox="0 0 69.23 61.94"><defs><style>.cls-1{fill:none;stroke:#000;stroke-width:0.28px;}</style></defs><path class="cls-1" d="M2.66,59.69,3.8,52.28,24.61,32.5q1.41-1.41,3.09-3a33.53,33.53,0,0,0,3.17-3.43,23.87,23.87,0,0,0,2.52-3.72,11.46,11.46,0,0,0,1.34-4.08,10.4,10.4,0,0,0-.08-3.17,6.35,6.35,0,0,0-1.06-2.58,6.13,6.13,0,0,0-2.11-1.83,7,7,0,0,0-3.05-.77,10.63,10.63,0,0,0-4.22.71,9.16,9.16,0,0,0-3.15,2.08,10.16,10.16,0,0,0-2.13,3.22A16.55,16.55,0,0,0,17.83,20l-9.89,0a18.53,18.53,0,0,1,2.19-7.6,20.12,20.12,0,0,1,4.79-5.87,20.78,20.78,0,0,1,6.61-3.8,21.78,21.78,0,0,1,7.84-1.24,18.86,18.86,0,0,1,6.56,1.24A14.21,14.21,0,0,1,41,6.07a13.82,13.82,0,0,1,3,5.12,16.16,16.16,0,0,1,.71,6.66A17.23,17.23,0,0,1,43,24.09a29.85,29.85,0,0,1-3.55,5.5,47.77,47.77,0,0,1-4.59,4.94Q32.41,36.84,30.12,39L16.77,51.49H41.63l-1.3,8.2Z"/><path class="cls-1" d="M54.17,48.81a6.85,6.85,0,0,1,5.16-2.08,6.75,6.75,0,0,1,4.9,1.89,6.4,6.4,0,0,1,2,4.8,6.73,6.73,0,0,1-2.1,5.11,7.2,7.2,0,0,1-5.11,2,6.72,6.72,0,0,1-4.88-1.85,6.24,6.24,0,0,1-1.93-4.72A7.12,7.12,0,0,1,54.17,48.81Z"/></svg>