<svg id="Layer_1" data-name="Layer 1" xmlns="http://www.w3.org/2000/svg" viewBox="0 0 69.23 61.94"><defs><style>.cls-1{fill:none;stroke:#000;stroke-width:0.28px;}</style></defs><path class="cls-1" d="M25.08,26.51a12.91,12.91,0,0,0,4-.59,10.67,10.67,0,0,0,3.33-1.69,9,9,0,0,0,2.4-2.78A10.93,10.93,0,0,0,36,17.61a8.64,8.64,0,0,0-.19-3.45,6,6,0,0,0-1.42-2.54,5.38,5.38,0,0,0-2.07-1.38,8.94,8.94,0,0,0-2.9-.51,10.16,10.16,0,0,0-3.36.47,8.78,8.78,0,0,0-2.78,1.5,9.18,9.18,0,0,0-2.07,2.36,8.84,8.84,0,0,0-1.16,3.16l-9.89.08a15.59,15.59,0,0,1,2.07-6.78,16.37,16.37,0,0,1,4.51-5,20.53,20.53,0,0,1,6.1-3,22.82,22.82,0,0,1,13.7.18A15.34,15.34,0,0,1,41.9,5.75a13,13,0,0,1,3.33,5A15.3,15.3,0,0,1,46,17.53a13,13,0,0,1-1.1,4.34,14.83,14.83,0,0,1-2.29,3.54,17.46,17.46,0,0,1-3.23,2.88,26.29,26.29,0,0,1-3.82,2.2,12.38,12.38,0,0,1,3.25,2.23,10.62,10.62,0,0,1,2.19,3,13,13,0,0,1,1.14,3.61,16.74,16.74,0,0,1,.16,4,17.14,17.14,0,0,1-2.19,7.44,17.53,17.53,0,0,1-4.79,5.4,20.48,20.48,0,0,1-6.62,3.31,24.87,24.87,0,0,1-7.68,1,20.61,20.61,0,0,1-6.72-1.23A15,15,0,0,1,9.05,56,14,14,0,0,1,5.64,50.9a16.66,16.66,0,0,1-1.09-6.73l9.89,0a9.27,9.27,0,0,0,.38,3.18,7,7,0,0,0,1.36,2.5,6.4,6.4,0,0,0,2.4,1.71,9.46,9.46,0,0,0,3.31.69,11.22,11.22,0,0,0,3.92-.59,10.75,10.75,0,0,0,3.25-1.77A10,10,0,0,0,31.36,47a10.2,10.2,0,0,0,1.17-3.78,10.51,10.51,0,0,0-.14-3.59,6.16,6.16,0,0,0-3.92-4.49,11.78,11.78,0,0,0-3.78-.71l-6.19,0,1.42-8Z"/><path class="cls-1" d="M54.17,48.81a6.85,6.85,0,0,1,5.16-2.08,6.75,6.75,0,0,1,4.9,1.89,6.4,6.4,0,0,1,2,4.8,6.73,6.73,0,0,1-2.1,5.11,7.2,7.2,0,0,1-5.11,2,6.74,6.74,0,0,1-4.88-1.85,6.24,6.24,0,0,1-1.93-4.72A7.12,7.12,0,0,1,54.17,48.81Z"/></svg>