<svg id="Layer_1" data-name="Layer 1" xmlns="http://www.w3.org/2000/svg" viewBox="0 0 69.23 61.94"><defs><style>.cls-1{fill:none;stroke:#000;stroke-width:0.28px;}</style></defs><path class="cls-1" d="M44.9,38.81,43.48,47H36.74l-2.2,12.65H24.61L26.81,47H3.25l.83-6.78,30-37.94H44.5L38.16,38.81Zm-16.67,0,4.26-22.93L31.11,18,14.52,38.81Z"/><path class="cls-1" d="M54.17,48.81a6.85,6.85,0,0,1,5.16-2.08,6.75,6.75,0,0,1,4.9,1.89,6.4,6.4,0,0,1,2,4.8,6.73,6.73,0,0,1-2.1,5.11,7.2,7.2,0,0,1-5.11,2,6.74,6.74,0,0,1-4.88-1.85,6.24,6.24,0,0,1-1.93-4.72A7.12,7.12,0,0,1,54.17,48.81Z"/></svg>