<svg id="Layer_1" data-name="Layer 1" xmlns="http://www.w3.org/2000/svg" viewBox="0 0 69.23 61.94"><defs><style>.cls-1{fill:none;stroke:#000;stroke-width:0.28px;}</style></defs><path class="cls-1" d="M17.91,2.32h30.5l-1.54,8.83H24.73L20.67,24.39a15,15,0,0,1,4.14-1.76,16.78,16.78,0,0,1,4.45-.53,14.31,14.31,0,0,1,7,1.64A12.8,12.8,0,0,1,40.8,28,16.06,16.06,0,0,1,43.16,34a25.17,25.17,0,0,1,.28,7.07A22.85,22.85,0,0,1,41.33,49a21.05,21.05,0,0,1-4.43,6.21,19.71,19.71,0,0,1-6.42,4,20.67,20.67,0,0,1-8,1.3,19,19,0,0,1-6.66-1.3,15.61,15.61,0,0,1-5.2-3.39,15,15,0,0,1-3.41-5.16A18.4,18.4,0,0,1,6,44h9.66a11.81,11.81,0,0,0,.57,3.25,7.94,7.94,0,0,0,1.43,2.62,6.74,6.74,0,0,0,2.29,1.77,7.8,7.8,0,0,0,3.27.71,8.39,8.39,0,0,0,4.33-.93,9.39,9.39,0,0,0,3.12-2.69,14,14,0,0,0,1.93-3.77,20.47,20.47,0,0,0,.94-4.31,16.71,16.71,0,0,0-.06-3.88,8.69,8.69,0,0,0-1.12-3.33A6.73,6.73,0,0,0,30,31.05a7.55,7.55,0,0,0-3.8-.95,10.63,10.63,0,0,0-4.46.81,15.1,15.1,0,0,0-3.78,2.38L9.79,31.16Z"/><path class="cls-1" d="M54.17,48.81a6.85,6.85,0,0,1,5.16-2.08,6.75,6.75,0,0,1,4.9,1.89,6.4,6.4,0,0,1,2,4.8,6.73,6.73,0,0,1-2.1,5.11,7.2,7.2,0,0,1-5.11,2,6.74,6.74,0,0,1-4.88-1.85,6.24,6.24,0,0,1-1.93-4.72A7.12,7.12,0,0,1,54.17,48.81Z"/></svg>