<svg id="Layer_1" data-name="Layer 1" xmlns="http://www.w3.org/2000/svg" viewBox="0 0 69.23 61.94"><defs><style>.cls-1{fill:none;stroke:#000;stroke-width:0.28px;}</style></defs><path class="cls-1" d="M40.09,10.48h-.47a23.91,23.91,0,0,0-5,.43,22,22,0,0,0-4.38,1.34,21,21,0,0,0-4.9,3.15,23.54,23.54,0,0,0-3.92,4.38,29.25,29.25,0,0,0-1.95,3.44,33.65,33.65,0,0,0-1.56,3.85,20.18,20.18,0,0,1,2.64-2.35,19,19,0,0,1,3-1.79,14.25,14.25,0,0,1,3-1,15.66,15.66,0,0,1,3.33-.35,12.75,12.75,0,0,1,6.62,1.77,13.35,13.35,0,0,1,4.37,4.38,18.13,18.13,0,0,1,2.23,6.08,25.38,25.38,0,0,1,.29,6.8,23.16,23.16,0,0,1-2,7.8,21.58,21.58,0,0,1-4.39,6.38,18.83,18.83,0,0,1-14.3,5.72,15.66,15.66,0,0,1-7.86-2.11,16.08,16.08,0,0,1-5.26-5.18A20.22,20.22,0,0,1,6.78,46a27.56,27.56,0,0,1-.25-8.12L7,33.84a50.59,50.59,0,0,1,2-8.67,37.85,37.85,0,0,1,3.48-7.72,35.19,35.19,0,0,1,6.07-7.54A28.6,28.6,0,0,1,26.7,4.57a29.65,29.65,0,0,1,6-2,31.73,31.73,0,0,1,6.83-.71H41ZM23.57,30.18a10.43,10.43,0,0,0-2.66,1.3,14.12,14.12,0,0,0-2.31,2,14.79,14.79,0,0,0-1.83,2.42L16.37,39a23.11,23.11,0,0,0-.15,2.72,28.55,28.55,0,0,0,.15,2.92A15.33,15.33,0,0,0,17,47.49a8,8,0,0,0,1.24,2.39,5.89,5.89,0,0,0,2,1.71,6.26,6.26,0,0,0,2.89.69,8,8,0,0,0,4.2-.94,10.6,10.6,0,0,0,3.13-2.68,13.21,13.21,0,0,0,2.05-3.75,16.94,16.94,0,0,0,.94-4.17,15.72,15.72,0,0,0,0-3.75,10.83,10.83,0,0,0-1-3.54,7.27,7.27,0,0,0-2.19-2.58,6.19,6.19,0,0,0-3.6-1.12A8.74,8.74,0,0,0,23.57,30.18Z"/><path class="cls-1" d="M54.17,48.81a6.85,6.85,0,0,1,5.16-2.08,6.78,6.78,0,0,1,4.91,1.89,6.4,6.4,0,0,1,2,4.8,6.74,6.74,0,0,1-2.11,5.11,7.2,7.2,0,0,1-5.1,2,6.76,6.76,0,0,1-4.89-1.85,6.24,6.24,0,0,1-1.93-4.72A7.12,7.12,0,0,1,54.17,48.81Z"/></svg>