<svg id="Layer_1" data-name="Layer 1" xmlns="http://www.w3.org/2000/svg" viewBox="0 0 785.83 300"><defs><style>.cls-1{fill:#939087;}</style></defs><path class="cls-1" d="M13.49,210.06,35,206.84h4.3L63,210.06v8.62H13.49ZM77.65,73.35H90.57l49.51,145.33h-20l-43.27-129h4.95l-43.92,129H27.7ZM52.46,161.62h58.13l3.44,9.91H49Zm42.41,48.44L122,206.84h4.31L153,210.06v8.62H94.87Z"/><path class="cls-1" d="M161.62,211.14l23.25-4.3-7.1,11.84c.43-9.69.64-31.87.64-45.22V78.73l-17.87-2.15V69l32.3-9.69,3,1.73L195,91.65V133l.65,2.8v65.88l-2.16,19.16-31.86-2.15Zm89.13-42.63c0-27.77-11.41-42.84-27.77-42.84-7.75,0-18.3,3.44-34,19.16L187,141c12.49-18.94,26.49-27.13,41.13-27.13,22.82,0,40.9,19.6,40.9,52.75s-18.94,54.91-44.13,54.91c-13.14,0-26.49-5.82-37.9-28.21l1.94-3.44c11.2,14.21,22.82,19.8,32.94,19.8C237.4,209.63,250.75,196.29,250.75,168.51Z"/><path class="cls-1" d="M314.27,180.57c0,19.16,5.6,25.83,17.44,25.83,11,0,22.18-5.38,32.94-16.14h4.52v11h-11l7.54-3.23c-12.27,16.58-26.91,23.47-40.91,23.47-17.22,0-28-10.34-27.77-38.76l.64-56.84,4.52,4.09-20-4.3v-7.54l31-2.8,2.15,2.15-1.08,30.15Zm51.24,39.83-3-25.19.65-69.33,4.52,4.09-20-4.3v-7.54l30.58-2.8,2.15,2.15-.65,30.15V212l-5.16-5.16,20,4.3v7.54Z"/><path class="cls-1" d="M498.79,155A43.34,43.34,0,0,1,497.28,167H417.83v-9h51.25c10.33,0,12.7-5,12.7-11a23.9,23.9,0,0,0-23.9-23.47c-13.78,0-29.71,11.63-29.71,42.42,0,27.34,13.78,42,35.31,42,13.78,0,22.39-6.24,30.14-15.28l4.95,3.87c-7.75,15.29-21.53,25-41.12,25-28.85,0-47.58-20-47.58-52.75,0-32.94,22.39-54.91,49.09-54.91C481.13,113.82,498.79,128.9,498.79,155Z"/><path class="cls-1" d="M545.73,59.35l3,1.73-.86,30.57v81.81q0,22.6.65,45.22H530q.65-22.6.65-45.22V78.73l-17.88-2.15V69Zm20,151.79v7.54h-53v-7.54l24.33-4.3h4.31Z"/><path class="cls-1" d="M614.19,162.27a234.24,234.24,0,0,1,33.37-9V161a193.81,193.81,0,0,0-28.85,8.61c-19.37,7.53-21.53,15.72-21.53,22,0,11.41,7.54,15.93,17.44,15.93,7.54,0,11.84-2.8,25.41-12.49l4.3-3.23,3,4.53-6.24,6.24c-12.92,12.92-20.24,18.95-33.38,18.95-15.71,0-28.85-9-28.85-26.92C578.88,182.51,585.34,172.82,614.19,162.27ZM639,198.87V149.78c0-21.1-6-26.27-20.24-26.27a50.07,50.07,0,0,0-19.37,3.88l8.61-6.68-5.6,18.52c-1.94,6.24-5.17,9.69-11,9.69s-9.26-3.23-9.69-8.61c4.09-16.37,20-26.49,41.56-26.49,22.17,0,32.94,10.12,32.94,37.25v45.65c0,9.68,3,13.13,8,13.13,3.66,0,6-1.94,8.4-4.74l4.31,4.74c-5.17,8.18-11,11-18.31,11C646.7,220.83,639,212.22,639,198.87Z"/><path class="cls-1" d="M689.55,213.29l-.86-23.46H700.1l5.81,25.4-10.55-4.95V203c7.54,5.81,15.72,8.83,26.49,8.83,16.57,0,24.33-6.68,24.33-16.58,0-9.26-6.46-14-20-19l-9.9-3.66c-15.72-5.81-26-14.21-26-28.85,0-15.5,13.13-29.93,37-29.93,11.63,0,20.67,3.23,29.93,8.83l-.87,21.75H745.53l-4.31-21.75L749,126.1v5.59c-6.89-5.38-14.21-8.18-22-8.18-13.35,0-20.23,5.82-20.23,14.86,0,9.69,5.38,13.35,20,18.73l6.46,2.37c21.53,8,29.71,18.08,29.71,31.43,0,15.94-14,30.58-41.55,30.58C709.36,221.48,700.1,218.68,689.55,213.29Z"/></svg>