<svg id="Layer_1" data-name="Layer 1" xmlns="http://www.w3.org/2000/svg" viewBox="0 0 785.83 300"><defs><style>.cls-1{fill:#fff;}</style></defs><path class="cls-1" d="M29,201.15l21.53-3.23h4.31l23.68,3.23v8.61H29ZM93.14,64.43h12.92l49.52,145.33h-20L92.28,80.8h5l-43.92,129H43.19ZM68,152.71h58.13l3.45,9.9h-65Zm42.41,48.44,27.13-3.23h4.31l26.7,3.23v8.61H110.36Z"/><path class="cls-1" d="M195.41,209.76c.43-9.69.65-31.86.65-45.21V154.43c0-11.84-.22-18.52-.65-27.13l-17.22-1.93v-7.54l29.28-12.92,3.23,2.15,2.58,25v32.51c0,13.35.22,35.52.65,45.21ZM229,202.23v7.53H179.48v-7.53l23.68-4.31h4.31Zm49.74-57.49v19.81c0,13.78.21,35.52.64,45.21H260.86c.44-9.69.65-31.43.65-45.21V146.46c0-20-5.17-26.48-18.08-26.48-10.77,0-19.6,4.31-31.87,14.86H207v-9.69h11L208.76,129c10.12-13.57,27.34-24.12,42.63-24.12C269.91,104.91,278.74,116.32,278.74,144.74Zm-5.82,53.18,21.53,4.31v7.53H244.93v-7.53l23.69-4.31Z"/><path class="cls-1" d="M349.14,201.8c4.74,0,9.05-1.94,14.64-6l5,5.81c-5.39,6.89-14.21,11-25,11-14.85,0-24.11-7.75-24.11-24.33,0-5.16.21-9.69.21-18.08V118.91H301.78v-9.26l26.7-3.45-8.62,7.11,6.46-34.88h12.49l-1.72,37.68v69.75C337.09,197.06,341.82,201.8,349.14,201.8Zm17.66-94.09v11.2H328.48v-11.2Z"/><path class="cls-1" d="M379.29,159.17c0-35.74,24.33-54.26,49.09-54.26,24.33,0,49.09,18.52,49.09,54.26s-24.76,53.39-49.09,53.39C403.62,212.56,379.29,194.91,379.29,159.17Zm78.8,0c0-28.85-11-44.57-29.71-44.57-19.16,0-29.71,15.72-29.71,44.57s10.55,43.7,29.71,43.7C447.11,202.87,458.09,188,458.09,159.17Z"/><path class="cls-1" d="M523.54,50.44l3,1.72-.86,30.58v81.81q0,22.6.64,45.21H507.83q.65-22.6.64-45.21V69.82L490.6,67.66V60.13Zm20,151.79v7.53h-53v-7.53l24.33-4.31h4.31Z"/><path class="cls-1" d="M573.28,164.55V154.43c0-11.84-.22-18.52-.65-27.13l-17.22-1.93v-7.54l32.51-12.92,3.23,2.15-.65,29.07v28.42c0,13.35.22,35.52.65,45.21H572.63C573.06,200.07,573.28,177.9,573.28,164.55Zm-16.8,37.68,23.69-4.31h4.3L606,202.23v7.53H556.48ZM591.36,55.39c4.09-6.46,7.75-8.61,11.41-8.61,4.09,0,8,2.58,8,8,0,2.8-1.08,6-6.89,11.41-8.61,8-17.22,15.71-26.27,23.68l-5.38-4.09C578.45,75.63,584.69,65.51,591.36,55.39Z"/><path class="cls-1" d="M637.66,209.76c.43-9.69.64-31.86.64-45.21V154.43c0-11.84-.21-18.52-.64-27.13l-17.23-1.93v-7.54l29.28-12.92,3.23,2.15,2.59,25v32.51c0,13.35.21,35.52.64,45.21Zm33.58-7.53v7.53H621.72v-7.53l23.69-4.31h4.3ZM721,144.74v19.81c0,13.78.21,35.52.64,45.21H703.11c.43-9.69.64-31.43.64-45.21V146.46c0-20-5.16-26.48-18.08-26.48-10.77,0-19.6,4.31-31.87,14.86h-4.52v-9.69h11L651,129c10.12-13.57,27.35-24.12,42.63-24.12C712.15,104.91,721,116.32,721,144.74Zm-5.82,53.18,21.53,4.31v7.53H687.17v-7.53l23.69-4.31Z"/></svg>