<svg id="Layer_1" data-name="Layer 1" xmlns="http://www.w3.org/2000/svg" viewBox="0 0 500 300"><path d="M45.37,80.58V72H75.51V83.81H73.36Zm30.14,123.8v11.84H45.37v-8.61l28-3.23Zm-9.69-65.67c0-22.18,0-44.57-.65-66.74H85.84c-.64,21.74-.64,44.13-.64,66.74v8.18c0,24.76,0,47.15.64,69.33H65.17c.65-21.75.65-44.14.65-69.33Zm9.69,67.6h27.77c33.8,0,52.32-22.82,52.32-62,0-40.69-18.52-62.44-50.38-62.44H75.51V72h33.37c40.91,0,69.33,25.4,69.33,72.34,0,46.5-31.87,71.91-73.64,71.91H75.51Z"/><path d="M233.76,159.81a233.52,233.52,0,0,1,33.37-9v7.75a195.85,195.85,0,0,0-28.85,8.61c-19.38,7.54-21.53,15.72-21.53,22,0,11.41,7.54,15.93,17.44,15.93,7.53,0,11.84-2.8,25.4-12.49l4.31-3.22,3,4.52-6.24,6.24c-12.92,12.92-20.24,19-33.37,19-15.72,0-28.85-9.05-28.85-26.92C198.45,180.05,204.91,170.36,233.76,159.81Zm24.76,36.6V147.32c0-21.1-6-26.26-20.24-26.26a50.1,50.1,0,0,0-19.38,3.87l8.61-6.67-5.59,18.51c-1.94,6.25-5.17,9.69-11,9.69s-9.26-3.23-9.69-8.61c4.09-16.36,20-26.48,41.55-26.48,22.18,0,32.94,10.12,32.94,37.24v45.65c0,9.69,3,13.13,8,13.13,3.66,0,6-1.94,8.4-4.74l4.3,4.74c-5.17,8.18-11,11-18.3,11C266.27,218.37,258.52,209.76,258.52,196.41Z"/><path d="M336.24,56.89l3,1.73-.86,30.57V171q0,22.61.64,45.21H320.53q.64-22.6.64-45.21V76.27L303.3,74.12V66.58Zm20,151.79v7.54h-53v-7.54l24.33-4.3h4.31Z"/><path d="M460.47,152.49a43.53,43.53,0,0,1-1.5,12.06H379.52V155.5h51.24c10.34,0,12.7-4.95,12.7-11a23.88,23.88,0,0,0-23.89-23.46c-13.78,0-29.72,11.62-29.72,42.41,0,27.34,13.78,42,35.31,42,13.78,0,22.4-6.24,30.15-15.28l4.95,3.87c-7.75,15.29-21.53,25-41.12,25-28.86,0-47.59-20-47.59-52.75,0-32.94,22.4-54.9,49.09-54.9C442.82,111.37,460.47,126.44,460.47,152.49Z"/></svg>