<?xml version="1.0" encoding="utf-8"?>
<!-- Generator: Adobe Illustrator 25.0.1, SVG Export Plug-In . SVG Version: 6.00 Build 0)  -->
<svg version="1.1" id="Layer_1" xmlns="http://www.w3.org/2000/svg" xmlns:xlink="http://www.w3.org/1999/xlink" x="0px" y="0px"
	 viewBox="0 0 50 52" style="enable-background:new 0 0 50 52;" xml:space="preserve">
<style type="text/css">
	.st0{fill:#D25A2B;}
</style>
<path class="st0" d="M44,39.9c-2.8,2.9-5,4.9-7.8,4.9c-2.5,0-4.6-0.7-7.8-6.3l-6.9-12.2c-0.9,0.5-1.8,0.9-2.6,1.1v12.3
	c0,2.5,0.4,2.8,2.3,2.8H24V44H6v-1.5h2.8c2,0,2.3-0.4,2.3-2.8V12.4c0-2.5-0.4-2.8-2.3-2.8H6V8h18v1.5h-2.8c-2,0-2.3,0.4-2.3,2.8v12
	c-1,0.9-2.7,1.2-4.8,1.4c-0.3,0-0.4,0.1-0.4,0.3c0,0.2,0.1,0.3,0.4,0.3c6.1-0.1,10.4-1,14.6-14.3c0.9-2.7,2.7-4.8,5.9-4.8
	c3.2,0,5.3,2.3,5.3,5.4c0,2.9-2.2,5.4-4.9,5.4c-2.2,0-3.6-1.4-4.1-2.4c-0.4-0.8-0.4-1.4-0.8-1.4c-0.2,0-0.3,0.1-0.5,0.7
	c-0.9,2.4-1.8,4.3-2.7,5.9l9.6,16c2.2,3.6,4,4.5,6.6,2L44,39.9z"/>
</svg>
