<svg id="Layer_1" data-name="Layer 1" xmlns="http://www.w3.org/2000/svg" viewBox="0 0 783.04 473.81"><defs><style>.cls-1{fill:#101111;}</style></defs><path class="cls-1" d="M54.12,56.05c-2.06,2.1-3.63,3.56-5.66,3.56-1.8,0-3.34-.48-5.7-4.61l-5-8.89a8.39,8.39,0,0,1-1.92.83v8.92c0,1.8.27,2.07,1.69,2.07h2.06v1.12H26.45V57.93h2.06c1.42,0,1.69-.27,1.69-2.07V36c0-1.8-.27-2.07-1.69-2.07H26.45V32.8H39.57v1.12H37.51c-1.42,0-1.69.27-1.69,2.07v8.74a6.38,6.38,0,0,1-3.52,1.05c-.19,0-.27.07-.27.18s.08.19.27.19c4.46,0,7.54-.71,10.65-10.39.64-2,1.95-3.52,4.31-3.52a3.68,3.68,0,0,1,3.83,3.9,3.78,3.78,0,0,1-3.6,3.9,3.35,3.35,0,0,1-3-1.73c-.3-.56-.3-1.05-.6-1.05-.11,0-.22,0-.37.49a27.6,27.6,0,0,1-2,4.31l7,11.67c1.57,2.58,2.92,3.26,4.8,1.42Z"/><path class="cls-1" d="M154.48,56.05c-2.07,2.1-3.64,3.56-5.67,3.56-1.8,0-3.33-.48-5.7-4.61l-5-8.89a8.51,8.51,0,0,1-1.91.83v8.92c0,1.8.26,2.07,1.68,2.07h2.07v1.12H126.8V57.93h2.06c1.43,0,1.69-.27,1.69-2.07V36c0-1.8-.26-2.07-1.69-2.07H126.8V32.8h13.13v1.12h-2.07c-1.42,0-1.68.27-1.68,2.07v8.74a6.42,6.42,0,0,1-3.53,1.05c-.19,0-.26.07-.26.18s.07.19.26.19c4.46,0,7.54-.71,10.65-10.39.64-2,1.95-3.52,4.31-3.52a3.68,3.68,0,0,1,3.83,3.9,3.77,3.77,0,0,1-3.6,3.9,3.33,3.33,0,0,1-3-1.73c-.3-.56-.3-1.05-.6-1.05-.12,0-.23,0-.38.49a27.6,27.6,0,0,1-2,4.31l7,11.67c1.57,2.58,2.92,3.26,4.8,1.42Z"/><path class="cls-1" d="M254.83,56.05c-2.06,2.1-3.64,3.56-5.66,3.56-1.8,0-3.34-.48-5.7-4.61l-5-8.89a8.32,8.32,0,0,1-1.91.83v8.92c0,1.8.26,2.07,1.69,2.07h2.06v1.12H227.15V57.93h2.06c1.43,0,1.69-.27,1.69-2.07V36c0-1.8-.26-2.07-1.69-2.07h-2.06V32.8h13.13v1.12h-2.06c-1.43,0-1.69.27-1.69,2.07v8.74A6.39,6.39,0,0,1,233,45.78c-.18,0-.26.07-.26.18s.08.19.26.19c4.47,0,7.54-.71,10.65-10.39.64-2,1.95-3.52,4.32-3.52a3.68,3.68,0,0,1,3.82,3.9,3.77,3.77,0,0,1-3.6,3.9,3.33,3.33,0,0,1-3-1.73c-.3-.56-.3-1.05-.6-1.05-.11,0-.23,0-.38.49a27.64,27.64,0,0,1-2,4.31l7,11.67c1.58,2.58,2.93,3.26,4.8,1.42Z"/><path class="cls-1" d="M355.18,56.05c-2.06,2.1-3.64,3.56-5.66,3.56-1.8,0-3.34-.48-5.7-4.61l-5-8.89a8.14,8.14,0,0,1-1.91.83v8.92c0,1.8.26,2.07,1.69,2.07h2.06v1.12H327.5V57.93h2.07c1.42,0,1.69-.27,1.69-2.07V36c0-1.8-.27-2.07-1.69-2.07H327.5V32.8h13.13v1.12h-2.06c-1.43,0-1.69.27-1.69,2.07v8.74a6.38,6.38,0,0,1-3.52,1.05c-.19,0-.27.07-.27.18s.08.19.27.19c4.46,0,7.53-.71,10.65-10.39.63-2,1.95-3.52,4.31-3.52a3.68,3.68,0,0,1,3.82,3.9,3.77,3.77,0,0,1-3.6,3.9,3.34,3.34,0,0,1-3-1.73c-.3-.56-.3-1.05-.6-1.05-.11,0-.22,0-.37.49a28.55,28.55,0,0,1-2,4.31l7,11.67c1.58,2.58,2.93,3.26,4.8,1.42Z"/><path class="cls-1" d="M455.53,56.05c-2.06,2.1-3.63,3.56-5.66,3.56-1.8,0-3.34-.48-5.7-4.61l-5-8.89a8.39,8.39,0,0,1-1.92.83v8.92c0,1.8.27,2.07,1.69,2.07H441v1.12H427.86V57.93h2.06c1.43,0,1.69-.27,1.69-2.07V36c0-1.8-.26-2.07-1.69-2.07h-2.06V32.8H441v1.12h-2.06c-1.42,0-1.69.27-1.69,2.07v8.74a6.38,6.38,0,0,1-3.52,1.05c-.19,0-.26.07-.26.18s.07.19.26.19c4.46,0,7.54-.71,10.65-10.39.64-2,1.95-3.52,4.31-3.52a3.68,3.68,0,0,1,3.83,3.9,3.78,3.78,0,0,1-3.6,3.9,3.35,3.35,0,0,1-3-1.73c-.3-.56-.3-1.05-.6-1.05-.11,0-.22,0-.37.49a27.6,27.6,0,0,1-2,4.31l7,11.67c1.57,2.58,2.92,3.26,4.8,1.42Z"/><path class="cls-1" d="M555.89,56.05c-2.07,2.1-3.64,3.56-5.67,3.56-1.8,0-3.33-.48-5.7-4.61l-5-8.89a8.51,8.51,0,0,1-1.91.83v8.92c0,1.8.26,2.07,1.68,2.07h2.07v1.12H528.21V57.93h2.06c1.43,0,1.69-.27,1.69-2.07V36c0-1.8-.26-2.07-1.69-2.07h-2.06V32.8h13.13v1.12h-2.07c-1.42,0-1.68.27-1.68,2.07v8.74a6.42,6.42,0,0,1-3.53,1.05c-.19,0-.26.07-.26.18s.07.19.26.19c4.46,0,7.54-.71,10.65-10.39.64-2,1.95-3.52,4.31-3.52a3.68,3.68,0,0,1,3.83,3.9,3.77,3.77,0,0,1-3.6,3.9,3.33,3.33,0,0,1-3-1.73c-.3-.56-.3-1.05-.6-1.05-.12,0-.23,0-.38.49a27.6,27.6,0,0,1-2,4.31l7,11.67c1.57,2.58,2.92,3.26,4.8,1.42Z"/><path class="cls-1" d="M656.24,56.05c-2.06,2.1-3.64,3.56-5.66,3.56-1.8,0-3.34-.48-5.7-4.61l-5-8.89a8.32,8.32,0,0,1-1.91.83v8.92c0,1.8.26,2.07,1.69,2.07h2.06v1.12H628.56V57.93h2.07c1.42,0,1.68-.27,1.68-2.07V36c0-1.8-.26-2.07-1.68-2.07h-2.07V32.8h13.13v1.12h-2.06c-1.43,0-1.69.27-1.69,2.07v8.74a6.39,6.39,0,0,1-3.53,1.05c-.18,0-.26.07-.26.18s.08.19.26.19c4.47,0,7.54-.71,10.65-10.39.64-2,2-3.52,4.32-3.52a3.68,3.68,0,0,1,3.82,3.9,3.77,3.77,0,0,1-3.6,3.9,3.33,3.33,0,0,1-3-1.73c-.3-.56-.3-1.05-.6-1.05-.11,0-.23,0-.38.49a27.64,27.64,0,0,1-2,4.31l7,11.67c1.58,2.58,2.93,3.26,4.8,1.42Z"/><path class="cls-1" d="M756.59,56.05c-2.06,2.1-3.63,3.56-5.66,3.56-1.8,0-3.34-.48-5.7-4.61l-5-8.89a8.14,8.14,0,0,1-1.91.83v8.92c0,1.8.26,2.07,1.69,2.07H742v1.12H728.92V57.93H731c1.42,0,1.69-.27,1.69-2.07V36c0-1.8-.27-2.07-1.69-2.07h-2.06V32.8H742v1.12H740c-1.43,0-1.69.27-1.69,2.07v8.74a6.38,6.38,0,0,1-3.52,1.05c-.19,0-.27.07-.27.18s.08.19.27.19c4.46,0,7.53-.71,10.65-10.39.63-2,2-3.52,4.31-3.52a3.68,3.68,0,0,1,3.83,3.9A3.78,3.78,0,0,1,750,40a3.35,3.35,0,0,1-3-1.73c-.3-.56-.3-1.05-.6-1.05-.11,0-.22,0-.37.49a28.55,28.55,0,0,1-2,4.31l7,11.67c1.57,2.58,2.92,3.26,4.8,1.42Z"/><path class="cls-1" d="M54.12,110.62c-2.06,2.1-3.63,3.56-5.66,3.56-1.8,0-3.34-.49-5.7-4.61l-5-8.89a8.34,8.34,0,0,1-1.92.82v8.93c0,1.8.27,2.06,1.69,2.06h2.06v1.13H26.45v-1.13h2.06c1.42,0,1.69-.26,1.69-2.06V90.55c0-1.8-.27-2.06-1.69-2.06H26.45V87.36H39.57v1.13H37.51c-1.42,0-1.69.26-1.69,2.06v8.74a6.3,6.3,0,0,1-3.52,1c-.19,0-.27.08-.27.19s.08.19.27.19c4.46,0,7.54-.72,10.65-10.39.64-2,1.95-3.53,4.31-3.53a3.68,3.68,0,0,1,3.83,3.9,3.77,3.77,0,0,1-3.6,3.9,3.34,3.34,0,0,1-3-1.72c-.3-.57-.3-1-.6-1-.11,0-.22,0-.37.48a27.32,27.32,0,0,1-2,4.32l7,11.66c1.57,2.59,2.92,3.26,4.8,1.43Z"/><path class="cls-1" d="M154.48,110.62c-2.07,2.1-3.64,3.56-5.67,3.56-1.8,0-3.33-.49-5.7-4.61l-5-8.89a8.46,8.46,0,0,1-1.91.82v8.93c0,1.8.26,2.06,1.68,2.06h2.07v1.13H126.8v-1.13h2.06c1.43,0,1.69-.26,1.69-2.06V90.55c0-1.8-.26-2.06-1.69-2.06H126.8V87.36h13.13v1.13h-2.07c-1.42,0-1.68.26-1.68,2.06v8.74a6.34,6.34,0,0,1-3.53,1c-.19,0-.26.08-.26.19s.07.19.26.19c4.46,0,7.54-.72,10.65-10.39.64-2,1.95-3.53,4.31-3.53a3.68,3.68,0,0,1,3.83,3.9,3.77,3.77,0,0,1-3.6,3.9,3.32,3.32,0,0,1-3-1.72c-.3-.57-.3-1-.6-1-.12,0-.23,0-.38.48a27.32,27.32,0,0,1-2,4.32l7,11.66c1.57,2.59,2.92,3.26,4.8,1.43Z"/><path class="cls-1" d="M254.83,110.62c-2.06,2.1-3.64,3.56-5.66,3.56-1.8,0-3.34-.49-5.7-4.61l-5-8.89a8.28,8.28,0,0,1-1.91.82v8.93c0,1.8.26,2.06,1.69,2.06h2.06v1.13H227.15v-1.13h2.06c1.43,0,1.69-.26,1.69-2.06V90.55c0-1.8-.26-2.06-1.69-2.06h-2.06V87.36h13.13v1.13h-2.06c-1.43,0-1.69.26-1.69,2.06v8.74a6.31,6.31,0,0,1-3.53,1c-.18,0-.26.08-.26.19s.08.19.26.19c4.47,0,7.54-.72,10.65-10.39.64-2,1.95-3.53,4.32-3.53a3.68,3.68,0,0,1,3.82,3.9,3.77,3.77,0,0,1-3.6,3.9,3.32,3.32,0,0,1-3-1.72c-.3-.57-.3-1-.6-1-.11,0-.23,0-.38.48a27.37,27.37,0,0,1-2,4.32l7,11.66c1.58,2.59,2.93,3.26,4.8,1.43Z"/><path class="cls-1" d="M355.18,110.62c-2.06,2.1-3.64,3.56-5.66,3.56-1.8,0-3.34-.49-5.7-4.61l-5-8.89a8.1,8.1,0,0,1-1.91.82v8.93c0,1.8.26,2.06,1.69,2.06h2.06v1.13H327.5v-1.13h2.07c1.42,0,1.69-.26,1.69-2.06V90.55c0-1.8-.27-2.06-1.69-2.06H327.5V87.36h13.13v1.13h-2.06c-1.43,0-1.69.26-1.69,2.06v8.74a6.3,6.3,0,0,1-3.52,1c-.19,0-.27.08-.27.19s.08.19.27.19c4.46,0,7.53-.72,10.65-10.39.63-2,1.95-3.53,4.31-3.53a3.68,3.68,0,0,1,3.82,3.9,3.77,3.77,0,0,1-3.6,3.9,3.34,3.34,0,0,1-3-1.72c-.3-.57-.3-1-.6-1-.11,0-.22,0-.37.48a28.25,28.25,0,0,1-2,4.32l7,11.66c1.58,2.59,2.93,3.26,4.8,1.43Z"/><path class="cls-1" d="M455.53,110.62c-2.06,2.1-3.63,3.56-5.66,3.56-1.8,0-3.34-.49-5.7-4.61l-5-8.89a8.34,8.34,0,0,1-1.92.82v8.93c0,1.8.27,2.06,1.69,2.06H441v1.13H427.86v-1.13h2.06c1.43,0,1.69-.26,1.69-2.06V90.55c0-1.8-.26-2.06-1.69-2.06h-2.06V87.36H441v1.13h-2.06c-1.42,0-1.69.26-1.69,2.06v8.74a6.3,6.3,0,0,1-3.52,1c-.19,0-.26.08-.26.19s.07.19.26.19c4.46,0,7.54-.72,10.65-10.39.64-2,1.95-3.53,4.31-3.53a3.68,3.68,0,0,1,3.83,3.9,3.77,3.77,0,0,1-3.6,3.9,3.34,3.34,0,0,1-3-1.72c-.3-.57-.3-1-.6-1-.11,0-.22,0-.37.48a27.32,27.32,0,0,1-2,4.32l7,11.66c1.57,2.59,2.92,3.26,4.8,1.43Z"/><path class="cls-1" d="M555.89,110.62c-2.07,2.1-3.64,3.56-5.67,3.56-1.8,0-3.33-.49-5.7-4.61l-5-8.89a8.46,8.46,0,0,1-1.91.82v8.93c0,1.8.26,2.06,1.68,2.06h2.07v1.13H528.21v-1.13h2.06c1.43,0,1.69-.26,1.69-2.06V90.55c0-1.8-.26-2.06-1.69-2.06h-2.06V87.36h13.13v1.13h-2.07c-1.42,0-1.68.26-1.68,2.06v8.74a6.34,6.34,0,0,1-3.53,1c-.19,0-.26.08-.26.19s.07.19.26.19c4.46,0,7.54-.72,10.65-10.39.64-2,1.95-3.53,4.31-3.53a3.68,3.68,0,0,1,3.83,3.9,3.77,3.77,0,0,1-3.6,3.9,3.32,3.32,0,0,1-3-1.72c-.3-.57-.3-1-.6-1-.12,0-.23,0-.38.48a27.32,27.32,0,0,1-2,4.32l7,11.66c1.57,2.59,2.92,3.26,4.8,1.43Z"/><path class="cls-1" d="M656.24,110.62c-2.06,2.1-3.64,3.56-5.66,3.56-1.8,0-3.34-.49-5.7-4.61l-5-8.89a8.28,8.28,0,0,1-1.91.82v8.93c0,1.8.26,2.06,1.69,2.06h2.06v1.13H628.56v-1.13h2.07c1.42,0,1.68-.26,1.68-2.06V90.55c0-1.8-.26-2.06-1.68-2.06h-2.07V87.36h13.13v1.13h-2.06c-1.43,0-1.69.26-1.69,2.06v8.74a6.31,6.31,0,0,1-3.53,1c-.18,0-.26.08-.26.19s.08.19.26.19c4.47,0,7.54-.72,10.65-10.39.64-2,2-3.53,4.32-3.53a3.68,3.68,0,0,1,3.82,3.9,3.77,3.77,0,0,1-3.6,3.9,3.32,3.32,0,0,1-3-1.72c-.3-.57-.3-1-.6-1-.11,0-.23,0-.38.48a27.37,27.37,0,0,1-2,4.32l7,11.66c1.58,2.59,2.93,3.26,4.8,1.43Z"/><path class="cls-1" d="M756.59,110.62c-2.06,2.1-3.63,3.56-5.66,3.56-1.8,0-3.34-.49-5.7-4.61l-5-8.89a8.1,8.1,0,0,1-1.91.82v8.93c0,1.8.26,2.06,1.69,2.06H742v1.13H728.92v-1.13H731c1.42,0,1.69-.26,1.69-2.06V90.55c0-1.8-.27-2.06-1.69-2.06h-2.06V87.36H742v1.13H740c-1.43,0-1.69.26-1.69,2.06v8.74a6.3,6.3,0,0,1-3.52,1c-.19,0-.27.08-.27.19s.08.19.27.19c4.46,0,7.53-.72,10.65-10.39.63-2,2-3.53,4.31-3.53a3.68,3.68,0,0,1,3.83,3.9,3.77,3.77,0,0,1-3.6,3.9,3.34,3.34,0,0,1-3-1.72c-.3-.57-.3-1-.6-1-.11,0-.22,0-.37.48a28.25,28.25,0,0,1-2,4.32l7,11.66c1.57,2.59,2.92,3.26,4.8,1.43Z"/><path class="cls-1" d="M54.12,165.18c-2.06,2.1-3.63,3.56-5.66,3.56-1.8,0-3.34-.48-5.7-4.61l-5-8.89a8.39,8.39,0,0,1-1.92.83V165c0,1.8.27,2.07,1.69,2.07h2.06v1.12H26.45v-1.12h2.06c1.42,0,1.69-.27,1.69-2.07V145.12c0-1.8-.27-2.07-1.69-2.07H26.45v-1.12H39.57v1.12H37.51c-1.42,0-1.69.27-1.69,2.07v8.74a6.38,6.38,0,0,1-3.52,1c-.19,0-.27.07-.27.18s.08.19.27.19c4.46,0,7.54-.71,10.65-10.39.64-2,1.95-3.52,4.31-3.52a3.68,3.68,0,0,1,3.83,3.9,3.78,3.78,0,0,1-3.6,3.9,3.35,3.35,0,0,1-3-1.73c-.3-.56-.3-1.05-.6-1.05-.11,0-.22,0-.37.49a27.6,27.6,0,0,1-2,4.31l7,11.67c1.57,2.58,2.92,3.26,4.8,1.42Z"/><path class="cls-1" d="M154.48,165.18c-2.07,2.1-3.64,3.56-5.67,3.56-1.8,0-3.33-.48-5.7-4.61l-5-8.89a8.51,8.51,0,0,1-1.91.83V165c0,1.8.26,2.07,1.68,2.07h2.07v1.12H126.8v-1.12h2.06c1.43,0,1.69-.27,1.69-2.07V145.12c0-1.8-.26-2.07-1.69-2.07H126.8v-1.12h13.13v1.12h-2.07c-1.42,0-1.68.27-1.68,2.07v8.74a6.42,6.42,0,0,1-3.53,1c-.19,0-.26.07-.26.18s.07.19.26.19c4.46,0,7.54-.71,10.65-10.39.64-2,1.95-3.52,4.31-3.52a3.68,3.68,0,0,1,3.83,3.9,3.77,3.77,0,0,1-3.6,3.9,3.33,3.33,0,0,1-3-1.73c-.3-.56-.3-1.05-.6-1.05-.12,0-.23,0-.38.49a27.6,27.6,0,0,1-2,4.31l7,11.67c1.57,2.58,2.92,3.26,4.8,1.42Z"/><path class="cls-1" d="M254.83,165.18c-2.06,2.1-3.64,3.56-5.66,3.56-1.8,0-3.34-.48-5.7-4.61l-5-8.89a8.32,8.32,0,0,1-1.91.83V165c0,1.8.26,2.07,1.69,2.07h2.06v1.12H227.15v-1.12h2.06c1.43,0,1.69-.27,1.69-2.07V145.12c0-1.8-.26-2.07-1.69-2.07h-2.06v-1.12h13.13v1.12h-2.06c-1.43,0-1.69.27-1.69,2.07v8.74a6.39,6.39,0,0,1-3.53,1c-.18,0-.26.07-.26.18s.08.19.26.19c4.47,0,7.54-.71,10.65-10.39.64-2,1.95-3.52,4.32-3.52a3.68,3.68,0,0,1,3.82,3.9,3.77,3.77,0,0,1-3.6,3.9,3.33,3.33,0,0,1-3-1.73c-.3-.56-.3-1.05-.6-1.05-.11,0-.23,0-.38.49a27.64,27.64,0,0,1-2,4.31l7,11.67c1.58,2.58,2.93,3.26,4.8,1.42Z"/><path class="cls-1" d="M355.18,165.18c-2.06,2.1-3.64,3.56-5.66,3.56-1.8,0-3.34-.48-5.7-4.61l-5-8.89a8.14,8.14,0,0,1-1.91.83V165c0,1.8.26,2.07,1.69,2.07h2.06v1.12H327.5v-1.12h2.07c1.42,0,1.69-.27,1.69-2.07V145.12c0-1.8-.27-2.07-1.69-2.07H327.5v-1.12h13.13v1.12h-2.06c-1.43,0-1.69.27-1.69,2.07v8.74a6.38,6.38,0,0,1-3.52,1c-.19,0-.27.07-.27.18s.08.19.27.19c4.46,0,7.53-.71,10.65-10.39.63-2,1.95-3.52,4.31-3.52a3.68,3.68,0,0,1,3.82,3.9,3.77,3.77,0,0,1-3.6,3.9,3.34,3.34,0,0,1-3-1.73c-.3-.56-.3-1.05-.6-1.05-.11,0-.22,0-.37.49a28.55,28.55,0,0,1-2,4.31l7,11.67c1.58,2.58,2.93,3.26,4.8,1.42Z"/><path class="cls-1" d="M455.53,165.18c-2.06,2.1-3.63,3.56-5.66,3.56-1.8,0-3.34-.48-5.7-4.61l-5-8.89a8.39,8.39,0,0,1-1.92.83V165c0,1.8.27,2.07,1.69,2.07H441v1.12H427.86v-1.12h2.06c1.43,0,1.69-.27,1.69-2.07V145.12c0-1.8-.26-2.07-1.69-2.07h-2.06v-1.12H441v1.12h-2.06c-1.42,0-1.69.27-1.69,2.07v8.74a6.38,6.38,0,0,1-3.52,1c-.19,0-.26.07-.26.18s.07.19.26.19c4.46,0,7.54-.71,10.65-10.39.64-2,1.95-3.52,4.31-3.52a3.68,3.68,0,0,1,3.83,3.9,3.78,3.78,0,0,1-3.6,3.9,3.35,3.35,0,0,1-3-1.73c-.3-.56-.3-1.05-.6-1.05-.11,0-.22,0-.37.49a27.6,27.6,0,0,1-2,4.31l7,11.67c1.57,2.58,2.92,3.26,4.8,1.42Z"/><path class="cls-1" d="M555.89,165.18c-2.07,2.1-3.64,3.56-5.67,3.56-1.8,0-3.33-.48-5.7-4.61l-5-8.89a8.51,8.51,0,0,1-1.91.83V165c0,1.8.26,2.07,1.68,2.07h2.07v1.12H528.21v-1.12h2.06c1.43,0,1.69-.27,1.69-2.07V145.12c0-1.8-.26-2.07-1.69-2.07h-2.06v-1.12h13.13v1.12h-2.07c-1.42,0-1.68.27-1.68,2.07v8.74a6.42,6.42,0,0,1-3.53,1c-.19,0-.26.07-.26.18s.07.19.26.19c4.46,0,7.54-.71,10.65-10.39.64-2,1.95-3.52,4.31-3.52a3.68,3.68,0,0,1,3.83,3.9,3.77,3.77,0,0,1-3.6,3.9,3.33,3.33,0,0,1-3-1.73c-.3-.56-.3-1.05-.6-1.05-.12,0-.23,0-.38.49a27.6,27.6,0,0,1-2,4.31l7,11.67c1.57,2.58,2.92,3.26,4.8,1.42Z"/><path class="cls-1" d="M656.24,165.18c-2.06,2.1-3.64,3.56-5.66,3.56-1.8,0-3.34-.48-5.7-4.61l-5-8.89a8.32,8.32,0,0,1-1.91.83V165c0,1.8.26,2.07,1.69,2.07h2.06v1.12H628.56v-1.12h2.07c1.42,0,1.68-.27,1.68-2.07V145.12c0-1.8-.26-2.07-1.68-2.07h-2.07v-1.12h13.13v1.12h-2.06c-1.43,0-1.69.27-1.69,2.07v8.74a6.39,6.39,0,0,1-3.53,1c-.18,0-.26.07-.26.18s.08.19.26.19c4.47,0,7.54-.71,10.65-10.39.64-2,2-3.52,4.32-3.52a3.68,3.68,0,0,1,3.82,3.9,3.77,3.77,0,0,1-3.6,3.9,3.33,3.33,0,0,1-3-1.73c-.3-.56-.3-1.05-.6-1.05-.11,0-.23,0-.38.49a27.64,27.64,0,0,1-2,4.31l7,11.67c1.58,2.58,2.93,3.26,4.8,1.42Z"/><path class="cls-1" d="M756.59,165.18c-2.06,2.1-3.63,3.56-5.66,3.56-1.8,0-3.34-.48-5.7-4.61l-5-8.89a8.14,8.14,0,0,1-1.91.83V165c0,1.8.26,2.07,1.69,2.07H742v1.12H728.92v-1.12H731c1.42,0,1.69-.27,1.69-2.07V145.12c0-1.8-.27-2.07-1.69-2.07h-2.06v-1.12H742v1.12H740c-1.43,0-1.69.27-1.69,2.07v8.74a6.38,6.38,0,0,1-3.52,1c-.19,0-.27.07-.27.18s.08.19.27.19c4.46,0,7.53-.71,10.65-10.39.63-2,2-3.52,4.31-3.52a3.68,3.68,0,0,1,3.83,3.9,3.78,3.78,0,0,1-3.6,3.9,3.35,3.35,0,0,1-3-1.73c-.3-.56-.3-1.05-.6-1.05-.11,0-.22,0-.37.49a28.55,28.55,0,0,1-2,4.31l7,11.67c1.57,2.58,2.92,3.26,4.8,1.42Z"/><path class="cls-1" d="M54.12,219.75c-2.06,2.1-3.63,3.56-5.66,3.56-1.8,0-3.34-.49-5.7-4.61l-5-8.89a8.34,8.34,0,0,1-1.92.82v8.93c0,1.8.27,2.06,1.69,2.06h2.06v1.13H26.45v-1.13h2.06c1.42,0,1.69-.26,1.69-2.06V199.68c0-1.8-.27-2.06-1.69-2.06H26.45v-1.13H39.57v1.13H37.51c-1.42,0-1.69.26-1.69,2.06v8.74a6.3,6.3,0,0,1-3.52,1.05c-.19,0-.27.08-.27.19s.08.19.27.19c4.46,0,7.54-.72,10.65-10.39.64-2,1.95-3.53,4.31-3.53a3.68,3.68,0,0,1,3.83,3.9,3.77,3.77,0,0,1-3.6,3.9,3.34,3.34,0,0,1-3-1.72c-.3-.57-.3-1-.6-1-.11,0-.22,0-.37.48a27.32,27.32,0,0,1-2,4.32l7,11.66c1.57,2.59,2.92,3.26,4.8,1.43Z"/><path class="cls-1" d="M154.48,219.75c-2.07,2.1-3.64,3.56-5.67,3.56-1.8,0-3.33-.49-5.7-4.61l-5-8.89a8.46,8.46,0,0,1-1.91.82v8.93c0,1.8.26,2.06,1.68,2.06h2.07v1.13H126.8v-1.13h2.06c1.43,0,1.69-.26,1.69-2.06V199.68c0-1.8-.26-2.06-1.69-2.06H126.8v-1.13h13.13v1.13h-2.07c-1.42,0-1.68.26-1.68,2.06v8.74a6.34,6.34,0,0,1-3.53,1.05c-.19,0-.26.08-.26.19s.07.19.26.19c4.46,0,7.54-.72,10.65-10.39.64-2,1.95-3.53,4.31-3.53a3.68,3.68,0,0,1,3.83,3.9,3.77,3.77,0,0,1-3.6,3.9,3.32,3.32,0,0,1-3-1.72c-.3-.57-.3-1-.6-1-.12,0-.23,0-.38.48a27.32,27.32,0,0,1-2,4.32l7,11.66c1.57,2.59,2.92,3.26,4.8,1.43Z"/><path class="cls-1" d="M254.83,219.75c-2.06,2.1-3.64,3.56-5.66,3.56-1.8,0-3.34-.49-5.7-4.61l-5-8.89a8.28,8.28,0,0,1-1.91.82v8.93c0,1.8.26,2.06,1.69,2.06h2.06v1.13H227.15v-1.13h2.06c1.43,0,1.69-.26,1.69-2.06V199.68c0-1.8-.26-2.06-1.69-2.06h-2.06v-1.13h13.13v1.13h-2.06c-1.43,0-1.69.26-1.69,2.06v8.74a6.31,6.31,0,0,1-3.53,1.05c-.18,0-.26.08-.26.19s.08.19.26.19c4.47,0,7.54-.72,10.65-10.39.64-2,1.95-3.53,4.32-3.53a3.68,3.68,0,0,1,3.82,3.9,3.77,3.77,0,0,1-3.6,3.9,3.32,3.32,0,0,1-3-1.72c-.3-.57-.3-1-.6-1-.11,0-.23,0-.38.48a27.37,27.37,0,0,1-2,4.32l7,11.66c1.58,2.59,2.93,3.26,4.8,1.43Z"/><path class="cls-1" d="M355.18,219.75c-2.06,2.1-3.64,3.56-5.66,3.56-1.8,0-3.34-.49-5.7-4.61l-5-8.89a8.1,8.1,0,0,1-1.91.82v8.93c0,1.8.26,2.06,1.69,2.06h2.06v1.13H327.5v-1.13h2.07c1.42,0,1.69-.26,1.69-2.06V199.68c0-1.8-.27-2.06-1.69-2.06H327.5v-1.13h13.13v1.13h-2.06c-1.43,0-1.69.26-1.69,2.06v8.74a6.3,6.3,0,0,1-3.52,1.05c-.19,0-.27.08-.27.19s.08.19.27.19c4.46,0,7.53-.72,10.65-10.39.63-2,1.95-3.53,4.31-3.53a3.68,3.68,0,0,1,3.82,3.9,3.77,3.77,0,0,1-3.6,3.9,3.34,3.34,0,0,1-3-1.72c-.3-.57-.3-1-.6-1-.11,0-.22,0-.37.48a28.25,28.25,0,0,1-2,4.32l7,11.66c1.58,2.59,2.93,3.26,4.8,1.43Z"/><path class="cls-1" d="M455.53,219.75c-2.06,2.1-3.63,3.56-5.66,3.56-1.8,0-3.34-.49-5.7-4.61l-5-8.89a8.34,8.34,0,0,1-1.92.82v8.93c0,1.8.27,2.06,1.69,2.06H441v1.13H427.86v-1.13h2.06c1.43,0,1.69-.26,1.69-2.06V199.68c0-1.8-.26-2.06-1.69-2.06h-2.06v-1.13H441v1.13h-2.06c-1.42,0-1.69.26-1.69,2.06v8.74a6.3,6.3,0,0,1-3.52,1.05c-.19,0-.26.08-.26.19s.07.19.26.19c4.46,0,7.54-.72,10.65-10.39.64-2,1.95-3.53,4.31-3.53a3.68,3.68,0,0,1,3.83,3.9,3.77,3.77,0,0,1-3.6,3.9,3.34,3.34,0,0,1-3-1.72c-.3-.57-.3-1-.6-1-.11,0-.22,0-.37.48a27.32,27.32,0,0,1-2,4.32l7,11.66c1.57,2.59,2.92,3.26,4.8,1.43Z"/><path class="cls-1" d="M555.89,219.75c-2.07,2.1-3.64,3.56-5.67,3.56-1.8,0-3.33-.49-5.7-4.61l-5-8.89a8.46,8.46,0,0,1-1.91.82v8.93c0,1.8.26,2.06,1.68,2.06h2.07v1.13H528.21v-1.13h2.06c1.43,0,1.69-.26,1.69-2.06V199.68c0-1.8-.26-2.06-1.69-2.06h-2.06v-1.13h13.13v1.13h-2.07c-1.42,0-1.68.26-1.68,2.06v8.74a6.34,6.34,0,0,1-3.53,1.05c-.19,0-.26.08-.26.19s.07.19.26.19c4.46,0,7.54-.72,10.65-10.39.64-2,1.95-3.53,4.31-3.53a3.68,3.68,0,0,1,3.83,3.9,3.77,3.77,0,0,1-3.6,3.9,3.32,3.32,0,0,1-3-1.72c-.3-.57-.3-1-.6-1-.12,0-.23,0-.38.48a27.32,27.32,0,0,1-2,4.32l7,11.66c1.57,2.59,2.92,3.26,4.8,1.43Z"/><path class="cls-1" d="M656.24,219.75c-2.06,2.1-3.64,3.56-5.66,3.56-1.8,0-3.34-.49-5.7-4.61l-5-8.89a8.28,8.28,0,0,1-1.91.82v8.93c0,1.8.26,2.06,1.69,2.06h2.06v1.13H628.56v-1.13h2.07c1.42,0,1.68-.26,1.68-2.06V199.68c0-1.8-.26-2.06-1.68-2.06h-2.07v-1.13h13.13v1.13h-2.06c-1.43,0-1.69.26-1.69,2.06v8.74a6.31,6.31,0,0,1-3.53,1.05c-.18,0-.26.08-.26.19s.08.19.26.19c4.47,0,7.54-.72,10.65-10.39.64-2,2-3.53,4.32-3.53a3.68,3.68,0,0,1,3.82,3.9,3.77,3.77,0,0,1-3.6,3.9,3.32,3.32,0,0,1-3-1.72c-.3-.57-.3-1-.6-1-.11,0-.23,0-.38.48a27.37,27.37,0,0,1-2,4.32l7,11.66c1.58,2.59,2.93,3.26,4.8,1.43Z"/><path class="cls-1" d="M756.59,219.75c-2.06,2.1-3.63,3.56-5.66,3.56-1.8,0-3.34-.49-5.7-4.61l-5-8.89a8.1,8.1,0,0,1-1.91.82v8.93c0,1.8.26,2.06,1.69,2.06H742v1.13H728.92v-1.13H731c1.42,0,1.69-.26,1.69-2.06V199.68c0-1.8-.27-2.06-1.69-2.06h-2.06v-1.13H742v1.13H740c-1.43,0-1.69.26-1.69,2.06v8.74a6.3,6.3,0,0,1-3.52,1.05c-.19,0-.27.08-.27.19s.08.19.27.19c4.46,0,7.53-.72,10.65-10.39.63-2,2-3.53,4.31-3.53a3.68,3.68,0,0,1,3.83,3.9,3.77,3.77,0,0,1-3.6,3.9,3.34,3.34,0,0,1-3-1.72c-.3-.57-.3-1-.6-1-.11,0-.22,0-.37.48a28.25,28.25,0,0,1-2,4.32l7,11.66c1.57,2.59,2.92,3.26,4.8,1.43Z"/><path class="cls-1" d="M54.12,274.31c-2.06,2.1-3.63,3.56-5.66,3.56-1.8,0-3.34-.48-5.7-4.61l-5-8.89a8.39,8.39,0,0,1-1.92.83v8.92c0,1.8.27,2.07,1.69,2.07h2.06v1.12H26.45v-1.12h2.06c1.42,0,1.69-.27,1.69-2.07V254.25c0-1.8-.27-2.07-1.69-2.07H26.45v-1.12H39.57v1.12H37.51c-1.42,0-1.69.27-1.69,2.07V263A6.38,6.38,0,0,1,32.3,264c-.19,0-.27.07-.27.18s.08.19.27.19c4.46,0,7.54-.71,10.65-10.39.64-2,1.95-3.52,4.31-3.52a3.68,3.68,0,0,1,3.83,3.9,3.78,3.78,0,0,1-3.6,3.9,3.35,3.35,0,0,1-3-1.73c-.3-.56-.3-1-.6-1-.11,0-.22,0-.37.49a27.6,27.6,0,0,1-2,4.31l7,11.67c1.57,2.58,2.92,3.26,4.8,1.42Z"/><path class="cls-1" d="M154.48,274.31c-2.07,2.1-3.64,3.56-5.67,3.56-1.8,0-3.33-.48-5.7-4.61l-5-8.89a8.51,8.51,0,0,1-1.91.83v8.92c0,1.8.26,2.07,1.68,2.07h2.07v1.12H126.8v-1.12h2.06c1.43,0,1.69-.27,1.69-2.07V254.25c0-1.8-.26-2.07-1.69-2.07H126.8v-1.12h13.13v1.12h-2.07c-1.42,0-1.68.27-1.68,2.07V263a6.42,6.42,0,0,1-3.53,1.05c-.19,0-.26.07-.26.18s.07.19.26.19c4.46,0,7.54-.71,10.65-10.39.64-2,1.95-3.52,4.31-3.52a3.68,3.68,0,0,1,3.83,3.9,3.77,3.77,0,0,1-3.6,3.9,3.33,3.33,0,0,1-3-1.73c-.3-.56-.3-1-.6-1-.12,0-.23,0-.38.49a27.6,27.6,0,0,1-2,4.31l7,11.67c1.57,2.58,2.92,3.26,4.8,1.42Z"/><path class="cls-1" d="M254.83,274.31c-2.06,2.1-3.64,3.56-5.66,3.56-1.8,0-3.34-.48-5.7-4.61l-5-8.89a8.32,8.32,0,0,1-1.91.83v8.92c0,1.8.26,2.07,1.69,2.07h2.06v1.12H227.15v-1.12h2.06c1.43,0,1.69-.27,1.69-2.07V254.25c0-1.8-.26-2.07-1.69-2.07h-2.06v-1.12h13.13v1.12h-2.06c-1.43,0-1.69.27-1.69,2.07V263A6.39,6.39,0,0,1,233,264c-.18,0-.26.07-.26.18s.08.19.26.19c4.47,0,7.54-.71,10.65-10.39.64-2,1.95-3.52,4.32-3.52a3.68,3.68,0,0,1,3.82,3.9,3.77,3.77,0,0,1-3.6,3.9,3.33,3.33,0,0,1-3-1.73c-.3-.56-.3-1-.6-1-.11,0-.23,0-.38.49a27.64,27.64,0,0,1-2,4.31l7,11.67c1.58,2.58,2.93,3.26,4.8,1.42Z"/><path class="cls-1" d="M355.18,274.31c-2.06,2.1-3.64,3.56-5.66,3.56-1.8,0-3.34-.48-5.7-4.61l-5-8.89a8.14,8.14,0,0,1-1.91.83v8.92c0,1.8.26,2.07,1.69,2.07h2.06v1.12H327.5v-1.12h2.07c1.42,0,1.69-.27,1.69-2.07V254.25c0-1.8-.27-2.07-1.69-2.07H327.5v-1.12h13.13v1.12h-2.06c-1.43,0-1.69.27-1.69,2.07V263a6.38,6.38,0,0,1-3.52,1.05c-.19,0-.27.07-.27.18s.08.19.27.19c4.46,0,7.53-.71,10.65-10.39.63-2,1.95-3.52,4.31-3.52a3.68,3.68,0,0,1,3.82,3.9,3.77,3.77,0,0,1-3.6,3.9,3.34,3.34,0,0,1-3-1.73c-.3-.56-.3-1-.6-1-.11,0-.22,0-.37.49a28.55,28.55,0,0,1-2,4.31l7,11.67c1.58,2.58,2.93,3.26,4.8,1.42Z"/><path class="cls-1" d="M455.53,274.31c-2.06,2.1-3.63,3.56-5.66,3.56-1.8,0-3.34-.48-5.7-4.61l-5-8.89a8.39,8.39,0,0,1-1.92.83v8.92c0,1.8.27,2.07,1.69,2.07H441v1.12H427.86v-1.12h2.06c1.43,0,1.69-.27,1.69-2.07V254.25c0-1.8-.26-2.07-1.69-2.07h-2.06v-1.12H441v1.12h-2.06c-1.42,0-1.69.27-1.69,2.07V263a6.38,6.38,0,0,1-3.52,1.05c-.19,0-.26.07-.26.18s.07.19.26.19c4.46,0,7.54-.71,10.65-10.39.64-2,1.95-3.52,4.31-3.52a3.68,3.68,0,0,1,3.83,3.9,3.78,3.78,0,0,1-3.6,3.9,3.35,3.35,0,0,1-3-1.73c-.3-.56-.3-1-.6-1-.11,0-.22,0-.37.49a27.6,27.6,0,0,1-2,4.31L450,272c1.57,2.58,2.92,3.26,4.8,1.42Z"/><path class="cls-1" d="M555.89,274.31c-2.07,2.1-3.64,3.56-5.67,3.56-1.8,0-3.33-.48-5.7-4.61l-5-8.89a8.51,8.51,0,0,1-1.91.83v8.92c0,1.8.26,2.07,1.68,2.07h2.07v1.12H528.21v-1.12h2.06c1.43,0,1.69-.27,1.69-2.07V254.25c0-1.8-.26-2.07-1.69-2.07h-2.06v-1.12h13.13v1.12h-2.07c-1.42,0-1.68.27-1.68,2.07V263a6.42,6.42,0,0,1-3.53,1.05c-.19,0-.26.07-.26.18s.07.19.26.19c4.46,0,7.54-.71,10.65-10.39.64-2,1.95-3.52,4.31-3.52a3.68,3.68,0,0,1,3.83,3.9,3.77,3.77,0,0,1-3.6,3.9,3.33,3.33,0,0,1-3-1.73c-.3-.56-.3-1-.6-1-.12,0-.23,0-.38.49a27.6,27.6,0,0,1-2,4.31l7,11.67c1.57,2.58,2.92,3.26,4.8,1.42Z"/><path class="cls-1" d="M656.24,274.31c-2.06,2.1-3.64,3.56-5.66,3.56-1.8,0-3.34-.48-5.7-4.61l-5-8.89a8.32,8.32,0,0,1-1.91.83v8.92c0,1.8.26,2.07,1.69,2.07h2.06v1.12H628.56v-1.12h2.07c1.42,0,1.68-.27,1.68-2.07V254.25c0-1.8-.26-2.07-1.68-2.07h-2.07v-1.12h13.13v1.12h-2.06c-1.43,0-1.69.27-1.69,2.07V263a6.39,6.39,0,0,1-3.53,1.05c-.18,0-.26.07-.26.18s.08.19.26.19c4.47,0,7.54-.71,10.65-10.39.64-2,2-3.52,4.32-3.52a3.68,3.68,0,0,1,3.82,3.9,3.77,3.77,0,0,1-3.6,3.9,3.33,3.33,0,0,1-3-1.73c-.3-.56-.3-1-.6-1-.11,0-.23,0-.38.49a27.64,27.64,0,0,1-2,4.31l7,11.67c1.58,2.58,2.93,3.26,4.8,1.42Z"/><path class="cls-1" d="M756.59,274.31c-2.06,2.1-3.63,3.56-5.66,3.56-1.8,0-3.34-.48-5.7-4.61l-5-8.89a8.14,8.14,0,0,1-1.91.83v8.92c0,1.8.26,2.07,1.69,2.07H742v1.12H728.92v-1.12H731c1.42,0,1.69-.27,1.69-2.07V254.25c0-1.8-.27-2.07-1.69-2.07h-2.06v-1.12H742v1.12H740c-1.43,0-1.69.27-1.69,2.07V263a6.38,6.38,0,0,1-3.52,1.05c-.19,0-.27.07-.27.18s.08.19.27.19c4.46,0,7.53-.71,10.65-10.39.63-2,2-3.52,4.31-3.52a3.68,3.68,0,0,1,3.83,3.9,3.78,3.78,0,0,1-3.6,3.9,3.35,3.35,0,0,1-3-1.73c-.3-.56-.3-1-.6-1-.11,0-.22,0-.37.49a28.55,28.55,0,0,1-2,4.31L751,272c1.57,2.58,2.92,3.26,4.8,1.42Z"/><path class="cls-1" d="M54.12,328.88c-2.06,2.1-3.63,3.56-5.66,3.56-1.8,0-3.34-.49-5.7-4.61l-5-8.89a8.34,8.34,0,0,1-1.92.82v8.93c0,1.8.27,2.06,1.69,2.06h2.06v1.13H26.45v-1.13h2.06c1.42,0,1.69-.26,1.69-2.06V308.81c0-1.8-.27-2.06-1.69-2.06H26.45v-1.13H39.57v1.13H37.51c-1.42,0-1.69.26-1.69,2.06v8.74a6.3,6.3,0,0,1-3.52,1.05c-.19,0-.27.08-.27.19s.08.19.27.19c4.46,0,7.54-.72,10.65-10.39.64-2,1.95-3.53,4.31-3.53a3.68,3.68,0,0,1,3.83,3.9,3.77,3.77,0,0,1-3.6,3.9,3.34,3.34,0,0,1-3-1.72c-.3-.57-.3-1.05-.6-1.05-.11,0-.22,0-.37.48a27.32,27.32,0,0,1-2,4.32l7,11.66c1.57,2.59,2.92,3.26,4.8,1.43Z"/><path class="cls-1" d="M154.48,328.88c-2.07,2.1-3.64,3.56-5.67,3.56-1.8,0-3.33-.49-5.7-4.61l-5-8.89a8.46,8.46,0,0,1-1.91.82v8.93c0,1.8.26,2.06,1.68,2.06h2.07v1.13H126.8v-1.13h2.06c1.43,0,1.69-.26,1.69-2.06V308.81c0-1.8-.26-2.06-1.69-2.06H126.8v-1.13h13.13v1.13h-2.07c-1.42,0-1.68.26-1.68,2.06v8.74a6.34,6.34,0,0,1-3.53,1.05c-.19,0-.26.08-.26.19s.07.19.26.19c4.46,0,7.54-.72,10.65-10.39.64-2,1.95-3.53,4.31-3.53a3.68,3.68,0,0,1,3.83,3.9,3.77,3.77,0,0,1-3.6,3.9,3.32,3.32,0,0,1-3-1.72c-.3-.57-.3-1.05-.6-1.05-.12,0-.23,0-.38.48a27.32,27.32,0,0,1-2,4.32l7,11.66c1.57,2.59,2.92,3.26,4.8,1.43Z"/><path class="cls-1" d="M254.83,328.88c-2.06,2.1-3.64,3.56-5.66,3.56-1.8,0-3.34-.49-5.7-4.61l-5-8.89a8.28,8.28,0,0,1-1.91.82v8.93c0,1.8.26,2.06,1.69,2.06h2.06v1.13H227.15v-1.13h2.06c1.43,0,1.69-.26,1.69-2.06V308.81c0-1.8-.26-2.06-1.69-2.06h-2.06v-1.13h13.13v1.13h-2.06c-1.43,0-1.69.26-1.69,2.06v8.74A6.31,6.31,0,0,1,233,318.6c-.18,0-.26.08-.26.19s.08.19.26.19c4.47,0,7.54-.72,10.65-10.39.64-2,1.95-3.53,4.32-3.53a3.68,3.68,0,0,1,3.82,3.9,3.77,3.77,0,0,1-3.6,3.9,3.32,3.32,0,0,1-3-1.72c-.3-.57-.3-1.05-.6-1.05-.11,0-.23,0-.38.48a27.37,27.37,0,0,1-2,4.32l7,11.66c1.58,2.59,2.93,3.26,4.8,1.43Z"/><path class="cls-1" d="M355.18,328.88c-2.06,2.1-3.64,3.56-5.66,3.56-1.8,0-3.34-.49-5.7-4.61l-5-8.89a8.1,8.1,0,0,1-1.91.82v8.93c0,1.8.26,2.06,1.69,2.06h2.06v1.13H327.5v-1.13h2.07c1.42,0,1.69-.26,1.69-2.06V308.81c0-1.8-.27-2.06-1.69-2.06H327.5v-1.13h13.13v1.13h-2.06c-1.43,0-1.69.26-1.69,2.06v8.74a6.3,6.3,0,0,1-3.52,1.05c-.19,0-.27.08-.27.19s.08.19.27.19c4.46,0,7.53-.72,10.65-10.39.63-2,1.95-3.53,4.31-3.53a3.68,3.68,0,0,1,3.82,3.9,3.77,3.77,0,0,1-3.6,3.9,3.34,3.34,0,0,1-3-1.72c-.3-.57-.3-1.05-.6-1.05-.11,0-.22,0-.37.48a28.25,28.25,0,0,1-2,4.32l7,11.66c1.58,2.59,2.93,3.26,4.8,1.43Z"/><path class="cls-1" d="M455.53,328.88c-2.06,2.1-3.63,3.56-5.66,3.56-1.8,0-3.34-.49-5.7-4.61l-5-8.89a8.34,8.34,0,0,1-1.92.82v8.93c0,1.8.27,2.06,1.69,2.06H441v1.13H427.86v-1.13h2.06c1.43,0,1.69-.26,1.69-2.06V308.81c0-1.8-.26-2.06-1.69-2.06h-2.06v-1.13H441v1.13h-2.06c-1.42,0-1.69.26-1.69,2.06v8.74a6.3,6.3,0,0,1-3.52,1.05c-.19,0-.26.08-.26.19s.07.19.26.19c4.46,0,7.54-.72,10.65-10.39.64-2,1.95-3.53,4.31-3.53a3.68,3.68,0,0,1,3.83,3.9,3.77,3.77,0,0,1-3.6,3.9,3.34,3.34,0,0,1-3-1.72c-.3-.57-.3-1.05-.6-1.05-.11,0-.22,0-.37.48a27.32,27.32,0,0,1-2,4.32l7,11.66c1.57,2.59,2.92,3.26,4.8,1.43Z"/><path class="cls-1" d="M555.89,328.88c-2.07,2.1-3.64,3.56-5.67,3.56-1.8,0-3.33-.49-5.7-4.61l-5-8.89a8.46,8.46,0,0,1-1.91.82v8.93c0,1.8.26,2.06,1.68,2.06h2.07v1.13H528.21v-1.13h2.06c1.43,0,1.69-.26,1.69-2.06V308.81c0-1.8-.26-2.06-1.69-2.06h-2.06v-1.13h13.13v1.13h-2.07c-1.42,0-1.68.26-1.68,2.06v8.74a6.34,6.34,0,0,1-3.53,1.05c-.19,0-.26.08-.26.19s.07.19.26.19c4.46,0,7.54-.72,10.65-10.39.64-2,1.95-3.53,4.31-3.53a3.68,3.68,0,0,1,3.83,3.9,3.77,3.77,0,0,1-3.6,3.9,3.32,3.32,0,0,1-3-1.72c-.3-.57-.3-1.05-.6-1.05-.12,0-.23,0-.38.48a27.32,27.32,0,0,1-2,4.32l7,11.66c1.57,2.59,2.92,3.26,4.8,1.43Z"/><path class="cls-1" d="M656.24,328.88c-2.06,2.1-3.64,3.56-5.66,3.56-1.8,0-3.34-.49-5.7-4.61l-5-8.89a8.28,8.28,0,0,1-1.91.82v8.93c0,1.8.26,2.06,1.69,2.06h2.06v1.13H628.56v-1.13h2.07c1.42,0,1.68-.26,1.68-2.06V308.81c0-1.8-.26-2.06-1.68-2.06h-2.07v-1.13h13.13v1.13h-2.06c-1.43,0-1.69.26-1.69,2.06v8.74a6.31,6.31,0,0,1-3.53,1.05c-.18,0-.26.08-.26.19s.08.19.26.19c4.47,0,7.54-.72,10.65-10.39.64-2,2-3.53,4.32-3.53a3.68,3.68,0,0,1,3.82,3.9,3.77,3.77,0,0,1-3.6,3.9,3.32,3.32,0,0,1-3-1.72c-.3-.57-.3-1.05-.6-1.05-.11,0-.23,0-.38.48a27.37,27.37,0,0,1-2,4.32l7,11.66c1.58,2.59,2.93,3.26,4.8,1.43Z"/><path class="cls-1" d="M756.59,328.88c-2.06,2.1-3.63,3.56-5.66,3.56-1.8,0-3.34-.49-5.7-4.61l-5-8.89a8.1,8.1,0,0,1-1.91.82v8.93c0,1.8.26,2.06,1.69,2.06H742v1.13H728.92v-1.13H731c1.42,0,1.69-.26,1.69-2.06V308.81c0-1.8-.27-2.06-1.69-2.06h-2.06v-1.13H742v1.13H740c-1.43,0-1.69.26-1.69,2.06v8.74a6.3,6.3,0,0,1-3.52,1.05c-.19,0-.27.08-.27.19s.08.19.27.19c4.46,0,7.53-.72,10.65-10.39.63-2,2-3.53,4.31-3.53a3.68,3.68,0,0,1,3.83,3.9,3.77,3.77,0,0,1-3.6,3.9,3.34,3.34,0,0,1-3-1.72c-.3-.57-.3-1.05-.6-1.05-.11,0-.22,0-.37.48a28.25,28.25,0,0,1-2,4.32l7,11.66c1.57,2.59,2.92,3.26,4.8,1.43Z"/><path class="cls-1" d="M54.12,383.44c-2.06,2.1-3.63,3.56-5.66,3.56-1.8,0-3.34-.48-5.7-4.61l-5-8.89a8.39,8.39,0,0,1-1.92.83v8.92c0,1.8.27,2.07,1.69,2.07h2.06v1.12H26.45v-1.12h2.06c1.42,0,1.69-.27,1.69-2.07V363.38c0-1.8-.27-2.07-1.69-2.07H26.45v-1.12H39.57v1.12H37.51c-1.42,0-1.69.27-1.69,2.07v8.74a6.38,6.38,0,0,1-3.52,1.05c-.19,0-.27.07-.27.18s.08.19.27.19c4.46,0,7.54-.71,10.65-10.39.64-2,1.95-3.52,4.31-3.52a3.68,3.68,0,0,1,3.83,3.9,3.78,3.78,0,0,1-3.6,3.9,3.35,3.35,0,0,1-3-1.73c-.3-.56-.3-1.05-.6-1.05-.11,0-.22,0-.37.49a27.6,27.6,0,0,1-2,4.31l7,11.67c1.57,2.58,2.92,3.26,4.8,1.42Z"/><path class="cls-1" d="M154.48,383.44c-2.07,2.1-3.64,3.56-5.67,3.56-1.8,0-3.33-.48-5.7-4.61l-5-8.89a8.51,8.51,0,0,1-1.91.83v8.92c0,1.8.26,2.07,1.68,2.07h2.07v1.12H126.8v-1.12h2.06c1.43,0,1.69-.27,1.69-2.07V363.38c0-1.8-.26-2.07-1.69-2.07H126.8v-1.12h13.13v1.12h-2.07c-1.42,0-1.68.27-1.68,2.07v8.74a6.42,6.42,0,0,1-3.53,1.05c-.19,0-.26.07-.26.18s.07.19.26.19c4.46,0,7.54-.71,10.65-10.39.64-2,1.95-3.52,4.31-3.52a3.68,3.68,0,0,1,3.83,3.9,3.77,3.77,0,0,1-3.6,3.9,3.33,3.33,0,0,1-3-1.73c-.3-.56-.3-1.05-.6-1.05-.12,0-.23,0-.38.49a27.6,27.6,0,0,1-2,4.31l7,11.67c1.57,2.58,2.92,3.26,4.8,1.42Z"/><path class="cls-1" d="M254.83,383.44c-2.06,2.1-3.64,3.56-5.66,3.56-1.8,0-3.34-.48-5.7-4.61l-5-8.89a8.32,8.32,0,0,1-1.91.83v8.92c0,1.8.26,2.07,1.69,2.07h2.06v1.12H227.15v-1.12h2.06c1.43,0,1.69-.27,1.69-2.07V363.38c0-1.8-.26-2.07-1.69-2.07h-2.06v-1.12h13.13v1.12h-2.06c-1.43,0-1.69.27-1.69,2.07v8.74a6.39,6.39,0,0,1-3.53,1.05c-.18,0-.26.07-.26.18s.08.19.26.19c4.47,0,7.54-.71,10.65-10.39.64-2,1.95-3.52,4.32-3.52a3.68,3.68,0,0,1,3.82,3.9,3.77,3.77,0,0,1-3.6,3.9,3.33,3.33,0,0,1-3-1.73c-.3-.56-.3-1.05-.6-1.05-.11,0-.23,0-.38.49a27.64,27.64,0,0,1-2,4.31l7,11.67c1.58,2.58,2.93,3.26,4.8,1.42Z"/><path class="cls-1" d="M355.18,383.44c-2.06,2.1-3.64,3.56-5.66,3.56-1.8,0-3.34-.48-5.7-4.61l-5-8.89a8.14,8.14,0,0,1-1.91.83v8.92c0,1.8.26,2.07,1.69,2.07h2.06v1.12H327.5v-1.12h2.07c1.42,0,1.69-.27,1.69-2.07V363.38c0-1.8-.27-2.07-1.69-2.07H327.5v-1.12h13.13v1.12h-2.06c-1.43,0-1.69.27-1.69,2.07v8.74a6.38,6.38,0,0,1-3.52,1.05c-.19,0-.27.07-.27.18s.08.19.27.19c4.46,0,7.53-.71,10.65-10.39.63-2,1.95-3.52,4.31-3.52a3.68,3.68,0,0,1,3.82,3.9,3.77,3.77,0,0,1-3.6,3.9,3.34,3.34,0,0,1-3-1.73c-.3-.56-.3-1.05-.6-1.05-.11,0-.22,0-.37.49a28.55,28.55,0,0,1-2,4.31l7,11.67c1.58,2.58,2.93,3.26,4.8,1.42Z"/><path class="cls-1" d="M455.53,383.44c-2.06,2.1-3.63,3.56-5.66,3.56-1.8,0-3.34-.48-5.7-4.61l-5-8.89a8.39,8.39,0,0,1-1.92.83v8.92c0,1.8.27,2.07,1.69,2.07H441v1.12H427.86v-1.12h2.06c1.43,0,1.69-.27,1.69-2.07V363.38c0-1.8-.26-2.07-1.69-2.07h-2.06v-1.12H441v1.12h-2.06c-1.42,0-1.69.27-1.69,2.07v8.74a6.38,6.38,0,0,1-3.52,1.05c-.19,0-.26.07-.26.18s.07.19.26.19c4.46,0,7.54-.71,10.65-10.39.64-2,1.95-3.52,4.31-3.52a3.68,3.68,0,0,1,3.83,3.9,3.78,3.78,0,0,1-3.6,3.9,3.35,3.35,0,0,1-3-1.73c-.3-.56-.3-1.05-.6-1.05-.11,0-.22,0-.37.49a27.6,27.6,0,0,1-2,4.31l7,11.67c1.57,2.58,2.92,3.26,4.8,1.42Z"/><path class="cls-1" d="M555.89,383.44c-2.07,2.1-3.64,3.56-5.67,3.56-1.8,0-3.33-.48-5.7-4.61l-5-8.89a8.51,8.51,0,0,1-1.91.83v8.92c0,1.8.26,2.07,1.68,2.07h2.07v1.12H528.21v-1.12h2.06c1.43,0,1.69-.27,1.69-2.07V363.38c0-1.8-.26-2.07-1.69-2.07h-2.06v-1.12h13.13v1.12h-2.07c-1.42,0-1.68.27-1.68,2.07v8.74a6.42,6.42,0,0,1-3.53,1.05c-.19,0-.26.07-.26.18s.07.19.26.19c4.46,0,7.54-.71,10.65-10.39.64-2,1.95-3.52,4.31-3.52a3.68,3.68,0,0,1,3.83,3.9,3.77,3.77,0,0,1-3.6,3.9,3.33,3.33,0,0,1-3-1.73c-.3-.56-.3-1.05-.6-1.05-.12,0-.23,0-.38.49a27.6,27.6,0,0,1-2,4.31l7,11.67c1.57,2.58,2.92,3.26,4.8,1.42Z"/><path class="cls-1" d="M656.24,383.44c-2.06,2.1-3.64,3.56-5.66,3.56-1.8,0-3.34-.48-5.7-4.61l-5-8.89a8.32,8.32,0,0,1-1.91.83v8.92c0,1.8.26,2.07,1.69,2.07h2.06v1.12H628.56v-1.12h2.07c1.42,0,1.68-.27,1.68-2.07V363.38c0-1.8-.26-2.07-1.68-2.07h-2.07v-1.12h13.13v1.12h-2.06c-1.43,0-1.69.27-1.69,2.07v8.74a6.39,6.39,0,0,1-3.53,1.05c-.18,0-.26.07-.26.18s.08.19.26.19c4.47,0,7.54-.71,10.65-10.39.64-2,2-3.52,4.32-3.52a3.68,3.68,0,0,1,3.82,3.9,3.77,3.77,0,0,1-3.6,3.9,3.33,3.33,0,0,1-3-1.73c-.3-.56-.3-1.05-.6-1.05-.11,0-.23,0-.38.49a27.64,27.64,0,0,1-2,4.31l7,11.67c1.58,2.58,2.93,3.26,4.8,1.42Z"/><path class="cls-1" d="M756.59,383.44c-2.06,2.1-3.63,3.56-5.66,3.56-1.8,0-3.34-.48-5.7-4.61l-5-8.89a8.14,8.14,0,0,1-1.91.83v8.92c0,1.8.26,2.07,1.69,2.07H742v1.12H728.92v-1.12H731c1.42,0,1.69-.27,1.69-2.07V363.38c0-1.8-.27-2.07-1.69-2.07h-2.06v-1.12H742v1.12H740c-1.43,0-1.69.27-1.69,2.07v8.74a6.38,6.38,0,0,1-3.52,1.05c-.19,0-.27.07-.27.18s.08.19.27.19c4.46,0,7.53-.71,10.65-10.39.63-2,2-3.52,4.31-3.52a3.68,3.68,0,0,1,3.83,3.9,3.78,3.78,0,0,1-3.6,3.9,3.35,3.35,0,0,1-3-1.73c-.3-.56-.3-1.05-.6-1.05-.11,0-.22,0-.37.49a28.55,28.55,0,0,1-2,4.31l7,11.67c1.57,2.58,2.92,3.26,4.8,1.42Z"/><path class="cls-1" d="M54.12,438c-2.06,2.1-3.63,3.56-5.66,3.56-1.8,0-3.34-.49-5.7-4.61l-5-8.89a8.34,8.34,0,0,1-1.92.82v8.93c0,1.8.27,2.06,1.69,2.06h2.06V441H26.45v-1.13h2.06c1.42,0,1.69-.26,1.69-2.06V417.94c0-1.8-.27-2.06-1.69-2.06H26.45v-1.13H39.57v1.13H37.51c-1.42,0-1.69.26-1.69,2.06v8.74a6.3,6.3,0,0,1-3.52,1.05c-.19,0-.27.08-.27.19s.08.19.27.19c4.46,0,7.54-.72,10.65-10.39.64-2,1.95-3.53,4.31-3.53a3.68,3.68,0,0,1,3.83,3.9,3.77,3.77,0,0,1-3.6,3.9,3.34,3.34,0,0,1-3-1.72c-.3-.57-.3-1-.6-1-.11,0-.22,0-.37.48a27.32,27.32,0,0,1-2,4.32l7,11.66c1.57,2.59,2.92,3.26,4.8,1.43Z"/><path class="cls-1" d="M154.48,438c-2.07,2.1-3.64,3.56-5.67,3.56-1.8,0-3.33-.49-5.7-4.61l-5-8.89a8.46,8.46,0,0,1-1.91.82v8.93c0,1.8.26,2.06,1.68,2.06h2.07V441H126.8v-1.13h2.06c1.43,0,1.69-.26,1.69-2.06V417.94c0-1.8-.26-2.06-1.69-2.06H126.8v-1.13h13.13v1.13h-2.07c-1.42,0-1.68.26-1.68,2.06v8.74a6.34,6.34,0,0,1-3.53,1.05c-.19,0-.26.08-.26.19s.07.19.26.19c4.46,0,7.54-.72,10.65-10.39.64-2,1.95-3.53,4.31-3.53a3.68,3.68,0,0,1,3.83,3.9,3.77,3.77,0,0,1-3.6,3.9,3.32,3.32,0,0,1-3-1.72c-.3-.57-.3-1-.6-1-.12,0-.23,0-.38.48a27.32,27.32,0,0,1-2,4.32l7,11.66c1.57,2.59,2.92,3.26,4.8,1.43Z"/><path class="cls-1" d="M254.83,438c-2.06,2.1-3.64,3.56-5.66,3.56-1.8,0-3.34-.49-5.7-4.61l-5-8.89a8.28,8.28,0,0,1-1.91.82v8.93c0,1.8.26,2.06,1.69,2.06h2.06V441H227.15v-1.13h2.06c1.43,0,1.69-.26,1.69-2.06V417.94c0-1.8-.26-2.06-1.69-2.06h-2.06v-1.13h13.13v1.13h-2.06c-1.43,0-1.69.26-1.69,2.06v8.74a6.31,6.31,0,0,1-3.53,1.05c-.18,0-.26.08-.26.19s.08.19.26.19c4.47,0,7.54-.72,10.65-10.39.64-2,1.95-3.53,4.32-3.53a3.68,3.68,0,0,1,3.82,3.9,3.77,3.77,0,0,1-3.6,3.9,3.32,3.32,0,0,1-3-1.72c-.3-.57-.3-1-.6-1-.11,0-.23,0-.38.48a27.37,27.37,0,0,1-2,4.32l7,11.66c1.58,2.59,2.93,3.26,4.8,1.43Z"/><path class="cls-1" d="M355.18,438c-2.06,2.1-3.64,3.56-5.66,3.56-1.8,0-3.34-.49-5.7-4.61l-5-8.89a8.1,8.1,0,0,1-1.91.82v8.93c0,1.8.26,2.06,1.69,2.06h2.06V441H327.5v-1.13h2.07c1.42,0,1.69-.26,1.69-2.06V417.94c0-1.8-.27-2.06-1.69-2.06H327.5v-1.13h13.13v1.13h-2.06c-1.43,0-1.69.26-1.69,2.06v8.74a6.3,6.3,0,0,1-3.52,1.05c-.19,0-.27.08-.27.19s.08.19.27.19c4.46,0,7.53-.72,10.65-10.39.63-2,1.95-3.53,4.31-3.53a3.68,3.68,0,0,1,3.82,3.9,3.77,3.77,0,0,1-3.6,3.9,3.34,3.34,0,0,1-3-1.72c-.3-.57-.3-1-.6-1-.11,0-.22,0-.37.48a28.25,28.25,0,0,1-2,4.32l7,11.66c1.58,2.59,2.93,3.26,4.8,1.43Z"/><path class="cls-1" d="M455.53,438c-2.06,2.1-3.63,3.56-5.66,3.56-1.8,0-3.34-.49-5.7-4.61l-5-8.89a8.34,8.34,0,0,1-1.92.82v8.93c0,1.8.27,2.06,1.69,2.06H441V441H427.86v-1.13h2.06c1.43,0,1.69-.26,1.69-2.06V417.94c0-1.8-.26-2.06-1.69-2.06h-2.06v-1.13H441v1.13h-2.06c-1.42,0-1.69.26-1.69,2.06v8.74a6.3,6.3,0,0,1-3.52,1.05c-.19,0-.26.08-.26.19s.07.19.26.19c4.46,0,7.54-.72,10.65-10.39.64-2,1.95-3.53,4.31-3.53a3.68,3.68,0,0,1,3.83,3.9,3.77,3.77,0,0,1-3.6,3.9,3.34,3.34,0,0,1-3-1.72c-.3-.57-.3-1-.6-1-.11,0-.22,0-.37.48a27.32,27.32,0,0,1-2,4.32l7,11.66c1.57,2.59,2.92,3.26,4.8,1.43Z"/><path class="cls-1" d="M555.89,438c-2.07,2.1-3.64,3.56-5.67,3.56-1.8,0-3.33-.49-5.7-4.61l-5-8.89a8.46,8.46,0,0,1-1.91.82v8.93c0,1.8.26,2.06,1.68,2.06h2.07V441H528.21v-1.13h2.06c1.43,0,1.69-.26,1.69-2.06V417.94c0-1.8-.26-2.06-1.69-2.06h-2.06v-1.13h13.13v1.13h-2.07c-1.42,0-1.68.26-1.68,2.06v8.74a6.34,6.34,0,0,1-3.53,1.05c-.19,0-.26.08-.26.19s.07.19.26.19c4.46,0,7.54-.72,10.65-10.39.64-2,1.95-3.53,4.31-3.53a3.68,3.68,0,0,1,3.83,3.9,3.77,3.77,0,0,1-3.6,3.9,3.32,3.32,0,0,1-3-1.72c-.3-.57-.3-1-.6-1-.12,0-.23,0-.38.48a27.32,27.32,0,0,1-2,4.32l7,11.66c1.57,2.59,2.92,3.26,4.8,1.43Z"/><path class="cls-1" d="M656.24,438c-2.06,2.1-3.64,3.56-5.66,3.56-1.8,0-3.34-.49-5.7-4.61l-5-8.89a8.28,8.28,0,0,1-1.91.82v8.93c0,1.8.26,2.06,1.69,2.06h2.06V441H628.56v-1.13h2.07c1.42,0,1.68-.26,1.68-2.06V417.94c0-1.8-.26-2.06-1.68-2.06h-2.07v-1.13h13.13v1.13h-2.06c-1.43,0-1.69.26-1.69,2.06v8.74a6.31,6.31,0,0,1-3.53,1.05c-.18,0-.26.08-.26.19s.08.19.26.19c4.47,0,7.54-.72,10.65-10.39.64-2,2-3.53,4.32-3.53a3.68,3.68,0,0,1,3.82,3.9,3.77,3.77,0,0,1-3.6,3.9,3.32,3.32,0,0,1-3-1.72c-.3-.57-.3-1-.6-1-.11,0-.23,0-.38.48a27.37,27.37,0,0,1-2,4.32l7,11.66c1.58,2.59,2.93,3.26,4.8,1.43Z"/><path class="cls-1" d="M756.59,438c-2.06,2.1-3.63,3.56-5.66,3.56-1.8,0-3.34-.49-5.7-4.61l-5-8.89a8.1,8.1,0,0,1-1.91.82v8.93c0,1.8.26,2.06,1.69,2.06H742V441H728.92v-1.13H731c1.42,0,1.69-.26,1.69-2.06V417.94c0-1.8-.27-2.06-1.69-2.06h-2.06v-1.13H742v1.13H740c-1.43,0-1.69.26-1.69,2.06v8.74a6.3,6.3,0,0,1-3.52,1.05c-.19,0-.27.08-.27.19s.08.19.27.19c4.46,0,7.53-.72,10.65-10.39.63-2,2-3.53,4.31-3.53a3.68,3.68,0,0,1,3.83,3.9A3.77,3.77,0,0,1,750,422a3.34,3.34,0,0,1-3-1.72c-.3-.57-.3-1-.6-1-.11,0-.22,0-.37.48a28.25,28.25,0,0,1-2,4.32l7,11.66c1.57,2.59,2.92,3.26,4.8,1.43Z"/></svg>