<svg id="Layer_1" data-name="Layer 1" xmlns="http://www.w3.org/2000/svg" viewBox="0 0 201.73 323.2"><defs><style>.cls-1,.cls-2{fill:none;stroke:#827d79;stroke-width:0.28px;}.cls-1{stroke-miterlimit:10;}.cls-2{stroke-linecap:round;stroke-linejoin:round;}</style></defs><path class="cls-1" d="M48.77,296.62c-1.65,0-2-.83-2.09-2.61L46,272.23h-.13l-9.59,23a2,2,0,0,1-2.16,1.4H31.75a2.32,2.32,0,0,1-2.54-1.46l-11-22.93h-.13l-.38,22.42c0,1.78-.82,2-2.16,2H10.34c-1.59,0-2.22-.57-2.16-2l1.72-40c.06-1.53.76-2,2-2h4.57a2.46,2.46,0,0,1,2.61,1.72l14,28.71h.13l12.7-28.71a2.6,2.6,0,0,1,2.61-1.72H53c1.27,0,1.71.45,1.77,1.59l2.1,40.53c.06,1.27-.44,2-1.71,2Z"/><path class="cls-1" d="M94.26,267.46,81.68,300.11c-2.92,7.56-6.73,10.35-15,10.35a17.64,17.64,0,0,1-3.81-.38c-1.21-.25-1.21-1-1.08-2l.57-4c.19-1.4.57-1.4,1.46-1.4.7,0,1.72.19,2.48.19,4.32,0,5.53-1.33,6.8-4.06l.89-1.91L62.18,267.4a3.15,3.15,0,0,1-.13-.64,1.09,1.09,0,0,1,1.15-1.08h7.68A1.8,1.8,0,0,1,72.79,267l6,18.87,5.59-18.3a2.21,2.21,0,0,1,2.35-1.84h6.55a1,1,0,0,1,1.08,1.08A3.51,3.51,0,0,1,94.26,267.46Z"/><path class="cls-1" d="M132.06,256.28l-1.84,5.34c-.26.63-.51.95-1,.95a2.59,2.59,0,0,1-.82-.25,19.64,19.64,0,0,0-9-2.16c-6.61,0-10.86,5.08-10.86,14.35,0,10,4.83,14.36,11,14.36a21.82,21.82,0,0,0,8.58-1.78,3.44,3.44,0,0,1,.95-.25c.57,0,.89.25,1.14,1l1.59,4.7a3.08,3.08,0,0,1,.19,1c0,.63-.25,1.08-1.14,1.4a33.82,33.82,0,0,1-12.9,2.47c-13.46,0-20.26-8.95-20.26-22.61s8.32-23.25,21.09-23.25A28.79,28.79,0,0,1,131,254.12c.89.38,1.21.83,1.21,1.27A2.42,2.42,0,0,1,132.06,256.28Z"/><path class="cls-1" d="M167.51,295.16a1.39,1.39,0,0,1-1.53,1.46h-3.36c-3.75,0-5.28-1.08-6.1-2.92h-.13c-1.71,2-5.78,3.74-8.89,3.74-9.15,0-13.41-7.24-13.41-15.69,0-11.24,7-17,14-17a9.51,9.51,0,0,1,7.75,3.56L156,267a1.4,1.4,0,0,1,1.46-1.27h5.72a1.4,1.4,0,0,1,1.52,1.53v21.91c0,.64.26,1.08.95,1.08h.51c.89,0,1.34.32,1.34,1.27Zm-12.33-20.33a8.61,8.61,0,0,0-5.14-2.16c-3.11,0-6,2.54-6,8.45,0,3.94,1,8.64,5.85,8.64a7.93,7.93,0,0,0,5.33-2.67Z"/><path class="cls-1" d="M192.54,295.79a20,20,0,0,1-8.13,1.65c-3.56,0-6.42-.82-8.13-2.86-2-2.41-2.16-5-2.16-10.22v-12.2h-2.54c-1.53,0-1.78-.38-1.78-2.09v-2.74a1.48,1.48,0,0,1,1.46-1.65h2.92V259c0-1.27.83-1.52,2-1.65l6.1-.76c.95,0,1.39.51,1.39,1.65v7.43h6.93c.89,0,1.52.38,1.52,1.34v3.68a1.38,1.38,0,0,1-1.52,1.46h-6.93v12.39c0,3.3.45,5.33,3.24,5.33a13.27,13.27,0,0,0,4.07-.76,2.69,2.69,0,0,1,.89-.19c.51,0,.76.32.89.89l.76,4.07a1.85,1.85,0,0,1,.06.57C193.55,295.16,193.24,295.47,192.54,295.79Z"/><polygon class="cls-2" points="63.46 201.57 63.46 185.36 95.38 201.57 63.46 201.57"/><polygon class="cls-2" points="95.38 201.57 108.46 169.14 83.29 169.87 95.38 201.57"/><polygon class="cls-2" points="108.46 169.14 120.87 186.58 95.38 201.57 108.46 169.14"/><polygon class="cls-2" points="120.87 186.58 134.59 201.57 95.38 201.57 120.87 186.58"/><polygon class="cls-2" points="120.87 186.58 140.69 179.31 134.59 201.57 120.87 186.58"/><polygon class="cls-2" points="140.69 179.31 108.46 169.14 120.87 186.58 140.69 179.31"/><polygon class="cls-2" points="140.69 179.31 134.59 201.57 161.3 175.49 140.69 179.31"/><polygon class="cls-2" points="147.94 162.14 161.29 175.5 140.69 179.31 147.94 162.14"/><polygon class="cls-2" points="140.69 179.31 128.87 151.44 108.46 169.14 140.69 179.31"/><polygon class="cls-2" points="108.46 169.14 92.18 144.7 83.29 169.87 108.46 169.14"/><polygon class="cls-2" points="83.29 169.87 63.46 185.36 63.46 153.23 83.29 169.87"/><polygon class="cls-2" points="92.18 144.7 83.29 169.87 63.46 153.23 92.18 144.7"/><polygon class="cls-2" points="108.46 169.14 92.18 144.7 128.87 151.44 108.46 169.14"/><polygon class="cls-2" points="63.46 201.57 29.76 165.42 63.46 153.23 63.46 201.57"/><polygon class="cls-2" points="63.46 153.23 29.76 165.42 18.05 152.84 63.46 153.23"/><polygon class="cls-2" points="63.46 153.23 20.48 124.19 18.05 152.84 63.46 153.23"/><polygon class="cls-2" points="63.46 153.23 40.75 137.89 63.46 131.9 63.46 153.23"/><polygon class="cls-2" points="63.46 131.9 20.48 124.19 40.75 137.89 63.46 131.9"/><polygon class="cls-2" points="20.48 124.19 22.42 101.26 63.46 131.9 20.48 124.19"/><polygon class="cls-2" points="63.46 131.9 92.18 144.7 63.46 153.23 63.46 131.9"/><polygon class="cls-2" points="63.46 131.9 84.8 105.89 95.87 130.77 63.46 131.9"/><polygon class="cls-2" points="95.87 130.77 84.8 105.89 115.05 112.99 95.87 130.77"/><polygon class="cls-2" points="115.05 112.99 128.87 151.44 95.87 130.77 115.05 112.99"/><polygon class="cls-2" points="115.05 112.99 128.87 151.44 147.94 162.14 115.05 112.99"/><polygon class="cls-2" points="128.87 151.44 140.69 179.31 147.94 162.14 128.87 151.44"/><polygon class="cls-2" points="147.94 162.14 183.69 153.63 161.29 175.5 147.94 162.14"/><polygon class="cls-2" points="147.94 162.14 178.63 127.85 183.69 153.63 147.94 162.14"/><polygon class="cls-2" points="178.63 127.85 173.97 104.11 132.89 139.65 178.63 127.85"/><polygon class="cls-2" points="178.63 127.85 132.89 139.65 140.69 151.44 178.63 127.85"/><polygon class="cls-2" points="178.63 127.85 147.94 162.14 140.69 151.44 178.63 127.85"/><path class="cls-2" d="M132.89,139.65,115.05,113l21.67,2Z"/><polygon class="cls-2" points="170.32 85.5 173.97 104.11 157.35 118.49 170.32 85.5"/><polygon class="cls-2" points="136.72 114.99 157.35 118.49 132.89 139.65 136.72 114.99"/><polygon class="cls-2" points="63.46 131.9 38.13 112.99 84.8 105.89 63.46 131.9"/><polygon class="cls-2" points="38.13 112.99 22.42 101.26 24.65 76.13 38.13 112.99"/><polygon class="cls-2" points="46.61 87 38.13 112.99 84.8 105.89 46.61 87"/><polygon class="cls-2" points="24.65 76.13 29.74 12.73 46.61 87 24.65 76.13"/><polygon class="cls-2" points="29.74 12.73 57.73 76.13 46.61 87 29.74 12.73"/><polygon class="cls-2" points="29.74 12.73 71.61 57.82 71.61 74.57 29.74 12.73"/><polygon class="cls-2" points="57.73 76.13 71.61 74.57 29.74 12.73 57.73 76.13"/><polygon class="cls-2" points="71.61 74.57 57.73 76.13 46.61 87 71.61 74.57"/><polygon class="cls-2" points="71.61 74.57 84.8 105.89 46.61 87 71.61 74.57"/><polygon class="cls-2" points="71.61 57.82 71.61 74.57 125.97 59.86 71.61 57.82"/><polygon class="cls-2" points="125.97 59.86 84.8 105.89 71.61 74.57 125.97 59.86"/><polygon class="cls-2" points="125.97 59.86 115.05 112.99 84.8 105.89 125.97 59.86"/><polygon class="cls-2" points="125.97 59.86 157.35 118.49 136.72 114.99 125.97 59.86"/><polygon class="cls-2" points="125.97 59.86 115.05 112.99 136.72 114.99 125.97 59.86"/><polygon class="cls-2" points="125.97 59.86 172.2 15.78 136.72 79.95 125.97 59.86"/><polygon class="cls-2" points="172.2 15.78 154.16 89.17 136.72 79.95 172.2 15.78"/><polygon class="cls-2" points="172.2 15.78 170.32 85.5 154.16 89.17 172.2 15.78"/><polygon class="cls-2" points="170.32 85.5 154.16 89.17 157.35 118.49 170.32 85.5"/><polygon class="cls-2" points="154.16 89.17 136.72 79.95 157.35 118.49 154.16 89.17"/><polygon class="cls-2" points="95.87 130.77 81.1 131.28 92.18 144.7 95.87 130.77"/><polygon class="cls-2" points="105.47 136.79 92.18 144.7 128.87 151.44 105.47 136.79"/><polygon class="cls-2" points="81.1 131.28 92.18 144.7 63.46 131.9 81.1 131.28"/><polygon class="cls-2" points="95.87 130.77 105.47 136.79 92.18 144.7 95.87 130.77"/><polygon class="cls-2" points="24.65 76.13 38.13 112.99 46.61 87 24.65 76.13"/><polygon class="cls-2" points="95.38 201.57 83.29 169.87 63.46 185.36 95.38 201.57"/></svg>