<svg id="Layer_1" data-name="Layer 1" xmlns="http://www.w3.org/2000/svg" viewBox="0 0 423.38 592.82"><defs><style>.cls-1{fill:#e95944;}.cls-2{fill:#77716d;}.cls-3{fill:#e2e1e0;}.cls-4{fill:#72edb8;}.cls-5{fill:#91d0b8;}</style></defs><polygon class="cls-1" points="43.6 338.82 56.28 350.23 65.17 296.29 43.6 338.82"/><path class="cls-1" d="M66.18,296.36l-9.06,54.93a.48.48,0,0,1-.32.38.51.51,0,0,1-.17,0L74.54,351Z"/><polygon class="cls-1" points="87.92 339.7 67.2 296.44 75.4 349.99 87.92 339.7"/><path class="cls-2" d="M139.08,323.07c0,.16-.1.21-.26.21h-1.47l-.29,1.91h1.44c.16,0,.19.06.19.17v.08l0,.47c0,.19-.11.22-.29.22H136.9l-.39,2.5c0,.18-.11.25-.34.25h-.57c-.16,0-.22,0-.22-.15a.72.72,0,0,1,0-.13l.42-2.47h-1.93l-.42,2.47c0,.19-.08.28-.36.28h-.52c-.19,0-.25-.06-.25-.18a.34.34,0,0,1,0-.13l.38-2.44h-1.36c-.17,0-.21-.07-.21-.16s0-.06,0-.1l.07-.46c0-.16.09-.22.33-.22h1.35l.3-1.91h-1.44c-.14,0-.19-.07-.19-.17s0-.05,0-.08l.07-.47c0-.15.07-.19.25-.19h1.47l.42-2.79c0-.15.07-.21.2-.21h.69c.18,0,.22,0,.22.15a.66.66,0,0,1,0,.14l-.41,2.71h1.87l.43-2.78c0-.18.08-.22.25-.22h.66c.17,0,.22.06.22.17s0,0,0,.09l-.4,2.74H139c.11,0,.18,0,.18.13v0Zm-2.83.21h-1.9l-.31,1.91H136Z"/><path class="cls-2" d="M146.74,325.33c0,.32-.05.39-.41.39H142.1a2.15,2.15,0,0,0,2.18,2.33,4.88,4.88,0,0,0,1.65-.29c.12,0,.26-.07.3.1l.16.51c0,.12,0,.18-.16.24a5.46,5.46,0,0,1-2.11.4c-2.12,0-3.25-1.39-3.25-3.47a3.2,3.2,0,0,1,3.21-3.48,2.55,2.55,0,0,1,1.88.76,3.2,3.2,0,0,1,.78,2.28Zm-1.15-.41v-.2A1.57,1.57,0,0,0,144,323a2,2,0,0,0-1.91,1.95Z"/><path class="cls-2" d="M153.71,328.23a3.51,3.51,0,0,1-2.29.78,5.7,5.7,0,0,1-1.2-.16c-.17,0-.18-.14-.15-.29l.11-.5c0-.2.09-.2.25-.18a4.78,4.78,0,0,0,.91.1,2.23,2.23,0,0,0,1.62-.61,4.8,4.8,0,0,0,1-2.85,2.79,2.79,0,0,1-2,.8,2.62,2.62,0,0,1-2.7-2.84,3,3,0,0,1,2.94-3.27c2.36,0,3.14,1.94,3.14,4.18A6.59,6.59,0,0,1,153.71,328.23Zm-1.48-8c-1.18,0-1.6,1.17-1.6,2.13s.43,1.91,1.55,1.91a2.55,2.55,0,0,0,1.87-.88c0-.08,0-.22,0-.33C154.07,321.37,153.52,320.24,152.23,320.24Z"/><path class="cls-2" d="M161,329a4.9,4.9,0,0,1-2.22-.56c-.15-.08-.2-.14-.2-.22a.31.31,0,0,1,0-.15l.22-.51c0-.11.09-.16.16-.16a.52.52,0,0,1,.21.07,3.94,3.94,0,0,0,1.88.47,1.85,1.85,0,0,0,2-1.91,2,2,0,0,0-.6-1.51,3.15,3.15,0,0,0-2.12-.59h-.87c-.28,0-.41-.14-.41-.42v-3.83c0-.23.09-.32.3-.32h4.21c.2,0,.31.07.31.29v.49c0,.2-.05.27-.29.27h-3.29V323h.41c2,0,3.66.85,3.66,3C164.36,327.91,162.88,329,161,329Z"/><path class="cls-2" d="M171.64,328.23a3.51,3.51,0,0,1-2.29.78,5.61,5.61,0,0,1-1.2-.16c-.17,0-.18-.14-.15-.29l.11-.5c0-.2.09-.2.24-.18a4.87,4.87,0,0,0,.91.1,2.23,2.23,0,0,0,1.63-.61,4.8,4.8,0,0,0,1-2.85,2.79,2.79,0,0,1-2,.8,2.62,2.62,0,0,1-2.7-2.84,3,3,0,0,1,2.93-3.27c2.36,0,3.15,1.94,3.15,4.18A6.59,6.59,0,0,1,171.64,328.23Zm-1.48-8c-1.19,0-1.6,1.17-1.6,2.13s.43,1.91,1.55,1.91a2.56,2.56,0,0,0,1.87-.88c0-.08,0-.22,0-.33C172,321.37,171.44,320.24,170.16,320.24Z"/><path class="cls-2" d="M180,319.37c.11,0,.16,0,.16.13a.61.61,0,0,1-.06.22l-2.63,5.89h3.39V323.4c0-.22.11-.26.29-.26h.68c.19,0,.27.05.27.26v5.21c0,.2-.08.27-.25.27h-.71c-.18,0-.28-.07-.28-.28v-1.93h-4.47c-.25,0-.3-.12-.3-.33V326a1.11,1.11,0,0,1,.15-.58l2.63-5.78c.07-.15.15-.28.35-.28Z"/><path class="cls-2" d="M189,319.37c.11,0,.15,0,.15.13a.45.45,0,0,1-.06.22l-2.63,5.89h3.39V323.4c0-.22.11-.26.29-.26h.68c.19,0,.27.05.27.26v5.21c0,.2-.08.27-.24.27h-.72c-.18,0-.28-.07-.28-.28v-1.93h-4.47c-.24,0-.3-.12-.3-.33V326a1.21,1.21,0,0,1,.15-.58l2.64-5.78c.07-.15.15-.28.34-.28Z"/><path class="cls-2" d="M255.93,328.57,254,325.64h-.85v2.85a.34.34,0,0,1-.37.39h-1.44c-.27,0-.38-.13-.38-.4v-8.71c0-.37.08-.47.45-.47h2.1a4.47,4.47,0,0,1,3.42,1,3.11,3.11,0,0,1,.74,2.05,3,3,0,0,1-1.64,2.82v0l2.26,3.22a.45.45,0,0,1,.09.24.2.2,0,0,1-.22.18h-1.62A.65.65,0,0,1,255.93,328.57ZM253.7,321h-.54v3h.69a1.44,1.44,0,0,0,1.63-1.55C255.48,321.35,254.73,321,253.7,321Z"/><path class="cls-2" d="M266.73,328.57c0,.2-.08.31-.33.31h-5.2c-.24,0-.31-.09-.31-.31v-.45a.48.48,0,0,1,.17-.42c.73-.77,1.56-1.53,2.26-2.29,1.31-1.4,2.09-2.51,2.09-3.55a1.51,1.51,0,0,0-1.66-1.56,4,4,0,0,0-2,.58.51.51,0,0,1-.14,0c-.08,0-.14-.06-.19-.17l-.21-.44a.31.31,0,0,1,0-.15.28.28,0,0,1,.15-.22,4.9,4.9,0,0,1,2.58-.73,2.53,2.53,0,0,1,2.8,2.52c0,1.44-.87,2.64-2.57,4.4-.55.58-1.13,1.15-1.66,1.68h3.9c.23,0,.33.07.33.28Z"/><path class="cls-2" d="M272.4,329a5.05,5.05,0,0,1-2.35-.48c-.11,0-.16-.12-.16-.19a.44.44,0,0,1,0-.1l.22-.58a.17.17,0,0,1,.17-.11l.12,0a4.6,4.6,0,0,0,1.88.41,1.83,1.83,0,0,0,2-1.89c0-1.29-1.05-1.86-2.26-1.86h-.4c-.18,0-.24-.09-.24-.25v-.47c0-.15.05-.23.22-.23h.4c1.15,0,1.92-.51,1.92-1.64,0-1-.7-1.45-1.67-1.45a3.68,3.68,0,0,0-1.68.47.29.29,0,0,1-.15.05c-.06,0-.1,0-.14-.13l-.22-.5a.54.54,0,0,1,0-.1c0-.07,0-.11.13-.16a4.35,4.35,0,0,1,2.31-.62,2.51,2.51,0,0,1,2.76,2.36,2.26,2.26,0,0,1-1.56,2.13,2.46,2.46,0,0,1,1.92,2.4A3,3,0,0,1,272.4,329Z"/><path class="cls-2" d="M281.36,329a5,5,0,0,1-2.34-.48c-.11,0-.17-.12-.17-.19a.54.54,0,0,1,0-.1l.22-.58a.17.17,0,0,1,.16-.11.5.5,0,0,1,.13,0,4.56,4.56,0,0,0,1.87.41,1.84,1.84,0,0,0,2-1.89c0-1.29-1-1.86-2.27-1.86h-.4c-.18,0-.23-.09-.23-.25v-.47c0-.15,0-.23.22-.23h.4c1.14,0,1.92-.51,1.92-1.64,0-1-.71-1.45-1.67-1.45a3.72,3.72,0,0,0-1.69.47.26.26,0,0,1-.15.05s-.09,0-.14-.13l-.22-.5a.44.44,0,0,1,0-.1c0-.07,0-.11.12-.16a4.36,4.36,0,0,1,2.32-.62,2.51,2.51,0,0,1,2.76,2.36,2.27,2.27,0,0,1-1.56,2.13,2.47,2.47,0,0,1,1.92,2.4A3,3,0,0,1,281.36,329Z"/><path class="cls-2" d="M309.41,327.9a.46.46,0,0,1-.33.52,8.91,8.91,0,0,1-3.42.64c-2.77,0-4.54-2-4.54-4.93a4.7,4.7,0,0,1,4.72-5,6,6,0,0,1,2.72.59.28.28,0,0,1,.2.29.53.53,0,0,1,0,.18l-.41,1.07c-.06.16-.14.23-.23.23a.59.59,0,0,1-.24-.07A5.07,5.07,0,0,0,306,321a2.36,2.36,0,0,0-1.72.72,3.43,3.43,0,0,0-.78,2.36c0,2.19,1.07,3.13,2.34,3.13a5.78,5.78,0,0,0,1.41-.14v-2.12h-1.06a.34.34,0,0,1-.35-.36v-1.08c0-.25.14-.34.38-.34H309c.26,0,.38.09.38.37Z"/><path class="cls-2" d="M315.36,329c-1.74,0-3.13-.92-3.13-2.7a2.24,2.24,0,0,1,.41-1.25,3.56,3.56,0,0,1,1.64-1.25,2.37,2.37,0,0,1,1.13-4.6,2.41,2.41,0,0,1,2.69,2.33,2.72,2.72,0,0,1-1.65,2.18c1.39.58,2.08,1.43,2.08,2.45A2.93,2.93,0,0,1,315.36,329Zm1.38-3.87a4.39,4.39,0,0,0-1.47-.88c-.92.38-1.73,1-1.73,2a1.79,1.79,0,0,0,1.86,1.8,1.72,1.72,0,0,0,1.82-1.78A1.53,1.53,0,0,0,316.74,325.14Zm-1.38-5a1.35,1.35,0,0,0-1.42,1.36c0,.89.69,1.38,1.47,1.77a2.14,2.14,0,0,0,1.38-1.74A1.31,1.31,0,0,0,315.36,320.16Z"/><path class="cls-2" d="M325.69,328.23a3.51,3.51,0,0,1-2.29.78,5.53,5.53,0,0,1-1.2-.16c-.17,0-.18-.14-.16-.29l.12-.5c0-.2.09-.2.24-.18a4.87,4.87,0,0,0,.91.1,2.25,2.25,0,0,0,1.63-.61,4.8,4.8,0,0,0,1-2.85,2.79,2.79,0,0,1-2,.8,2.62,2.62,0,0,1-2.7-2.84,3,3,0,0,1,2.93-3.27c2.36,0,3.15,1.94,3.15,4.18A6.59,6.59,0,0,1,325.69,328.23Zm-1.48-8c-1.19,0-1.6,1.17-1.6,2.13s.43,1.91,1.55,1.91a2.56,2.56,0,0,0,1.87-.88c0-.08,0-.22,0-.33C326.05,321.37,325.49,320.24,324.21,320.24Z"/><path class="cls-2" d="M347.39,328.88h-2.76c-.33,0-.41-.14-.41-.49V319.7c0-.33.14-.4.46-.4h2.23c2.46,0,3.66.72,3.66,2.35a1.94,1.94,0,0,1-1.49,2h0a2.34,2.34,0,0,1,2.23,2.4C351.31,328.34,349.38,328.88,347.39,328.88Zm-.33-7.92h-.67v2.15h.52c1,0,1.5-.29,1.5-1.16C348.41,321.29,347.9,321,347.06,321Zm1.35,3.85a3.08,3.08,0,0,0-1.33-.2l-.69,0v2.58h.85a3.49,3.49,0,0,0,1.13-.14,1.15,1.15,0,0,0,.72-1.12A1.17,1.17,0,0,0,348.41,324.81Z"/><path class="cls-2" d="M357.16,329c-2.36,0-3.13-1.94-3.13-4.17a6.65,6.65,0,0,1,1.61-4.76,3.35,3.35,0,0,1,2.32-.87,4.93,4.93,0,0,1,1.22.16c.18,0,.18.2.16.33l-.1.46c0,.18-.14.21-.29.18a4.94,4.94,0,0,0-1-.1,2.06,2.06,0,0,0-1.5.6,4.69,4.69,0,0,0-1.05,2.86,2.86,2.86,0,0,1,2-.8,2.63,2.63,0,0,1,2.72,2.85A3,3,0,0,1,357.16,329Zm.07-5.07a2.62,2.62,0,0,0-1.87.88c0,.11,0,.21,0,.32,0,1.7.54,2.84,1.82,2.84s1.61-1.21,1.61-2.12S358.36,323.94,357.23,323.94Z"/><path class="cls-2" d="M365.94,329c-1.74,0-3.13-.92-3.13-2.7a2.24,2.24,0,0,1,.41-1.25,3.58,3.58,0,0,1,1.65-1.25,2.37,2.37,0,0,1,1.13-4.6,2.41,2.41,0,0,1,2.69,2.33,2.71,2.71,0,0,1-1.66,2.18c1.39.58,2.08,1.43,2.08,2.45A2.92,2.92,0,0,1,365.94,329Zm1.38-3.87a4.34,4.34,0,0,0-1.46-.88c-.93.38-1.74,1-1.74,2a1.8,1.8,0,0,0,1.86,1.8,1.72,1.72,0,0,0,1.82-1.78A1.5,1.5,0,0,0,367.32,325.14Zm-1.38-5a1.36,1.36,0,0,0-1.42,1.36c0,.89.69,1.38,1.48,1.77a2.16,2.16,0,0,0,1.38-1.74A1.32,1.32,0,0,0,365.94,320.16Z"/><rect class="cls-2" x="220.87" y="313.32" width="1.07" height="22.42"/><polygon class="cls-2" points="43.6 441.01 56.28 452.42 65.17 398.48 43.6 441.01"/><path class="cls-2" d="M66.18,398.55l-9.06,54.93a.5.5,0,0,1-.32.38.51.51,0,0,1-.17,0l17.91-.75Z"/><polygon class="cls-2" points="87.92 441.89 67.2 398.63 75.4 452.18 87.92 441.89"/><path class="cls-2" d="M139.08,424.16c0,.16-.1.2-.26.2h-1.47l-.29,1.92h1.44c.16,0,.19.05.19.16v.09l0,.47c0,.19-.11.22-.29.22H136.9l-.39,2.49c0,.18-.11.25-.34.25h-.57c-.16,0-.22,0-.22-.15a.57.57,0,0,1,0-.12l.42-2.47h-1.93l-.42,2.47c0,.19-.08.27-.36.27h-.52c-.19,0-.25,0-.25-.18a.27.27,0,0,1,0-.12l.38-2.44h-1.36c-.17,0-.21-.07-.21-.17s0-.05,0-.09l.07-.46c0-.17.09-.22.33-.22h1.35l.3-1.92h-1.44c-.14,0-.19-.07-.19-.16s0-.06,0-.09l.07-.47c0-.15.07-.19.25-.19h1.47l.42-2.78c0-.16.07-.21.2-.21h.69c.18,0,.22,0,.22.15a.76.76,0,0,1,0,.14l-.41,2.7h1.87l.43-2.77c0-.18.08-.22.25-.22h.66c.17,0,.22.05.22.16s0,.06,0,.1l-.4,2.73H139c.11,0,.18,0,.18.14v0Zm-2.83.2h-1.9l-.31,1.92H136Z"/><path class="cls-2" d="M147.2,421.19a1.58,1.58,0,0,1-.12.5l-3.71,8a.44.44,0,0,1-.43.27h-.77c-.16,0-.23-.09-.23-.2a.33.33,0,0,1,.05-.16l3.8-8.07h-4.4c-.22,0-.29-.08-.29-.27v-.53c0-.18.06-.27.28-.27h5.53c.22,0,.29.07.29.27Z"/><path class="cls-2" d="M156.16,421.19a1.35,1.35,0,0,1-.12.5l-3.71,8a.43.43,0,0,1-.43.27h-.77a.19.19,0,0,1-.22-.2.32.32,0,0,1,0-.16l3.81-8.07h-4.4c-.22,0-.29-.08-.29-.27v-.53c0-.18.05-.27.27-.27h5.53c.22,0,.29.07.29.27Z"/><path class="cls-2" d="M165.13,421.19a1.37,1.37,0,0,1-.13.5l-3.71,8a.42.42,0,0,1-.42.27h-.78a.19.19,0,0,1-.22-.2.47.47,0,0,1,0-.16l3.81-8.07h-4.4c-.22,0-.29-.08-.29-.27v-.53c0-.18.06-.27.28-.27h5.53c.22,0,.29.07.29.27Z"/><path class="cls-2" d="M172.09,429.63c0,.24-.08.33-.3.33h-.61c-.25,0-.33-.09-.33-.33v-7.81l-2,1.23a.45.45,0,0,1-.19.07.19.19,0,0,1-.18-.11l-.28-.45a.41.41,0,0,1,0-.16c0-.08,0-.16.18-.23l2.53-1.59a.79.79,0,0,1,.52-.12h.44c.19,0,.27.11.27.32Z"/><path class="cls-2" d="M180.12,430.1c-2.36,0-3.13-1.94-3.13-4.18a6.65,6.65,0,0,1,1.61-4.76,3.35,3.35,0,0,1,2.32-.87,5.11,5.11,0,0,1,1.23.17c.18,0,.18.19.15.33l-.1.45c0,.18-.14.21-.29.18a4.89,4.89,0,0,0-1-.09,2.05,2.05,0,0,0-1.5.59,4.81,4.81,0,0,0-1.05,2.87,2.81,2.81,0,0,1,2-.8,2.63,2.63,0,0,1,2.72,2.84A3,3,0,0,1,180.12,430.1Zm.07-5.08a2.6,2.6,0,0,0-1.86.89c0,.11,0,.2,0,.31,0,1.7.54,2.85,1.82,2.85s1.62-1.22,1.62-2.13S181.32,425,180.19,425Z"/><path class="cls-2" d="M191.66,429.67c0,.18-.08.29-.2.29h-.6c-.2,0-.29-.08-.29-.26v-.5a2.74,2.74,0,0,1-2,.9c-2,0-2.84-1.63-2.84-3.43,0-2,1.19-3.54,3-3.54a2.45,2.45,0,0,1,1.79.78v-3.37c0-.18,0-.26.22-.29l.75-.1c.13,0,.2.07.2.24ZM190.49,425a2,2,0,0,0-1.63-1c-1.24,0-2,1-2,2.54s.65,2.55,1.85,2.55a2.32,2.32,0,0,0,1.74-.91Z"/><path class="cls-2" d="M255.93,429.66,254,426.72h-.85v2.86a.34.34,0,0,1-.37.38h-1.44c-.27,0-.38-.12-.38-.4v-8.7c0-.37.08-.47.45-.47h2.1a4.5,4.5,0,0,1,3.42,1,3.14,3.14,0,0,1,.74,2.06,3,3,0,0,1-1.64,2.81v0l2.26,3.23a.4.4,0,0,1,.09.23c0,.13-.11.18-.22.18h-1.62A.66.66,0,0,1,255.93,429.66ZM253.7,422h-.54v3h.69a1.45,1.45,0,0,0,1.63-1.56C255.48,422.43,254.73,422,253.7,422Z"/><path class="cls-2" d="M264.85,429.63c0,.24-.08.33-.3.33h-.61c-.24,0-.33-.09-.33-.33v-7.81l-2,1.23a.45.45,0,0,1-.19.07.19.19,0,0,1-.18-.11l-.28-.45a.71.71,0,0,1,0-.16c0-.08,0-.16.18-.23l2.54-1.59a.75.75,0,0,1,.51-.12h.44c.19,0,.27.11.27.32Z"/><path class="cls-2" d="M273.82,429.63c0,.24-.08.33-.31.33h-.6c-.25,0-.33-.09-.33-.33v-7.81l-2,1.23a.44.44,0,0,1-.2.07.2.2,0,0,1-.18-.11l-.27-.45a.46.46,0,0,1-.06-.16c0-.08.06-.16.18-.23l2.54-1.59a.78.78,0,0,1,.51-.12h.44c.2,0,.28.11.28.32Z"/><path class="cls-2" d="M283,429.31a3.49,3.49,0,0,1-2.29.79,5.11,5.11,0,0,1-1.2-.17c-.16,0-.18-.13-.15-.29l.11-.49c0-.21.1-.21.25-.18a5.76,5.76,0,0,0,.91.1,2.25,2.25,0,0,0,1.63-.61,4.93,4.93,0,0,0,1-2.86,2.83,2.83,0,0,1-2,.8,2.61,2.61,0,0,1-2.7-2.84,3,3,0,0,1,2.94-3.27c2.36,0,3.14,1.95,3.14,4.18C284.71,426.32,284.22,428.27,283,429.31Zm-1.48-8c-1.18,0-1.59,1.17-1.59,2.12s.42,1.92,1.54,1.92a2.6,2.6,0,0,0,1.88-.88c0-.09,0-.22,0-.33C283.39,422.46,282.84,421.33,281.55,421.33Z"/><path class="cls-2" d="M309.41,429a.47.47,0,0,1-.33.53,8.92,8.92,0,0,1-3.42.63c-2.77,0-4.54-2-4.54-4.92a4.71,4.71,0,0,1,4.72-5,6,6,0,0,1,2.72.6.28.28,0,0,1,.2.29.47.47,0,0,1,0,.17l-.41,1.08c-.06.15-.14.22-.23.22a.59.59,0,0,1-.24-.07,5.08,5.08,0,0,0-1.87-.41,2.32,2.32,0,0,0-1.72.72,3.42,3.42,0,0,0-.78,2.35c0,2.2,1.07,3.14,2.34,3.14a6.33,6.33,0,0,0,1.41-.14V426h-1.06a.33.33,0,0,1-.35-.36v-1.07c0-.25.14-.35.38-.35H309c.26,0,.38.1.38.38Z"/><path class="cls-2" d="M316.47,429.63c0,.24-.08.33-.3.33h-.61c-.24,0-.33-.09-.33-.33v-7.81l-2,1.23a.45.45,0,0,1-.19.07.19.19,0,0,1-.18-.11l-.28-.45a.71.71,0,0,1-.05-.16c0-.08.05-.16.18-.23l2.54-1.59a.75.75,0,0,1,.51-.12h.44c.19,0,.27.11.27.32Z"/><path class="cls-2" d="M325.44,429.63c0,.24-.09.33-.31.33h-.6c-.25,0-.33-.09-.33-.33v-7.81l-2,1.23a.44.44,0,0,1-.2.07.2.2,0,0,1-.18-.11l-.27-.45a.46.46,0,0,1-.06-.16c0-.08.06-.16.18-.23l2.54-1.59a.78.78,0,0,1,.51-.12h.44c.19,0,.28.11.28.32Z"/><path class="cls-2" d="M333,430.1a5,5,0,0,1-2.34-.48c-.11-.06-.17-.13-.17-.2a.23.23,0,0,1,0-.09l.22-.58a.17.17,0,0,1,.16-.11.28.28,0,0,1,.13,0,4.56,4.56,0,0,0,1.87.41,1.83,1.83,0,0,0,2-1.89c0-1.3-1-1.86-2.26-1.86h-.4c-.18,0-.23-.1-.23-.25v-.47c0-.15,0-.23.22-.23h.4c1.14,0,1.92-.51,1.92-1.65,0-1-.71-1.44-1.67-1.44a3.83,3.83,0,0,0-1.69.46.24.24,0,0,1-.15.06s-.09,0-.14-.14l-.22-.49a.58.58,0,0,1,0-.1c0-.07,0-.11.12-.17a4.45,4.45,0,0,1,2.32-.62,2.52,2.52,0,0,1,2.76,2.36,2.29,2.29,0,0,1-1.56,2.14,2.45,2.45,0,0,1,1.91,2.4A3,3,0,0,1,333,430.1Z"/><path class="cls-2" d="M356.36,430H353.6c-.33,0-.42-.14-.42-.48v-8.69c0-.33.14-.4.46-.4h2.23c2.46,0,3.66.72,3.66,2.34a1.94,1.94,0,0,1-1.49,2h0a2.33,2.33,0,0,1,2.23,2.4C360.27,429.42,358.34,430,356.36,430ZM356,422h-.68v2.16h.52c1,0,1.51-.29,1.51-1.16C357.38,422.38,356.87,422,356,422Zm1.35,3.85a3.11,3.11,0,0,0-1.34-.19h-.69v2.58h.86a3.58,3.58,0,0,0,1.13-.13,1.15,1.15,0,0,0,.71-1.12A1.18,1.18,0,0,0,357.38,425.89Z"/><path class="cls-2" d="M367.06,429.63c0,.24-.08.33-.3.33h-.61c-.25,0-.33-.09-.33-.33v-7.81l-2,1.23a.44.44,0,0,1-.2.07.21.21,0,0,1-.18-.11l-.27-.45a.46.46,0,0,1-.06-.16c0-.08.06-.16.18-.23l2.54-1.59a.78.78,0,0,1,.51-.12h.44c.2,0,.28.11.28.32Z"/><path class="cls-2" d="M374.92,430.1c-2.5,0-3.26-2.69-3.26-4.88s.83-4.93,3.3-4.93,3.24,2.69,3.24,4.89S377.42,430.1,374.92,430.1Zm0-8.73c-1.58,0-1.95,2.21-1.95,3.82s.36,3.82,1.93,3.82,1.93-2.21,1.93-3.82S376.48,421.37,375,421.37Z"/><path class="cls-2" d="M385.24,429.31a3.51,3.51,0,0,1-2.29.79,5,5,0,0,1-1.2-.17c-.17,0-.18-.13-.16-.29l.11-.49c.05-.21.1-.21.25-.18a5.89,5.89,0,0,0,.91.1,2.25,2.25,0,0,0,1.63-.61,4.86,4.86,0,0,0,1-2.86,2.79,2.79,0,0,1-2,.8,2.61,2.61,0,0,1-2.7-2.84,3,3,0,0,1,2.93-3.27c2.36,0,3.15,1.95,3.15,4.18C386.92,426.32,386.42,428.27,385.24,429.31Zm-1.48-8c-1.19,0-1.6,1.17-1.6,2.12s.43,1.92,1.55,1.92a2.6,2.6,0,0,0,1.87-.88c0-.09,0-.22,0-.33C385.59,422.46,385,421.33,383.76,421.33Z"/><rect class="cls-2" x="220.87" y="414.41" width="1.07" height="22.42"/><polygon class="cls-3" points="43.6 543.2 56.28 554.61 65.17 500.67 43.6 543.2"/><path class="cls-3" d="M66.18,500.74l-9.06,54.92a.49.49,0,0,1-.32.39.51.51,0,0,1-.17,0l17.91-.75Z"/><polygon class="cls-3" points="87.92 544.08 67.2 500.82 75.4 554.37 87.92 544.08"/><path class="cls-2" d="M139.08,525.23c0,.16-.1.2-.26.2h-1.47l-.29,1.92h1.44c.16,0,.19.06.19.17v.08l0,.47c0,.19-.11.22-.29.22H136.9l-.39,2.5c0,.17-.11.24-.34.24h-.57c-.16,0-.22,0-.22-.15a.57.57,0,0,1,0-.12l.42-2.47h-1.93l-.42,2.47c0,.19-.08.27-.36.27h-.52c-.19,0-.25,0-.25-.18a.3.3,0,0,1,0-.12l.38-2.44h-1.36c-.17,0-.21-.07-.21-.17s0,0,0-.09l.07-.46c0-.16.09-.22.33-.22h1.35l.3-1.92h-1.44c-.14,0-.19-.07-.19-.16s0-.06,0-.08l.07-.47c0-.16.07-.2.25-.2h1.47l.42-2.78c0-.15.07-.21.2-.21h.69c.18,0,.22,0,.22.15a.76.76,0,0,1,0,.14l-.41,2.7h1.87l.43-2.77c0-.18.08-.22.25-.22h.66c.17,0,.22.06.22.17s0,0,0,.09l-.4,2.73H139c.11,0,.18,0,.18.14v0Zm-2.83.2h-1.9l-.31,1.92H136Z"/><path class="cls-2" d="M146.74,527.49c0,.32-.05.39-.41.39H142.1a2.15,2.15,0,0,0,2.18,2.33,4.88,4.88,0,0,0,1.65-.29c.12,0,.26-.07.3.09l.16.51c0,.13,0,.18-.16.25a5.46,5.46,0,0,1-2.11.4c-2.12,0-3.25-1.39-3.25-3.47a3.19,3.19,0,0,1,3.21-3.48A2.55,2.55,0,0,1,146,525a3.17,3.17,0,0,1,.78,2.27Zm-1.15-.42v-.19a1.56,1.56,0,0,0-1.56-1.75,2,2,0,0,0-1.91,1.94Z"/><path class="cls-2" d="M155.34,530.73c0,.19-.09.3-.33.3H149.8c-.23,0-.3-.08-.3-.3v-.45a.48.48,0,0,1,.17-.42c.73-.77,1.56-1.53,2.26-2.29,1.31-1.41,2.08-2.51,2.08-3.56a1.51,1.51,0,0,0-1.65-1.56,4,4,0,0,0-2,.58.24.24,0,0,1-.13,0c-.09,0-.14-.05-.2-.16l-.2-.44a.37.37,0,0,1,0-.15.27.27,0,0,1,.16-.22,4.91,4.91,0,0,1,2.58-.74,2.54,2.54,0,0,1,2.8,2.53c0,1.43-.87,2.63-2.57,4.4-.55.58-1.13,1.14-1.67,1.68H155c.23,0,.33.07.33.28Z"/><path class="cls-2" d="M164,527.49c0,.32-.05.39-.41.39h-4.24a2.16,2.16,0,0,0,2.18,2.33,4.9,4.9,0,0,0,1.66-.29c.12,0,.26-.07.3.09l.15.51c0,.13,0,.18-.15.25a5.49,5.49,0,0,1-2.11.4c-2.13,0-3.26-1.39-3.26-3.47a3.2,3.2,0,0,1,3.22-3.48,2.53,2.53,0,0,1,1.87.76,3.14,3.14,0,0,1,.79,2.27Zm-1.16-.42v-.19a1.56,1.56,0,0,0-1.56-1.75,2,2,0,0,0-1.9,1.94Z"/><path class="cls-2" d="M170.69,530.7c0,.24-.09.33-.31.33h-.6c-.25,0-.34-.09-.34-.33v-7.8l-2,1.22a.37.37,0,0,1-.19.07.19.19,0,0,1-.18-.11l-.27-.45a.4.4,0,0,1-.06-.16c0-.08.06-.16.18-.23l2.54-1.59a.75.75,0,0,1,.51-.12h.44c.19,0,.28.11.28.32Z"/><path class="cls-2" d="M181.19,527.49c0,.32-.05.39-.41.39h-4.23a2.15,2.15,0,0,0,2.18,2.33,4.88,4.88,0,0,0,1.65-.29c.13,0,.26-.07.3.09l.16.51c0,.13,0,.18-.16.25a5.46,5.46,0,0,1-2.11.4c-2.12,0-3.25-1.39-3.25-3.47a3.19,3.19,0,0,1,3.21-3.48,2.55,2.55,0,0,1,1.88.76,3.17,3.17,0,0,1,.78,2.27Zm-1.15-.42v-.19a1.56,1.56,0,0,0-1.56-1.75,2,2,0,0,0-1.91,1.94Z"/><path class="cls-2" d="M186.81,531.17c-2.5,0-3.26-2.69-3.26-4.88s.83-4.93,3.3-4.93,3.24,2.69,3.24,4.89S189.3,531.17,186.81,531.17Zm0-8.73c-1.58,0-2,2.21-2,3.82s.36,3.82,1.93,3.82,1.93-2.2,1.93-3.82S188.37,522.44,186.84,522.44Z"/><path class="cls-2" d="M255.93,530.73,254,527.79h-.85v2.86a.34.34,0,0,1-.37.38h-1.44c-.27,0-.38-.12-.38-.4v-8.7c0-.37.08-.47.45-.47h2.1a4.47,4.47,0,0,1,3.42,1,3.11,3.11,0,0,1,.74,2,3,3,0,0,1-1.64,2.81v0l2.26,3.23a.42.42,0,0,1,.09.23c0,.13-.11.18-.22.18h-1.62A.66.66,0,0,1,255.93,530.73Zm-2.23-7.61h-.54v3h.69a1.45,1.45,0,0,0,1.63-1.56C255.48,523.5,254.73,523.12,253.7,523.12Z"/><path class="cls-2" d="M266.73,530.73c0,.19-.08.3-.33.3h-5.2c-.24,0-.31-.08-.31-.3v-.45a.48.48,0,0,1,.17-.42c.73-.77,1.56-1.53,2.26-2.29,1.31-1.41,2.09-2.51,2.09-3.56a1.51,1.51,0,0,0-1.66-1.56,4,4,0,0,0-2,.58.3.3,0,0,1-.14,0c-.08,0-.14-.05-.19-.16l-.21-.44a.34.34,0,0,1,0-.15.25.25,0,0,1,.15-.22,4.91,4.91,0,0,1,2.58-.74,2.54,2.54,0,0,1,2.8,2.53c0,1.43-.87,2.63-2.57,4.4-.55.58-1.13,1.14-1.66,1.68h3.9c.23,0,.33.07.33.28Z"/><path class="cls-2" d="M275.69,530.73c0,.19-.08.3-.33.3h-5.2c-.23,0-.3-.08-.3-.3v-.45a.5.5,0,0,1,.16-.42c.74-.77,1.56-1.53,2.27-2.29,1.31-1.41,2.08-2.51,2.08-3.56a1.51,1.51,0,0,0-1.66-1.56,4,4,0,0,0-2,.58.25.25,0,0,1-.14,0c-.08,0-.13-.05-.19-.16l-.21-.44a.56.56,0,0,1,0-.15.27.27,0,0,1,.15-.22,4.94,4.94,0,0,1,2.58-.74,2.54,2.54,0,0,1,2.8,2.53c0,1.43-.87,2.63-2.56,4.4-.55.58-1.13,1.14-1.67,1.68h3.9c.24,0,.33.07.33.28Z"/><path class="cls-2" d="M281.84,531.17c-2.35,0-3.13-1.94-3.13-4.18a6.69,6.69,0,0,1,1.62-4.76,3.37,3.37,0,0,1,2.31-.87,5,5,0,0,1,1.23.17c.18,0,.18.19.15.33l-.09.46c0,.18-.14.2-.29.18a5,5,0,0,0-1-.1,2.09,2.09,0,0,0-1.5.59,4.74,4.74,0,0,0-1.05,2.87,2.86,2.86,0,0,1,2-.8,2.63,2.63,0,0,1,2.72,2.84A3,3,0,0,1,281.84,531.17Zm.07-5.07a2.6,2.6,0,0,0-1.86.88c0,.11,0,.21,0,.32,0,1.69.54,2.84,1.82,2.84s1.61-1.22,1.61-2.13S283.05,526.1,281.91,526.1Z"/><path class="cls-2" d="M309.41,530.05a.47.47,0,0,1-.33.53,8.92,8.92,0,0,1-3.42.63c-2.77,0-4.54-2-4.54-4.92a4.71,4.71,0,0,1,4.72-5,6,6,0,0,1,2.72.6.28.28,0,0,1,.2.29.53.53,0,0,1,0,.18l-.41,1.07c-.06.15-.14.22-.23.22a.47.47,0,0,1-.24-.07,5.08,5.08,0,0,0-1.87-.41,2.32,2.32,0,0,0-1.72.72,3.43,3.43,0,0,0-.78,2.36c0,2.19,1.07,3.13,2.34,3.13a6.33,6.33,0,0,0,1.41-.14v-2.13h-1.06a.33.33,0,0,1-.35-.35v-1.08c0-.25.14-.34.38-.34H309c.26,0,.38.09.38.37Z"/><path class="cls-2" d="M318.35,530.73c0,.19-.08.3-.33.3h-5.2c-.24,0-.31-.08-.31-.3v-.45a.48.48,0,0,1,.17-.42c.73-.77,1.56-1.53,2.26-2.29,1.31-1.41,2.09-2.51,2.09-3.56a1.51,1.51,0,0,0-1.66-1.56,4,4,0,0,0-2,.58.3.3,0,0,1-.14,0c-.08,0-.14-.05-.19-.16l-.21-.44a.34.34,0,0,1,0-.15.25.25,0,0,1,.15-.22,4.94,4.94,0,0,1,2.58-.74,2.54,2.54,0,0,1,2.8,2.53c0,1.43-.87,2.63-2.57,4.4-.55.58-1.13,1.14-1.66,1.68H318c.23,0,.33.07.33.28Z"/><path class="cls-2" d="M327.31,530.73c0,.19-.08.3-.33.3h-5.2c-.23,0-.3-.08-.3-.3v-.45a.5.5,0,0,1,.16-.42c.74-.77,1.56-1.53,2.27-2.29,1.31-1.41,2.08-2.51,2.08-3.56a1.51,1.51,0,0,0-1.66-1.56,4,4,0,0,0-2,.58.27.27,0,0,1-.14,0c-.08,0-.13-.05-.19-.16l-.21-.44a.56.56,0,0,1,0-.15.27.27,0,0,1,.15-.22,4.94,4.94,0,0,1,2.58-.74,2.53,2.53,0,0,1,2.8,2.53c0,1.43-.87,2.63-2.56,4.4-.55.58-1.13,1.14-1.67,1.68H327c.24,0,.33.07.33.28Z"/><path class="cls-2" d="M332.94,531.17a5,5,0,0,1-2.22-.56c-.15-.09-.21-.14-.21-.22a.53.53,0,0,1,0-.16l.22-.51c.05-.11.1-.15.17-.15a.63.63,0,0,1,.21.07,3.93,3.93,0,0,0,1.87.47,1.85,1.85,0,0,0,2-1.92,2,2,0,0,0-.59-1.5,3.19,3.19,0,0,0-2.13-.59h-.86a.37.37,0,0,1-.42-.42v-3.83c0-.24.1-.32.31-.32h4.2c.21,0,.32.07.32.29v.48c0,.21-.05.28-.29.28h-3.3v2.56h.42c1.94,0,3.65.86,3.65,3C336.33,530.07,334.86,531.17,332.94,531.17Z"/><path class="cls-2" d="M356.36,531H353.6c-.33,0-.42-.13-.42-.48v-8.69c0-.33.14-.4.46-.4h2.23c2.46,0,3.66.72,3.66,2.35a1.93,1.93,0,0,1-1.49,2v0a2.32,2.32,0,0,1,2.23,2.4C360.27,530.5,358.34,531,356.36,531Zm-.33-7.91h-.68v2.15h.52c1,0,1.51-.29,1.51-1.16C357.38,523.45,356.87,523.12,356,523.12Zm1.35,3.84a3.27,3.27,0,0,0-1.34-.19l-.69,0v2.57h.86a3.58,3.58,0,0,0,1.13-.13,1.15,1.15,0,0,0,.71-1.12A1.18,1.18,0,0,0,357.38,527Z"/><path class="cls-2" d="M368.93,530.73c0,.19-.08.3-.33.3h-5.2c-.23,0-.3-.08-.3-.3v-.45a.48.48,0,0,1,.17-.42c.73-.77,1.55-1.53,2.26-2.29,1.31-1.41,2.08-2.51,2.08-3.56a1.51,1.51,0,0,0-1.65-1.56,4,4,0,0,0-2,.58.25.25,0,0,1-.14,0c-.08,0-.13-.05-.19-.16l-.21-.44a.56.56,0,0,1,0-.15.27.27,0,0,1,.16-.22,4.87,4.87,0,0,1,2.57-.74,2.53,2.53,0,0,1,2.8,2.53c0,1.43-.86,2.63-2.56,4.4-.55.58-1.13,1.14-1.67,1.68h3.9c.24,0,.33.07.33.28Z"/><path class="cls-2" d="M377.9,530.73c0,.19-.08.3-.33.3h-5.2c-.24,0-.31-.08-.31-.3v-.45a.48.48,0,0,1,.17-.42c.73-.77,1.56-1.53,2.26-2.29,1.31-1.41,2.08-2.51,2.08-3.56a1.51,1.51,0,0,0-1.65-1.56,4,4,0,0,0-2,.58.3.3,0,0,1-.14,0c-.08,0-.14-.05-.19-.16l-.21-.44a.34.34,0,0,1,0-.15.25.25,0,0,1,.15-.22,4.91,4.91,0,0,1,2.58-.74,2.54,2.54,0,0,1,2.8,2.53c0,1.43-.87,2.63-2.57,4.4-.55.58-1.13,1.14-1.67,1.68h3.91c.23,0,.33.07.33.28Z"/><path class="cls-2" d="M384.63,521.53c.11,0,.15,0,.15.12a.49.49,0,0,1,0,.22l-2.64,5.89h3.39v-2.2c0-.22.11-.26.29-.26h.68c.19,0,.28.05.28.26v5.21c0,.19-.09.26-.25.26h-.72c-.18,0-.28-.07-.28-.27v-1.93H381c-.24,0-.3-.13-.3-.33v-.34a1.21,1.21,0,0,1,.15-.57l2.64-5.78c.07-.16.15-.28.34-.28Z"/><rect class="cls-2" x="220.87" y="515.48" width="1.07" height="22.42"/><path class="cls-1" d="M136.74,43.84a5.26,5.26,0,0,1-2.12.44c-2.24,0-3.33-1.59-3.33-3.77s1.31-3.85,3.44-3.85a4.45,4.45,0,0,1,2,.45c.12.06.17.11.17.18a.44.44,0,0,1,0,.14l-.25.67c0,.09-.08.13-.15.13a.3.3,0,0,1-.11,0,3.27,3.27,0,0,0-1.54-.38c-1.48,0-2,1.36-2,2.64,0,1.64.76,2.68,2.07,2.68a3.81,3.81,0,0,0,1.53-.34l.12,0c.08,0,.13,0,.17.16l.22.57a.44.44,0,0,1,0,.15C136.91,43.72,136.87,43.79,136.74,43.84Z"/><path class="cls-1" d="M151.33,44.28c-2,0-3.19-1.48-3.19-3.78s1.27-3.84,3.27-3.84,3.19,1.6,3.19,3.77C154.6,42.83,153.23,44.28,151.33,44.28Zm0-6.46c-1.07,0-1.78,1-1.78,2.64s.65,2.66,1.78,2.66,1.76-.92,1.76-2.66S152.51,37.82,151.38,37.82Z"/><path class="cls-1" d="M170.63,43.89c0,.2-.09.26-.25.26H166.6c-.19,0-.28-.06-.28-.3V37.07a.24.24,0,0,1,.26-.27h.84c.2,0,.27.07.27.28V43h2.69a.22.22,0,0,1,.25.25Z"/><path class="cls-1" d="M184.51,44.28c-2,0-3.2-1.48-3.2-3.78s1.27-3.84,3.27-3.84,3.2,1.6,3.2,3.77C187.78,42.83,186.41,44.28,184.51,44.28Zm0-6.46c-1.06,0-1.78,1-1.78,2.64s.65,2.66,1.78,2.66,1.76-.92,1.76-2.66S185.68,37.82,184.55,37.82Z"/><path class="cls-1" d="M204.59,44.15h-1a.41.41,0,0,1-.41-.21l-1.53-2.5h-.82v2.44c0,.16-.06.27-.24.27h-.87c-.18,0-.26-.09-.26-.27V37.11c0-.24.06-.31.29-.31h1.57a3.18,3.18,0,0,1,2.46.79,2.35,2.35,0,0,1-.86,3.6l1.75,2.68a.37.37,0,0,1,.05.15C204.75,44.11,204.69,44.15,204.59,44.15Zm-3.2-6.31h-.53v2.57h.66a1.26,1.26,0,0,0,1.41-1.32C202.93,38.17,202.32,37.84,201.39,37.84Z"/><path class="cls-1" d="M231.37,41.57l-.64,0v2.35c0,.16-.06.26-.26.26h-.85c-.17,0-.26-.08-.26-.29V37.09c0-.22.07-.29.27-.29h1.54a3.08,3.08,0,0,1,2.47.81,2.29,2.29,0,0,1,.53,1.51C234.17,40.76,232.93,41.57,231.37,41.57Zm-.08-3.71h-.56V40.5h.63c.9,0,1.43-.43,1.43-1.34S232.2,37.86,231.29,37.86Z"/><path class="cls-1" d="M245.39,44.15h-.94c-.11,0-.15,0-.15-.14a.3.3,0,0,1,0-.12L246.91,37a.3.3,0,0,1,.29-.21h.85a.27.27,0,0,1,.29.19L251,43.84a.36.36,0,0,1,0,.14c0,.11-.05.17-.19.17h-.95a.33.33,0,0,1-.36-.26l-.55-1.56h-2.69l-.55,1.6A.28.28,0,0,1,245.39,44.15Zm3.17-2.85-.76-2.24-.21-.69h0c0,.18-.12.41-.22.7l-.76,2.23Z"/><path class="cls-1" d="M266.65,43.89c0,.2-.1.26-.26.26h-3.78c-.19,0-.27-.06-.27-.3V37.07c0-.17.08-.27.25-.27h.85c.19,0,.27.07.27.28V43h2.68c.18,0,.26.09.26.25Z"/><path class="cls-1" d="M282.56,43.89a.23.23,0,0,1-.26.26h-3.94c-.21,0-.28,0-.28-.29V37.07c0-.17.07-.27.24-.27h4c.21,0,.24.1.22.24l-.08.64c0,.19-.13.22-.36.22h-2.66v1.93h2.45c.2,0,.27.08.27.23v.61c0,.18-.08.25-.26.25h-2.46V43h2.84c.18,0,.27.08.27.25Z"/><path class="cls-1" d="M299.52,37.68c0,.18-.14.22-.33.22h-1.92v6c0,.2,0,.24-.22.24h-.94c-.19,0-.22,0-.22-.23v-6h-2c-.18,0-.24-.07-.24-.25V37c0-.16.07-.22.23-.22h5.38c.27,0,.35.09.33.27Z"/><path class="cls-1" d="M316.13,37.68c0,.18-.13.22-.32.22h-1.93v6c0,.2,0,.24-.22.24h-.93c-.19,0-.23,0-.23-.23v-6h-2c-.18,0-.25-.07-.25-.25V37c0-.16.08-.22.24-.22h5.37c.28,0,.35.09.33.27Z"/><path class="cls-1" d="M332,43.89c0,.17-.07.26-.25.26h-3.94c-.21,0-.29,0-.29-.29V37.07c0-.17.08-.27.25-.27h4c.21,0,.24.1.22.24l-.07.64c0,.19-.14.22-.36.22h-2.67v1.93h2.46c.2,0,.26.08.26.23v.61c0,.18-.07.25-.25.25h-2.47V43h2.85c.18,0,.26.08.26.25Z"/><path class="cls-2" d="M139.15,118.69c0,.17-.09.21-.26.21h-1.46l-.29,1.92h1.44c.16,0,.19.05.19.16v.08l0,.47c0,.2-.11.22-.29.22H137l-.38,2.5c0,.18-.11.25-.35.25h-.56c-.17,0-.22,0-.22-.15a.72.72,0,0,1,0-.13l.41-2.47H134l-.41,2.47c0,.2-.08.28-.36.28h-.52c-.2,0-.25-.06-.25-.18a.53.53,0,0,1,0-.12l.39-2.45h-1.37c-.16,0-.2-.06-.2-.16s0-.06,0-.1l.07-.45c0-.17.08-.22.33-.22H133l.29-1.92h-1.43c-.14,0-.2-.07-.2-.17s0,0,0-.08l.07-.47c0-.15.07-.19.25-.19h1.47l.41-2.79c0-.15.07-.2.21-.2h.69c.18,0,.22,0,.22.15a.62.62,0,0,1,0,.13l-.42,2.71h1.88l.43-2.77c0-.18.08-.22.25-.22h.66c.16,0,.22,0,.22.16s0,.06,0,.1l-.4,2.73H139c.11,0,.18,0,.18.14v0Zm-2.82.21h-1.91l-.3,1.92H136Z"/><path class="cls-2" d="M147.28,115.73a1.28,1.28,0,0,1-.13.49l-3.71,8a.42.42,0,0,1-.43.28h-.77a.2.2,0,0,1-.22-.21.48.48,0,0,1,0-.15l3.81-8.07h-4.4c-.22,0-.29-.08-.29-.28v-.52c0-.18.06-.27.28-.27H147c.22,0,.29.06.29.27Z"/><path class="cls-2" d="M156.12,124.2c0,.19-.09.3-.33.3h-5.2c-.24,0-.31-.08-.31-.3v-.46a.46.46,0,0,1,.17-.41c.73-.78,1.56-1.53,2.26-2.29,1.31-1.41,2.08-2.51,2.08-3.56a1.51,1.51,0,0,0-1.65-1.56,4,4,0,0,0-2,.58.24.24,0,0,1-.13,0c-.09,0-.14-.06-.2-.17l-.2-.44a.31.31,0,0,1,0-.15.28.28,0,0,1,.15-.22,4.9,4.9,0,0,1,2.58-.73,2.53,2.53,0,0,1,2.8,2.52c0,1.44-.87,2.64-2.57,4.4-.55.58-1.13,1.15-1.67,1.69h3.91c.23,0,.33.07.33.27Z"/><path class="cls-2" d="M164.75,121c0,.32-.05.39-.41.39H160.1a2.16,2.16,0,0,0,2.18,2.33,4.9,4.9,0,0,0,1.66-.29c.12,0,.26-.07.3.1l.15.51c0,.12,0,.18-.15.25a5.69,5.69,0,0,1-2.11.4c-2.12,0-3.26-1.4-3.26-3.48a3.2,3.2,0,0,1,3.22-3.48,2.53,2.53,0,0,1,1.87.76,3.16,3.16,0,0,1,.79,2.28Zm-1.16-.41v-.19A1.56,1.56,0,0,0,162,118.6a2,2,0,0,0-1.9,1.94Z"/><path class="cls-2" d="M173.11,124.21c0,.18-.09.29-.21.29h-.59c-.21,0-.29-.08-.29-.26l0-.5a2.77,2.77,0,0,1-2,.9c-2,0-2.85-1.63-2.85-3.44,0-2,1.19-3.53,3-3.53a2.49,2.49,0,0,1,1.8.77v-3.36c0-.18,0-.26.22-.29l.74-.1c.14,0,.21.07.21.24Zm-1.17-4.64a2,2,0,0,0-1.63-1c-1.24,0-2,1-2,2.54s.65,2.55,1.85,2.55a2.32,2.32,0,0,0,1.74-.91Z"/><path class="cls-2" d="M179.26,124.64a2.59,2.59,0,0,1-1.85-.86l0,.5c0,.16-.08.22-.27.22h-.53c-.18,0-.26-.07-.26-.26v-9.16c0-.18,0-.26.21-.29l.74-.1c.14,0,.22.07.22.24v3.54a3,3,0,0,1,2-.79,2.54,2.54,0,0,1,1.75.63,3.72,3.72,0,0,1,1.05,2.84C182.28,123,181.31,124.64,179.26,124.64Zm0-6a2.59,2.59,0,0,0-1.75.83v3.29a2.06,2.06,0,0,0,1.64.92c1.38,0,1.92-1.16,1.92-2.49S180.54,118.65,179.24,118.65Z"/><path class="cls-2" d="M188,124.64c-1.74,0-3.13-.93-3.13-2.71a2.27,2.27,0,0,1,.41-1.25,3.47,3.47,0,0,1,1.64-1.24,2.38,2.38,0,0,1,1.14-4.61,2.41,2.41,0,0,1,2.69,2.33,2.71,2.71,0,0,1-1.66,2.18c1.39.58,2.08,1.43,2.08,2.46A2.93,2.93,0,0,1,188,124.64Zm1.38-3.88a4.34,4.34,0,0,0-1.46-.88c-.93.38-1.74,1-1.74,2a1.8,1.8,0,0,0,1.86,1.81,1.72,1.72,0,0,0,1.82-1.78A1.5,1.5,0,0,0,189.34,120.76Zm-1.38-5a1.36,1.36,0,0,0-1.42,1.37c0,.88.69,1.38,1.48,1.76a2.15,2.15,0,0,0,1.37-1.74A1.31,1.31,0,0,0,188,115.78Z"/><path class="cls-2" d="M256,124.2l-1.92-2.94h-.85v2.85a.35.35,0,0,1-.38.39h-1.43c-.28,0-.39-.12-.39-.4v-8.7c0-.38.09-.47.46-.47h2.09a4.48,4.48,0,0,1,3.43,1,3.12,3.12,0,0,1,.74,2.06,3,3,0,0,1-1.64,2.81v0l2.26,3.23a.38.38,0,0,1,.08.23.2.2,0,0,1-.22.18h-1.61A.65.65,0,0,1,256,124.2Zm-2.24-7.62h-.53v3h.69a1.45,1.45,0,0,0,1.62-1.56C255.55,117,254.81,116.58,253.77,116.58Z"/><path class="cls-2" d="M264.93,124.17c0,.23-.08.33-.3.33H264c-.25,0-.33-.1-.33-.33v-7.81l-2,1.23a.45.45,0,0,1-.19.07.19.19,0,0,1-.18-.11l-.28-.46a.33.33,0,0,1-.05-.15.26.26,0,0,1,.18-.23l2.53-1.59a.78.78,0,0,1,.51-.12h.45c.19,0,.27.11.27.31Z"/><path class="cls-2" d="M273.89,124.17c0,.23-.08.33-.3.33H273c-.24,0-.33-.1-.33-.33v-7.81l-2,1.23a.4.4,0,0,1-.19.07.19.19,0,0,1-.18-.11l-.27-.46a.36.36,0,0,1-.06-.15.28.28,0,0,1,.18-.23l2.54-1.59a.75.75,0,0,1,.51-.12h.44c.19,0,.27.11.27.31Z"/><path class="cls-2" d="M282.5,115c.11,0,.15,0,.15.12a.52.52,0,0,1,0,.22L280,121.23h3.4V119c0-.22.11-.26.29-.26h.67c.19,0,.28.06.28.26v5.22c0,.19-.09.26-.25.26h-.72c-.18,0-.27-.07-.27-.28v-1.93h-4.47c-.25,0-.31-.12-.31-.33v-.33a1.18,1.18,0,0,1,.16-.58l2.63-5.78c.07-.15.15-.27.35-.27Z"/><path class="cls-2" d="M309.49,123.52a.45.45,0,0,1-.33.52,8.91,8.91,0,0,1-3.42.64c-2.77,0-4.54-2-4.54-4.93a4.69,4.69,0,0,1,4.72-5,6,6,0,0,1,2.71.59.31.31,0,0,1,.21.29.8.8,0,0,1,0,.18l-.41,1.08c-.06.15-.14.22-.24.22a.55.55,0,0,1-.23-.07,5.09,5.09,0,0,0-1.88-.41,2.33,2.33,0,0,0-1.71.71,3.42,3.42,0,0,0-.78,2.36c0,2.19,1.07,3.13,2.34,3.13a5.78,5.78,0,0,0,1.41-.14v-2.12h-1.07a.33.33,0,0,1-.34-.36v-1.07c0-.25.14-.35.37-.35h2.84c.27,0,.39.1.39.37Z"/><path class="cls-2" d="M318.43,124.2c0,.19-.09.3-.33.3h-5.2c-.24,0-.31-.08-.31-.3v-.46a.46.46,0,0,1,.17-.41c.73-.78,1.56-1.53,2.26-2.29,1.31-1.41,2.08-2.51,2.08-3.56a1.51,1.51,0,0,0-1.65-1.56,4.07,4.07,0,0,0-2,.58.24.24,0,0,1-.13,0c-.09,0-.14-.06-.2-.17l-.2-.44a.31.31,0,0,1,0-.15.28.28,0,0,1,.15-.22,4.9,4.9,0,0,1,2.58-.73,2.53,2.53,0,0,1,2.8,2.52c0,1.44-.87,2.64-2.57,4.4-.55.58-1.13,1.15-1.67,1.69h3.91c.23,0,.33.07.33.27Z"/><path class="cls-2" d="M324.09,124.64a5,5,0,0,1-2.34-.49c-.11-.05-.17-.12-.17-.19s0,0,0-.1l.22-.57a.17.17,0,0,1,.17-.12.53.53,0,0,1,.12,0,4.61,4.61,0,0,0,1.88.42,1.84,1.84,0,0,0,2-1.89c0-1.3-1.05-1.87-2.26-1.87h-.4c-.18,0-.24-.09-.24-.24v-.47c0-.15,0-.24.22-.24h.4c1.15,0,1.92-.51,1.92-1.64,0-1-.7-1.45-1.67-1.45a3.68,3.68,0,0,0-1.68.47.33.33,0,0,1-.15.06c-.06,0-.1,0-.14-.14l-.22-.5a.23.23,0,0,1,0-.09c0-.07,0-.11.12-.17a4.48,4.48,0,0,1,2.32-.62,2.51,2.51,0,0,1,2.76,2.36,2.29,2.29,0,0,1-1.56,2.14,2.46,2.46,0,0,1,1.92,2.4A3,3,0,0,1,324.09,124.64Z"/><path class="cls-2" d="M336.48,115.73a1.28,1.28,0,0,1-.13.49l-3.71,8a.42.42,0,0,1-.42.28h-.78a.2.2,0,0,1-.22-.21.48.48,0,0,1,0-.15l3.81-8.07h-4.4c-.22,0-.29-.08-.29-.28v-.52c0-.18.06-.27.28-.27h5.53c.22,0,.29.06.29.27Z"/><path class="cls-2" d="M356.43,124.5h-2.75c-.34,0-.42-.14-.42-.48v-8.69c0-.33.14-.4.46-.4H356c2.46,0,3.66.71,3.66,2.34a1.94,1.94,0,0,1-1.49,2h0a2.34,2.34,0,0,1,2.23,2.4C360.35,124,358.42,124.5,356.43,124.5Zm-.33-7.92h-.67v2.15H356c1,0,1.51-.29,1.51-1.16C357.46,116.91,356.94,116.58,356.1,116.58Zm1.36,3.85a3.16,3.16,0,0,0-1.34-.19h-.69v2.58h.85a3.49,3.49,0,0,0,1.13-.14,1.13,1.13,0,0,0,.72-1.12A1.19,1.19,0,0,0,357.46,120.43Z"/><path class="cls-2" d="M367.14,124.17c0,.23-.09.33-.31.33h-.6c-.25,0-.34-.1-.34-.33v-7.81l-2,1.23a.37.37,0,0,1-.19.07.19.19,0,0,1-.18-.11l-.27-.46a.36.36,0,0,1-.06-.15.28.28,0,0,1,.18-.23l2.54-1.59a.75.75,0,0,1,.51-.12h.44c.19,0,.28.11.28.31Z"/><path class="cls-2" d="M375,124.64c-1.74,0-3.13-.93-3.13-2.71a2.21,2.21,0,0,1,.42-1.25,3.43,3.43,0,0,1,1.64-1.24,2.38,2.38,0,0,1,1.13-4.61,2.41,2.41,0,0,1,2.69,2.33,2.71,2.71,0,0,1-1.66,2.18c1.4.58,2.09,1.43,2.09,2.46A2.94,2.94,0,0,1,375,124.64Zm1.38-3.88a4.34,4.34,0,0,0-1.46-.88c-.92.38-1.74,1-1.74,2a1.81,1.81,0,0,0,1.86,1.81,1.72,1.72,0,0,0,1.82-1.78A1.5,1.5,0,0,0,376.36,120.76Zm-1.38-5a1.36,1.36,0,0,0-1.42,1.37c0,.88.69,1.38,1.48,1.76a2.16,2.16,0,0,0,1.38-1.74A1.32,1.32,0,0,0,375,115.78Z"/><path class="cls-2" d="M384.71,115c.11,0,.15,0,.15.12a.56.56,0,0,1-.06.22l-2.63,5.89h3.39V119c0-.22.11-.26.29-.26h.68c.19,0,.27.06.27.26v5.22c0,.19-.08.26-.25.26h-.71c-.18,0-.28-.07-.28-.28v-1.93h-4.47c-.25,0-.3-.12-.3-.33v-.33a1.27,1.27,0,0,1,.15-.58l2.64-5.78a.35.35,0,0,1,.34-.27Z"/><rect class="cls-2" x="220.94" y="108.94" width="1.07" height="22.42"/><polygon class="cls-4" points="43.6 134.44 56.28 145.85 65.17 91.92 43.6 134.44"/><path class="cls-4" d="M66.18,92l-9.06,54.92a.49.49,0,0,1-.32.39l-.17,0,17.91-.75Z"/><polygon class="cls-4" points="87.92 135.32 67.2 92.06 75.4 145.61 87.92 135.32"/><path class="cls-2" d="M139.15,219.78c0,.16-.09.2-.26.2h-1.46l-.29,1.92h1.44c.16,0,.19.06.19.17v.08l0,.47c0,.19-.11.22-.29.22H137l-.38,2.5c0,.18-.11.24-.35.24h-.56c-.17,0-.22,0-.22-.15a.62.62,0,0,1,0-.12l.41-2.47H134l-.41,2.47c0,.19-.08.27-.36.27h-.52c-.2,0-.25-.05-.25-.17a.62.62,0,0,1,0-.13l.39-2.44h-1.37c-.16,0-.2-.07-.2-.17s0,0,0-.09l.07-.46c0-.16.08-.22.33-.22H133l.29-1.92h-1.43c-.14,0-.2-.07-.2-.16s0-.06,0-.08l.07-.47c0-.15.07-.2.25-.2h1.47l.41-2.78c0-.15.07-.21.21-.21h.69c.18,0,.22,0,.22.15a.76.76,0,0,1,0,.14l-.42,2.7h1.88l.43-2.77c0-.18.08-.22.25-.22h.66c.16,0,.22.06.22.17s0,.05,0,.09l-.4,2.73H139c.11,0,.18.05.18.14v0Zm-2.82.2h-1.91l-.3,1.92H136Z"/><path class="cls-2" d="M145.53,224.94a3.56,3.56,0,0,1-2.29.78,5.53,5.53,0,0,1-1.2-.16c-.17,0-.18-.14-.16-.29l.11-.5c0-.21.1-.21.25-.18a4.87,4.87,0,0,0,.91.1,2.25,2.25,0,0,0,1.63-.61,4.85,4.85,0,0,0,1-2.85,2.83,2.83,0,0,1-2,.8,2.62,2.62,0,0,1-2.7-2.85,3,3,0,0,1,2.93-3.27c2.36,0,3.15,2,3.15,4.18A6.62,6.62,0,0,1,145.53,224.94Zm-1.48-8c-1.19,0-1.6,1.17-1.6,2.12S142.88,221,144,221a2.57,2.57,0,0,0,1.88-.88c0-.08,0-.22,0-.33C145.88,218.08,145.33,217,144.05,217Z"/><path class="cls-2" d="M154.24,225.25c0,.24-.08.33-.3.33h-.61c-.25,0-.33-.09-.33-.33v-7.8l-2,1.22a.45.45,0,0,1-.19.07.19.19,0,0,1-.18-.11l-.28-.45a.37.37,0,0,1,0-.15.28.28,0,0,1,.17-.24L153,216.2a.78.78,0,0,1,.51-.12H154c.19,0,.27.11.27.32Z"/><path class="cls-2" d="M164.85,225.29c0,.18-.09.29-.21.29h-.59c-.21,0-.29-.08-.29-.26l0-.49a2.76,2.76,0,0,1-2,.89c-2,0-2.85-1.63-2.85-3.43,0-2,1.19-3.53,3-3.53a2.46,2.46,0,0,1,1.79.77v-3.37c0-.18.05-.26.22-.29l.75-.09c.14,0,.21.07.21.23Zm-1.18-4.63a2,2,0,0,0-1.62-1c-1.25,0-2,1-2,2.54s.65,2.55,1.85,2.55a2.28,2.28,0,0,0,1.73-.91Z"/><path class="cls-2" d="M170.91,225.72c-2.49,0-3.25-2.69-3.25-4.88s.83-4.93,3.3-4.93,3.24,2.69,3.24,4.89S173.41,225.72,170.91,225.72Zm0-8.73c-1.57,0-1.94,2.21-1.94,3.82s.36,3.82,1.93,3.82,1.93-2.2,1.93-3.82S172.47,217,170.94,217Z"/><path class="cls-2" d="M180,225.72a2.6,2.6,0,0,1-1.85-.85l0,.49c0,.17-.09.22-.28.22h-.52c-.18,0-.27-.06-.27-.26v-9.16c0-.18,0-.26.21-.29l.74-.09a.21.21,0,0,1,.23.23v3.55a2.86,2.86,0,0,1,2-.79,2.52,2.52,0,0,1,1.75.62,3.75,3.75,0,0,1,1,2.84C183,224.12,182,225.72,180,225.72Zm0-6a2.58,2.58,0,0,0-1.75.82v3.3a2.07,2.07,0,0,0,1.64.91c1.38,0,1.91-1.16,1.91-2.48S181.24,219.74,180,219.74Z"/><path class="cls-2" d="M188.66,225.72c-1.74,0-3.13-.92-3.13-2.7a2.24,2.24,0,0,1,.42-1.26,3.49,3.49,0,0,1,1.64-1.24,2.38,2.38,0,0,1,1.13-4.61,2.42,2.42,0,0,1,2.69,2.34,2.71,2.71,0,0,1-1.66,2.18c1.4.57,2.09,1.43,2.09,2.45A2.93,2.93,0,0,1,188.66,225.72Zm1.38-3.87a4.52,4.52,0,0,0-1.46-.89c-.92.39-1.74,1-1.74,2a1.8,1.8,0,0,0,1.87,1.81,1.73,1.73,0,0,0,1.82-1.78A1.49,1.49,0,0,0,190,221.85Zm-1.38-5a1.36,1.36,0,0,0-1.42,1.36c0,.89.69,1.38,1.48,1.77a2.16,2.16,0,0,0,1.38-1.74A1.32,1.32,0,0,0,188.66,216.87Z"/><path class="cls-2" d="M256,225.28l-1.92-2.94h-.85v2.86a.34.34,0,0,1-.38.38h-1.43c-.28,0-.39-.12-.39-.4v-8.7c0-.37.09-.47.46-.47h2.09a4.49,4.49,0,0,1,3.43,1,3.11,3.11,0,0,1,.74,2,3,3,0,0,1-1.64,2.82v0l2.26,3.23a.4.4,0,0,1,.08.24c0,.12-.11.17-.22.17h-1.61A.63.63,0,0,1,256,225.28Zm-2.24-7.61h-.53v3h.69a1.45,1.45,0,0,0,1.62-1.56C255.55,218.05,254.81,217.67,253.77,217.67Z"/><path class="cls-2" d="M264.93,225.25c0,.24-.08.33-.3.33H264c-.25,0-.33-.09-.33-.33v-7.8l-2,1.22a.45.45,0,0,1-.19.07.19.19,0,0,1-.18-.11l-.28-.45A.37.37,0,0,1,261,218c0-.09.05-.17.18-.24l2.53-1.59a.78.78,0,0,1,.51-.12h.45c.19,0,.27.11.27.32Z"/><path class="cls-2" d="M273.54,216.08c.11,0,.15,0,.15.12a.6.6,0,0,1-.06.23L271,222.32h3.39v-2.21c0-.22.11-.26.29-.26h.68c.19,0,.27.05.27.26v5.21c0,.2-.08.26-.25.26h-.71c-.18,0-.28-.06-.28-.27v-1.93h-4.47c-.25,0-.3-.13-.3-.33v-.33a1.21,1.21,0,0,1,.15-.58l2.64-5.78c.06-.16.15-.28.34-.28Z"/><path class="cls-2" d="M281.4,225.72a4.87,4.87,0,0,1-2.22-.56c-.15-.09-.21-.14-.21-.22a.34.34,0,0,1,0-.16l.22-.51c0-.11.1-.15.17-.15a.53.53,0,0,1,.2.07,4,4,0,0,0,1.88.47,1.85,1.85,0,0,0,2-1.92,2,2,0,0,0-.59-1.5,3.19,3.19,0,0,0-2.13-.59h-.87a.37.37,0,0,1-.41-.42V216.4c0-.24.1-.32.3-.32H284c.21,0,.32.07.32.29v.48c0,.21-.06.28-.29.28h-3.3v2.56h.42c1.94,0,3.65.86,3.65,3C284.79,224.62,283.31,225.72,281.4,225.72Z"/><path class="cls-2" d="M309.49,224.6a.47.47,0,0,1-.33.53,8.92,8.92,0,0,1-3.42.63c-2.77,0-4.54-1.95-4.54-4.92a4.7,4.7,0,0,1,4.72-5,6,6,0,0,1,2.71.6.29.29,0,0,1,.21.29,1,1,0,0,1,0,.18l-.41,1.07c-.06.15-.14.22-.24.22a.43.43,0,0,1-.23-.07,5.09,5.09,0,0,0-1.88-.41,2.3,2.3,0,0,0-1.71.72,3.39,3.39,0,0,0-.78,2.36c0,2.19,1.07,3.13,2.34,3.13a6.33,6.33,0,0,0,1.41-.14v-2.12h-1.07a.33.33,0,0,1-.34-.36v-1.08c0-.25.14-.34.37-.34h2.84c.27,0,.39.09.39.37Z"/><path class="cls-2" d="M318.43,225.28c0,.19-.09.3-.33.3h-5.2c-.24,0-.31-.08-.31-.3v-.45a.48.48,0,0,1,.17-.42c.73-.77,1.56-1.53,2.26-2.29,1.31-1.4,2.08-2.51,2.08-3.56a1.51,1.51,0,0,0-1.65-1.56,4.18,4.18,0,0,0-2,.58.27.27,0,0,1-.13,0c-.09,0-.14-.06-.2-.17l-.2-.44a.34.34,0,0,1,0-.15.25.25,0,0,1,.15-.22,4.91,4.91,0,0,1,2.58-.74,2.54,2.54,0,0,1,2.8,2.53c0,1.43-.87,2.63-2.57,4.4-.55.58-1.13,1.14-1.67,1.68h3.91c.23,0,.33.07.33.28Z"/><path class="cls-2" d="M324.41,225.72c-2.49,0-3.25-2.69-3.25-4.88s.82-4.93,3.29-4.93,3.24,2.69,3.24,4.89S326.91,225.72,324.41,225.72Zm0-8.73c-1.57,0-1.95,2.21-1.95,3.82s.36,3.82,1.93,3.82,1.94-2.2,1.94-3.82S326,217,324.44,217Z"/><path class="cls-2" d="M333.36,225.72c-1.74,0-3.13-.92-3.13-2.7a2.3,2.3,0,0,1,.41-1.26,3.57,3.57,0,0,1,1.65-1.24,2.38,2.38,0,0,1,1.13-4.61,2.42,2.42,0,0,1,2.69,2.34,2.71,2.71,0,0,1-1.66,2.18c1.39.57,2.08,1.43,2.08,2.45A2.92,2.92,0,0,1,333.36,225.72Zm1.38-3.87a4.52,4.52,0,0,0-1.46-.89c-.93.39-1.74,1-1.74,2a1.8,1.8,0,0,0,1.86,1.81,1.72,1.72,0,0,0,1.82-1.78A1.48,1.48,0,0,0,334.74,221.85Zm-1.38-5a1.36,1.36,0,0,0-1.42,1.36c0,.89.69,1.38,1.48,1.77a2.18,2.18,0,0,0,1.38-1.74A1.32,1.32,0,0,0,333.36,216.87Z"/><path class="cls-2" d="M356.43,225.58h-2.75c-.34,0-.42-.13-.42-.48v-8.69c0-.33.14-.4.46-.4H356c2.46,0,3.66.72,3.66,2.35a1.93,1.93,0,0,1-1.49,2v0a2.33,2.33,0,0,1,2.23,2.4C360.35,225.05,358.42,225.58,356.43,225.58Zm-.33-7.91h-.67v2.15H356c1,0,1.51-.29,1.51-1.16C357.46,218,356.94,217.67,356.1,217.67Zm1.36,3.85a3.15,3.15,0,0,0-1.34-.2l-.69,0v2.58h.85a3.49,3.49,0,0,0,1.13-.14,1.15,1.15,0,0,0,.72-1.12A1.17,1.17,0,0,0,357.46,221.52Z"/><path class="cls-2" d="M367.14,225.25c0,.24-.09.33-.31.33h-.6c-.25,0-.34-.09-.34-.33v-7.8l-2,1.22a.37.37,0,0,1-.19.07.19.19,0,0,1-.18-.11l-.27-.45a.42.42,0,0,1-.06-.15q0-.14.18-.24l2.54-1.59a.75.75,0,0,1,.51-.12h.44c.19,0,.28.11.28.32Z"/><path class="cls-2" d="M375,225.72c-1.74,0-3.13-.92-3.13-2.7a2.24,2.24,0,0,1,.42-1.26,3.49,3.49,0,0,1,1.64-1.24,2.38,2.38,0,0,1,1.13-4.61,2.42,2.42,0,0,1,2.69,2.34,2.71,2.71,0,0,1-1.66,2.18c1.4.57,2.09,1.43,2.09,2.45A2.93,2.93,0,0,1,375,225.72Zm1.38-3.87a4.52,4.52,0,0,0-1.46-.89c-.92.39-1.74,1-1.74,2a1.8,1.8,0,0,0,1.86,1.81,1.72,1.72,0,0,0,1.82-1.78A1.48,1.48,0,0,0,376.36,221.85Zm-1.38-5a1.36,1.36,0,0,0-1.42,1.36c0,.89.69,1.38,1.48,1.77a2.18,2.18,0,0,0,1.38-1.74A1.32,1.32,0,0,0,375,216.87Z"/><path class="cls-2" d="M384.71,216.08c.11,0,.15,0,.15.12a.6.6,0,0,1-.06.23l-2.63,5.89h3.39v-2.21c0-.22.11-.26.29-.26h.68c.19,0,.27.05.27.26v5.21c0,.2-.08.26-.25.26h-.71c-.18,0-.28-.06-.28-.27v-1.93h-4.47c-.25,0-.3-.13-.3-.33v-.33a1.21,1.21,0,0,1,.15-.58l2.64-5.78c.06-.16.15-.28.34-.28Z"/><rect class="cls-2" x="220.94" y="210.03" width="1.07" height="22.42"/><polygon class="cls-5" points="43.6 236.63 56.28 248.04 65.17 194.1 43.6 236.63"/><path class="cls-5" d="M66.18,194.18,57.12,249.1a.49.49,0,0,1-.32.39l-.17,0,17.91-.75Z"/><polygon class="cls-5" points="87.92 237.51 67.2 194.25 75.4 247.8 87.92 237.51"/></svg>