<svg id="Layer_1" data-name="Layer 1" xmlns="http://www.w3.org/2000/svg" viewBox="0 0 1204.05 307.58"><defs><style>.cls-1{fill:#e95944;}.cls-2{fill:#77716d;}.cls-3{fill:#e2e1e0;}.cls-4{fill:#72edb8;}.cls-5{fill:#91d0b8;}</style></defs><polygon class="cls-1" points="474.24 64.39 486.93 75.8 495.82 21.87 474.24 64.39"/><path class="cls-1" d="M496.82,21.94l-9.05,54.92a.49.49,0,0,1-.33.39.44.44,0,0,1-.16,0l17.9-.75Z"/><polygon class="cls-1" points="518.57 65.28 497.85 22.01 506.05 75.56 518.57 65.28"/><polygon class="cls-2" points="474.24 166.55 486.93 177.95 495.82 124.02 474.24 166.55"/><path class="cls-2" d="M496.82,124.09,487.77,179a.49.49,0,0,1-.33.39.45.45,0,0,1-.16,0l17.9-.75Z"/><polygon class="cls-2" points="518.57 167.43 497.85 124.16 506.05 177.71 518.57 167.43"/><polygon class="cls-3" points="474.24 268.7 486.93 280.1 495.82 226.17 474.24 268.7"/><path class="cls-3" d="M496.82,226.24l-9.05,54.92a.49.49,0,0,1-.33.39.45.45,0,0,1-.16,0l17.9-.75Z"/><polygon class="cls-3" points="518.57 269.58 497.85 226.32 506.05 279.86 518.57 269.58"/><path class="cls-2" d="M139.15,149.69c0,.17-.09.21-.26.21h-1.46l-.29,1.92h1.44c.16,0,.19.05.19.16v.08l0,.47c0,.2-.11.22-.29.22H137l-.38,2.5c0,.18-.11.25-.35.25h-.56c-.17,0-.22,0-.22-.15a.72.72,0,0,1,0-.13l.41-2.47H134l-.41,2.47c0,.2-.08.28-.36.28h-.52c-.2,0-.25-.06-.25-.18a.66.66,0,0,1,0-.13l.39-2.44h-1.37c-.16,0-.2-.07-.2-.16s0-.06,0-.1l.07-.45c0-.17.08-.22.33-.22H133l.29-1.92h-1.43c-.14,0-.2-.07-.2-.17s0,0,0-.08l.07-.47c0-.15.07-.19.25-.19h1.47l.41-2.79c0-.15.07-.21.21-.21h.69c.18,0,.22,0,.22.16a.62.62,0,0,1,0,.13l-.42,2.71h1.88l.43-2.78c0-.17.08-.22.25-.22h.66c.16,0,.22.06.22.17s0,.05,0,.1l-.4,2.73H139c.11,0,.18,0,.18.14v0Zm-2.82.21h-1.91l-.3,1.92H136Z"/><path class="cls-2" d="M145.53,154.85a3.51,3.51,0,0,1-2.29.79,5.51,5.51,0,0,1-1.2-.17c-.17,0-.18-.14-.16-.29l.11-.5c0-.2.1-.2.25-.17a5.84,5.84,0,0,0,.91.09,2.25,2.25,0,0,0,1.63-.61,4.8,4.8,0,0,0,1-2.85,2.79,2.79,0,0,1-2,.8,2.62,2.62,0,0,1-2.7-2.84,3,3,0,0,1,2.93-3.27c2.36,0,3.15,1.94,3.15,4.18A6.59,6.59,0,0,1,145.53,154.85Zm-1.48-8c-1.19,0-1.6,1.18-1.6,2.13s.43,1.91,1.54,1.91a2.57,2.57,0,0,0,1.88-.88c0-.08,0-.22,0-.33C145.88,148,145.33,146.86,144.05,146.86Z"/><path class="cls-2" d="M154.24,155.17c0,.23-.08.33-.3.33h-.61c-.25,0-.33-.1-.33-.33v-7.81l-2,1.23a.45.45,0,0,1-.19.07.19.19,0,0,1-.18-.11l-.28-.46a.33.33,0,0,1,0-.15.29.29,0,0,1,.17-.24l2.54-1.58a.78.78,0,0,1,.51-.13H154c.19,0,.27.11.27.32Z"/><path class="cls-2" d="M164.85,155.21c0,.18-.09.29-.21.29h-.59c-.21,0-.29-.08-.29-.26l0-.5a2.77,2.77,0,0,1-2,.9c-2,0-2.85-1.63-2.85-3.44,0-2,1.19-3.53,3-3.53a2.46,2.46,0,0,1,1.79.77v-3.36c0-.18.05-.27.22-.29l.75-.1c.14,0,.21.07.21.24Zm-1.18-4.64a2,2,0,0,0-1.62-1c-1.25,0-2,1-2,2.54s.65,2.55,1.85,2.55a2.31,2.31,0,0,0,1.73-.91Z"/><path class="cls-2" d="M170.91,155.64c-2.49,0-3.25-2.69-3.25-4.89s.83-4.92,3.3-4.92,3.24,2.69,3.24,4.88S173.41,155.64,170.91,155.64Zm0-8.74c-1.57,0-1.94,2.21-1.94,3.83s.36,3.82,1.93,3.82,1.93-2.21,1.93-3.82S172.47,146.9,170.94,146.9Z"/><path class="cls-2" d="M180,155.64a2.61,2.61,0,0,1-1.85-.86l0,.5c0,.16-.09.22-.28.22h-.52c-.18,0-.27-.07-.27-.26v-9.16c0-.18,0-.27.21-.29l.74-.1a.21.21,0,0,1,.23.24v3.54a2.91,2.91,0,0,1,2-.79,2.56,2.56,0,0,1,1.75.62,3.76,3.76,0,0,1,1,2.85C183,154,182,155.64,180,155.64Zm0-6a2.55,2.55,0,0,0-1.75.83v3.29a2,2,0,0,0,1.64.91c1.38,0,1.91-1.15,1.91-2.48S181.24,149.65,180,149.65Z"/><path class="cls-2" d="M188.66,155.64c-1.74,0-3.13-.93-3.13-2.71a2.21,2.21,0,0,1,.42-1.25,3.43,3.43,0,0,1,1.64-1.24,2.57,2.57,0,0,1-1.66-2.24,2.53,2.53,0,0,1,2.79-2.37,2.41,2.41,0,0,1,2.69,2.33,2.71,2.71,0,0,1-1.66,2.18c1.4.58,2.09,1.43,2.09,2.45A2.94,2.94,0,0,1,188.66,155.64Zm1.38-3.88a4.34,4.34,0,0,0-1.46-.88c-.92.38-1.74,1-1.74,2a1.8,1.8,0,0,0,1.87,1.8,1.72,1.72,0,0,0,1.82-1.78A1.5,1.5,0,0,0,190,151.76Zm-1.38-5a1.36,1.36,0,0,0-1.42,1.37c0,.88.69,1.38,1.48,1.76a2.14,2.14,0,0,0,1.38-1.74A1.32,1.32,0,0,0,188.66,146.78Z"/><path class="cls-2" d="M256,155.19l-1.92-2.93h-.85v2.85a.35.35,0,0,1-.38.39h-1.43c-.28,0-.39-.13-.39-.4v-8.71c0-.37.09-.46.46-.46h2.09a4.48,4.48,0,0,1,3.43,1,3.12,3.12,0,0,1,.74,2.06,3,3,0,0,1-1.64,2.81v0l2.26,3.22a.43.43,0,0,1,.08.24.2.2,0,0,1-.22.18h-1.61A.64.64,0,0,1,256,155.19Zm-2.24-7.61h-.53v3h.69a1.45,1.45,0,0,0,1.62-1.56C255.55,148,254.81,147.58,253.77,147.58Z"/><path class="cls-2" d="M264.93,155.17c0,.23-.08.33-.3.33H264c-.25,0-.33-.1-.33-.33v-7.81l-2,1.23a.45.45,0,0,1-.19.07.19.19,0,0,1-.18-.11l-.28-.46a.33.33,0,0,1-.05-.15.29.29,0,0,1,.18-.24l2.53-1.58a.78.78,0,0,1,.51-.13h.45c.19,0,.27.11.27.32Z"/><path class="cls-2" d="M273.54,146c.11,0,.15,0,.15.13a.56.56,0,0,1-.06.22L271,152.23h3.39V150c0-.22.11-.26.29-.26h.68c.19,0,.27.06.27.26v5.22c0,.19-.08.26-.25.26h-.71c-.18,0-.28-.07-.28-.28v-1.93h-4.47c-.25,0-.3-.12-.3-.33v-.33a1.27,1.27,0,0,1,.15-.58l2.64-5.78c.06-.15.15-.28.34-.28Z"/><path class="cls-2" d="M281.4,155.64a4.88,4.88,0,0,1-2.22-.57c-.15-.08-.21-.14-.21-.22a.31.31,0,0,1,0-.15l.22-.51c0-.11.1-.15.17-.15a.4.4,0,0,1,.2.07,4,4,0,0,0,1.88.46,1.84,1.84,0,0,0,2-1.91,2,2,0,0,0-.59-1.51,3.19,3.19,0,0,0-2.13-.59h-.87a.37.37,0,0,1-.41-.41v-3.84c0-.23.1-.32.3-.32H284c.21,0,.32.07.32.29v.49c0,.2-.06.27-.29.27h-3.3v2.57h.42c1.94,0,3.65.85,3.65,3C284.79,154.53,283.31,155.64,281.4,155.64Z"/><path class="cls-2" d="M309.49,154.52a.46.46,0,0,1-.33.52,8.91,8.91,0,0,1-3.42.64c-2.77,0-4.54-2-4.54-4.93a4.69,4.69,0,0,1,4.72-5,6,6,0,0,1,2.71.59.29.29,0,0,1,.21.29.8.8,0,0,1,0,.18l-.41,1.08c-.06.15-.14.22-.24.22a.55.55,0,0,1-.23-.07,5.08,5.08,0,0,0-1.88-.42,2.34,2.34,0,0,0-1.71.72,3.4,3.4,0,0,0-.78,2.36c0,2.19,1.07,3.13,2.34,3.13a5.78,5.78,0,0,0,1.41-.14v-2.12h-1.07a.33.33,0,0,1-.34-.36V150.1c0-.24.14-.34.37-.34h2.84c.27,0,.39.1.39.37Z"/><path class="cls-2" d="M318.43,155.19c0,.2-.09.31-.33.31h-5.2c-.24,0-.31-.08-.31-.31v-.45a.46.46,0,0,1,.17-.41c.73-.78,1.56-1.54,2.26-2.29,1.31-1.41,2.08-2.51,2.08-3.56a1.51,1.51,0,0,0-1.65-1.56,4.07,4.07,0,0,0-2,.58.24.24,0,0,1-.13,0c-.09,0-.14-.06-.2-.17l-.2-.44a.31.31,0,0,1,0-.15.28.28,0,0,1,.15-.22,4.9,4.9,0,0,1,2.58-.73,2.53,2.53,0,0,1,2.8,2.52c0,1.44-.87,2.64-2.57,4.4-.55.58-1.13,1.15-1.67,1.69h3.91c.23,0,.33.07.33.27Z"/><path class="cls-2" d="M324.41,155.64c-2.49,0-3.25-2.69-3.25-4.89s.82-4.92,3.29-4.92,3.24,2.69,3.24,4.88S326.91,155.64,324.41,155.64Zm0-8.74c-1.57,0-1.95,2.21-1.95,3.83s.36,3.82,1.93,3.82,1.94-2.21,1.94-3.82S326,146.9,324.44,146.9Z"/><path class="cls-2" d="M333.36,155.64c-1.74,0-3.13-.93-3.13-2.71a2.27,2.27,0,0,1,.41-1.25,3.5,3.5,0,0,1,1.65-1.24,2.38,2.38,0,0,1,1.13-4.61,2.41,2.41,0,0,1,2.69,2.33,2.71,2.71,0,0,1-1.66,2.18c1.39.58,2.08,1.43,2.08,2.45A2.93,2.93,0,0,1,333.36,155.64Zm1.38-3.88a4.34,4.34,0,0,0-1.46-.88c-.93.38-1.74,1-1.74,2a1.8,1.8,0,0,0,1.86,1.8,1.72,1.72,0,0,0,1.82-1.78A1.5,1.5,0,0,0,334.74,151.76Zm-1.38-5a1.36,1.36,0,0,0-1.42,1.37c0,.88.69,1.38,1.48,1.76a2.16,2.16,0,0,0,1.38-1.74A1.32,1.32,0,0,0,333.36,146.78Z"/><path class="cls-2" d="M356.43,155.5h-2.75c-.34,0-.42-.14-.42-.48v-8.69c0-.34.14-.4.46-.4H356c2.46,0,3.66.71,3.66,2.34a1.94,1.94,0,0,1-1.49,2h0a2.34,2.34,0,0,1,2.23,2.4C360.35,155,358.42,155.5,356.43,155.5Zm-.33-7.92h-.67v2.15H356c1,0,1.51-.29,1.51-1.16C357.46,147.91,356.94,147.58,356.1,147.58Zm1.36,3.85a3.16,3.16,0,0,0-1.34-.19h-.69v2.58h.85a3.49,3.49,0,0,0,1.13-.14,1.13,1.13,0,0,0,.72-1.12A1.18,1.18,0,0,0,357.46,151.43Z"/><path class="cls-2" d="M367.14,155.17c0,.23-.09.33-.31.33h-.6c-.25,0-.34-.1-.34-.33v-7.81l-2,1.23a.37.37,0,0,1-.19.07.19.19,0,0,1-.18-.11l-.27-.46a.36.36,0,0,1-.06-.15.31.31,0,0,1,.18-.24l2.54-1.58a.75.75,0,0,1,.51-.13h.44c.19,0,.28.11.28.32Z"/><path class="cls-2" d="M375,155.64c-1.74,0-3.13-.93-3.13-2.71a2.21,2.21,0,0,1,.42-1.25,3.43,3.43,0,0,1,1.64-1.24,2.57,2.57,0,0,1-1.66-2.24,2.53,2.53,0,0,1,2.79-2.37,2.41,2.41,0,0,1,2.69,2.33,2.71,2.71,0,0,1-1.66,2.18c1.4.58,2.09,1.43,2.09,2.45A2.94,2.94,0,0,1,375,155.64Zm1.38-3.88a4.34,4.34,0,0,0-1.46-.88c-.92.38-1.74,1-1.74,2a1.8,1.8,0,0,0,1.86,1.8,1.72,1.72,0,0,0,1.82-1.78A1.5,1.5,0,0,0,376.36,151.76Zm-1.38-5a1.36,1.36,0,0,0-1.42,1.37c0,.88.69,1.38,1.48,1.76a2.16,2.16,0,0,0,1.38-1.74A1.32,1.32,0,0,0,375,146.78Z"/><path class="cls-2" d="M384.71,146c.11,0,.15,0,.15.13a.56.56,0,0,1-.06.22l-2.63,5.89h3.39V150c0-.22.11-.26.29-.26h.68c.19,0,.27.06.27.26v5.22c0,.19-.08.26-.25.26h-.71c-.18,0-.28-.07-.28-.28v-1.93h-4.47c-.25,0-.3-.12-.3-.33v-.33a1.27,1.27,0,0,1,.15-.58l2.64-5.78c.06-.15.15-.28.34-.28Z"/><rect class="cls-2" x="220.94" y="139.94" width="1.07" height="22.42"/><path class="cls-2" d="M139.15,48.64c0,.17-.09.21-.26.21h-1.46l-.29,1.92h1.44c.16,0,.19,0,.19.16V51l0,.47c0,.2-.11.22-.29.22H137l-.38,2.5c0,.18-.11.25-.35.25h-.56c-.17,0-.22,0-.22-.15a.72.72,0,0,1,0-.13l.41-2.47H134l-.41,2.47c0,.2-.08.28-.36.28h-.52c-.2,0-.25-.06-.25-.18a.53.53,0,0,1,0-.12l.39-2.45h-1.37c-.16,0-.2-.06-.2-.16s0-.06,0-.1l.07-.45c0-.17.08-.22.33-.22H133l.29-1.92h-1.43c-.14,0-.2-.07-.2-.17s0,0,0-.08l.07-.47c0-.15.07-.19.25-.19h1.47l.41-2.79c0-.15.07-.2.21-.2h.69c.18,0,.22,0,.22.15a.76.76,0,0,1,0,.14l-.42,2.7h1.88l.43-2.77c0-.18.08-.22.25-.22h.66c.16,0,.22,0,.22.16s0,.06,0,.1l-.4,2.73H139c.11,0,.18,0,.18.14v0Zm-2.82.21h-1.91l-.3,1.92H136Z"/><path class="cls-2" d="M147.28,45.68a1.28,1.28,0,0,1-.13.49l-3.71,8a.42.42,0,0,1-.43.28h-.77a.2.2,0,0,1-.22-.21.48.48,0,0,1,0-.15L145.87,46h-4.4c-.22,0-.29-.08-.29-.27v-.53c0-.18.06-.27.28-.27H147c.22,0,.29.06.29.27Z"/><path class="cls-2" d="M156.12,54.15c0,.19-.09.3-.33.3h-5.2c-.24,0-.31-.08-.31-.3v-.46a.46.46,0,0,1,.17-.41c.73-.78,1.56-1.53,2.26-2.29,1.31-1.41,2.08-2.51,2.08-3.56a1.51,1.51,0,0,0-1.65-1.56,4,4,0,0,0-2,.58.24.24,0,0,1-.13,0c-.09,0-.14-.05-.2-.17l-.2-.44a.31.31,0,0,1,0-.15.28.28,0,0,1,.15-.22,4.9,4.9,0,0,1,2.58-.73,2.53,2.53,0,0,1,2.8,2.52c0,1.44-.87,2.64-2.57,4.4-.55.58-1.13,1.15-1.67,1.69h3.91c.23,0,.33.07.33.27Z"/><path class="cls-2" d="M164.75,50.9c0,.32-.05.39-.41.39H160.1a2.16,2.16,0,0,0,2.18,2.33,4.9,4.9,0,0,0,1.66-.29c.12,0,.26-.07.3.1l.15.51c0,.12,0,.18-.15.25a5.69,5.69,0,0,1-2.11.4c-2.12,0-3.26-1.4-3.26-3.48a3.19,3.19,0,0,1,3.22-3.47,2.52,2.52,0,0,1,1.87.75,3.16,3.16,0,0,1,.79,2.28Zm-1.16-.41V50.3A1.56,1.56,0,0,0,162,48.55a2,2,0,0,0-1.9,1.94Z"/><path class="cls-2" d="M173.11,54.16c0,.18-.09.29-.21.29h-.59c-.21,0-.29-.08-.29-.26l0-.5a2.77,2.77,0,0,1-2,.9c-2,0-2.85-1.63-2.85-3.44,0-2,1.19-3.53,3-3.53a2.49,2.49,0,0,1,1.8.77V45c0-.18,0-.26.22-.29l.74-.1c.14,0,.21.07.21.24Zm-1.17-4.63a2,2,0,0,0-1.63-1c-1.24,0-2,1-2,2.54s.65,2.55,1.85,2.55a2.32,2.32,0,0,0,1.74-.91Z"/><path class="cls-2" d="M179.26,54.59a2.59,2.59,0,0,1-1.85-.86l0,.5c0,.16-.08.22-.27.22h-.53c-.18,0-.26-.07-.26-.26V45c0-.18,0-.26.21-.29l.74-.1c.14,0,.22.07.22.24v3.54a3,3,0,0,1,2-.78,2.54,2.54,0,0,1,1.75.62,3.72,3.72,0,0,1,1.05,2.84C182.28,53,181.31,54.59,179.26,54.59Zm0-6a2.59,2.59,0,0,0-1.75.83v3.3a2.08,2.08,0,0,0,1.64.91c1.38,0,1.92-1.16,1.92-2.49S180.54,48.6,179.24,48.6Z"/><path class="cls-2" d="M188,54.59c-1.74,0-3.13-.93-3.13-2.71a2.27,2.27,0,0,1,.41-1.25,3.47,3.47,0,0,1,1.64-1.24A2.38,2.38,0,0,1,188,44.78a2.41,2.41,0,0,1,2.69,2.33,2.71,2.71,0,0,1-1.66,2.18c1.39.58,2.08,1.44,2.08,2.46A2.93,2.93,0,0,1,188,54.59Zm1.38-3.88a4.34,4.34,0,0,0-1.46-.88c-.93.38-1.74,1-1.74,2A1.8,1.8,0,0,0,188,53.64a1.72,1.72,0,0,0,1.82-1.78A1.5,1.5,0,0,0,189.34,50.71Zm-1.38-5a1.36,1.36,0,0,0-1.42,1.37c0,.88.69,1.38,1.48,1.76a2.15,2.15,0,0,0,1.37-1.74A1.31,1.31,0,0,0,188,45.73Z"/><path class="cls-2" d="M256,54.15l-1.92-2.94h-.85v2.85a.35.35,0,0,1-.38.39h-1.43c-.28,0-.39-.12-.39-.4v-8.7c0-.38.09-.47.46-.47h2.09a4.48,4.48,0,0,1,3.43,1,3.12,3.12,0,0,1,.74,2.06,3,3,0,0,1-1.64,2.81v0L258.38,54a.38.38,0,0,1,.08.23.2.2,0,0,1-.22.18h-1.61A.65.65,0,0,1,256,54.15Zm-2.24-7.62h-.53v3h.69A1.45,1.45,0,0,0,255.55,48C255.55,46.92,254.81,46.53,253.77,46.53Z"/><path class="cls-2" d="M264.93,54.12c0,.23-.08.33-.3.33H264c-.25,0-.33-.1-.33-.33V46.31l-2,1.23a.45.45,0,0,1-.19.07.19.19,0,0,1-.18-.11L261,47a.33.33,0,0,1-.05-.15.26.26,0,0,1,.18-.23l2.53-1.59a.78.78,0,0,1,.51-.12h.45c.19,0,.27.11.27.31Z"/><path class="cls-2" d="M273.89,54.12c0,.23-.08.33-.3.33H273c-.24,0-.33-.1-.33-.33V46.31l-2,1.23a.4.4,0,0,1-.19.07.19.19,0,0,1-.18-.11L270,47a.36.36,0,0,1-.06-.15.28.28,0,0,1,.18-.23l2.54-1.59a.75.75,0,0,1,.51-.12h.44c.19,0,.27.11.27.31Z"/><path class="cls-2" d="M282.5,45c.11,0,.15,0,.15.12a.52.52,0,0,1,0,.22L280,51.18h3.4V49c0-.22.11-.26.29-.26h.67c.19,0,.28.06.28.26v5.22c0,.19-.09.26-.25.26h-.72c-.18,0-.27-.07-.27-.28V52.24h-4.47c-.25,0-.31-.12-.31-.33v-.33a1.18,1.18,0,0,1,.16-.58l2.63-5.78c.07-.15.15-.27.35-.27Z"/><path class="cls-2" d="M309.49,53.47a.45.45,0,0,1-.33.52,8.91,8.91,0,0,1-3.42.64c-2.77,0-4.54-2-4.54-4.93a4.69,4.69,0,0,1,4.72-5,6.11,6.11,0,0,1,2.71.59.31.31,0,0,1,.21.29.8.8,0,0,1,0,.18l-.41,1.08c-.06.15-.14.22-.24.22a.55.55,0,0,1-.23-.07,5.09,5.09,0,0,0-1.88-.41,2.33,2.33,0,0,0-1.71.71,3.42,3.42,0,0,0-.78,2.36c0,2.19,1.07,3.13,2.34,3.13a5.78,5.78,0,0,0,1.41-.14V50.49h-1.07a.33.33,0,0,1-.34-.36V49.06c0-.25.14-.35.37-.35h2.84c.27,0,.39.1.39.37Z"/><path class="cls-2" d="M318.43,54.15c0,.19-.09.3-.33.3h-5.2c-.24,0-.31-.08-.31-.3v-.46a.46.46,0,0,1,.17-.41c.73-.78,1.56-1.53,2.26-2.29,1.31-1.41,2.08-2.51,2.08-3.56a1.51,1.51,0,0,0-1.65-1.56,4.07,4.07,0,0,0-2,.58.24.24,0,0,1-.13,0c-.09,0-.14-.05-.2-.17l-.2-.44a.31.31,0,0,1,0-.15.28.28,0,0,1,.15-.22,4.9,4.9,0,0,1,2.58-.73,2.53,2.53,0,0,1,2.8,2.52c0,1.44-.87,2.64-2.57,4.4-.55.58-1.13,1.15-1.67,1.69h3.91c.23,0,.33.07.33.27Z"/><path class="cls-2" d="M324.09,54.59a5,5,0,0,1-2.34-.49c-.11-.05-.17-.12-.17-.19s0,0,0-.1l.22-.57a.16.16,0,0,1,.17-.11l.12,0a4.61,4.61,0,0,0,1.88.42,1.84,1.84,0,0,0,2-1.89c0-1.3-1.05-1.87-2.26-1.87h-.4c-.18,0-.24-.09-.24-.24V49.1c0-.15,0-.24.22-.24h.4c1.15,0,1.92-.51,1.92-1.64,0-1-.7-1.45-1.67-1.45a3.68,3.68,0,0,0-1.68.47.33.33,0,0,1-.15.06c-.06,0-.1,0-.14-.14l-.22-.5a.23.23,0,0,1,0-.09c0-.07,0-.11.12-.17a4.48,4.48,0,0,1,2.32-.62A2.51,2.51,0,0,1,327,47.14a2.29,2.29,0,0,1-1.56,2.14,2.46,2.46,0,0,1,1.92,2.4A3,3,0,0,1,324.09,54.59Z"/><path class="cls-2" d="M336.48,45.68a1.28,1.28,0,0,1-.13.49l-3.71,8a.42.42,0,0,1-.42.28h-.78a.2.2,0,0,1-.22-.21.48.48,0,0,1,0-.15L335.07,46h-4.4c-.22,0-.29-.08-.29-.27v-.53c0-.18.06-.27.28-.27h5.53c.22,0,.29.06.29.27Z"/><path class="cls-2" d="M356.43,54.45h-2.75c-.34,0-.42-.14-.42-.48V45.28c0-.33.14-.4.46-.4H356c2.46,0,3.66.71,3.66,2.34a1.94,1.94,0,0,1-1.49,2h0a2.34,2.34,0,0,1,2.23,2.4C360.35,53.91,358.42,54.45,356.43,54.45Zm-.33-7.92h-.67v2.15H356c1,0,1.51-.29,1.51-1.16C357.46,46.86,356.94,46.53,356.1,46.53Zm1.36,3.85a3.16,3.16,0,0,0-1.34-.19h-.69v2.58h.85a3.49,3.49,0,0,0,1.13-.14,1.12,1.12,0,0,0,.72-1.11A1.19,1.19,0,0,0,357.46,50.38Z"/><path class="cls-2" d="M367.14,54.12c0,.23-.09.33-.31.33h-.6c-.25,0-.34-.1-.34-.33V46.31l-2,1.23a.37.37,0,0,1-.19.07.19.19,0,0,1-.18-.11l-.27-.46a.36.36,0,0,1-.06-.15.28.28,0,0,1,.18-.23l2.54-1.59a.75.75,0,0,1,.51-.12h.44c.19,0,.28.11.28.31Z"/><path class="cls-2" d="M375,54.59c-1.74,0-3.13-.93-3.13-2.71a2.21,2.21,0,0,1,.42-1.25,3.43,3.43,0,0,1,1.64-1.24A2.38,2.38,0,0,1,375,44.78a2.41,2.41,0,0,1,2.69,2.33,2.71,2.71,0,0,1-1.66,2.18c1.4.58,2.09,1.44,2.09,2.46A2.94,2.94,0,0,1,375,54.59Zm1.38-3.88a4.34,4.34,0,0,0-1.46-.88c-.92.38-1.74,1-1.74,2A1.81,1.81,0,0,0,375,53.64a1.72,1.72,0,0,0,1.82-1.78A1.5,1.5,0,0,0,376.36,50.71Zm-1.38-5a1.36,1.36,0,0,0-1.42,1.37c0,.88.69,1.38,1.48,1.76a2.16,2.16,0,0,0,1.38-1.74A1.32,1.32,0,0,0,375,45.73Z"/><path class="cls-2" d="M384.71,45c.11,0,.15,0,.15.12a.56.56,0,0,1-.06.22l-2.63,5.89h3.39V49c0-.22.11-.26.29-.26h.68c.19,0,.27.06.27.26v5.22c0,.19-.08.26-.25.26h-.71c-.18,0-.28-.07-.28-.28V52.24h-4.47c-.25,0-.3-.12-.3-.33v-.33a1.27,1.27,0,0,1,.15-.58l2.64-5.78a.35.35,0,0,1,.34-.27Z"/><rect class="cls-2" x="220.94" y="38.89" width="1.07" height="22.42"/><path class="cls-2" d="M569.72,48.64c0,.17-.09.21-.26.21H568l-.29,1.92h1.44c.16,0,.19,0,.19.16V51l0,.47c0,.2-.11.22-.29.22h-1.47l-.38,2.5c0,.18-.11.25-.35.25h-.56c-.17,0-.22,0-.22-.15a.72.72,0,0,1,0-.13l.42-2.47h-1.94l-.41,2.47c0,.2-.08.28-.36.28h-.52c-.2,0-.25-.06-.25-.18a.53.53,0,0,1,0-.12l.39-2.45H562c-.16,0-.2-.06-.2-.16s0-.06,0-.1l.07-.45c0-.17.08-.22.33-.22h1.35l.29-1.92h-1.43c-.14,0-.2-.07-.2-.17s0,0,0-.08l.07-.47c0-.15.07-.19.25-.19H564l.42-2.79c0-.15.06-.21.2-.21h.69c.18,0,.22.05.22.16a.62.62,0,0,1,0,.13l-.42,2.71H567l.43-2.77c0-.18.08-.23.25-.23h.66c.16,0,.22.06.22.17s0,.06,0,.1l-.4,2.73h1.44c.11,0,.18,0,.18.14v0Zm-2.82.21H565l-.3,1.92h1.9Z"/><path class="cls-2" d="M577.39,50.9c0,.32,0,.39-.41.39h-4.24a2.16,2.16,0,0,0,2.18,2.33,4.9,4.9,0,0,0,1.66-.29c.12,0,.26-.07.3.1l.15.51c0,.12,0,.18-.15.25a5.65,5.65,0,0,1-2.11.4c-2.12,0-3.25-1.4-3.25-3.48a3.19,3.19,0,0,1,3.21-3.48,2.55,2.55,0,0,1,1.88.76,3.2,3.2,0,0,1,.78,2.28Zm-1.16-.41V50.3a1.56,1.56,0,0,0-1.56-1.75,2,2,0,0,0-1.9,1.94Z"/><path class="cls-2" d="M584.36,53.8a3.51,3.51,0,0,1-2.29.79,5.51,5.51,0,0,1-1.2-.17c-.17,0-.18-.14-.16-.29l.11-.49c0-.21.1-.21.25-.18a5.84,5.84,0,0,0,.91.09,2.24,2.24,0,0,0,1.63-.6,4.86,4.86,0,0,0,1-2.86,2.79,2.79,0,0,1-2,.8,2.61,2.61,0,0,1-2.7-2.84,3,3,0,0,1,2.93-3.27c2.36,0,3.15,1.94,3.15,4.18A6.59,6.59,0,0,1,584.36,53.8Zm-1.48-8c-1.19,0-1.6,1.18-1.6,2.13s.43,1.92,1.55,1.92A2.57,2.57,0,0,0,584.7,49c0-.08,0-.22,0-.33C584.71,47,584.16,45.81,582.88,45.81Z"/><path class="cls-2" d="M591.61,54.59a4.92,4.92,0,0,1-2.22-.57c-.15-.08-.21-.14-.21-.22a.48.48,0,0,1,0-.15l.22-.51c0-.11.1-.15.17-.15a.46.46,0,0,1,.21.07,3.91,3.91,0,0,0,1.87.46,1.84,1.84,0,0,0,2-1.91,2,2,0,0,0-.59-1.51,3.18,3.18,0,0,0-2.12-.59h-.87a.37.37,0,0,1-.42-.41V45.26c0-.23.1-.32.31-.32h4.2c.21,0,.32.07.32.29v.49c0,.2,0,.27-.29.27h-3.3v2.57h.42c1.94,0,3.65.85,3.65,3C595,53.48,593.53,54.59,591.61,54.59Z"/><path class="cls-2" d="M602.29,53.8a3.51,3.51,0,0,1-2.29.79,5.69,5.69,0,0,1-1.21-.17c-.16,0-.17-.14-.15-.29l.11-.49c0-.21.1-.21.25-.18a5.84,5.84,0,0,0,.91.09,2.24,2.24,0,0,0,1.63-.6,4.86,4.86,0,0,0,1-2.86,2.79,2.79,0,0,1-2,.8,2.62,2.62,0,0,1-2.71-2.84,3,3,0,0,1,2.94-3.27c2.36,0,3.15,1.94,3.15,4.18A6.59,6.59,0,0,1,602.29,53.8Zm-1.48-8c-1.19,0-1.6,1.18-1.6,2.13s.43,1.92,1.54,1.92a2.58,2.58,0,0,0,1.88-.89c0-.08,0-.22,0-.33C602.64,47,602.09,45.81,600.81,45.81Z"/><path class="cls-2" d="M610.64,44.94c.11,0,.15.05.15.13a.52.52,0,0,1,0,.22l-2.64,5.89h3.4V49c0-.22.11-.26.29-.26h.67c.2,0,.28.06.28.26v5.22c0,.19-.08.26-.25.26h-.72c-.18,0-.27-.07-.27-.28V52.24H607c-.25,0-.31-.12-.31-.33v-.33a1.18,1.18,0,0,1,.16-.58l2.63-5.78c.07-.15.15-.28.35-.28Z"/><path class="cls-2" d="M619.61,44.94c.11,0,.15.05.15.13a.56.56,0,0,1-.06.22l-2.63,5.89h3.39V49c0-.22.11-.26.29-.26h.68c.19,0,.27.06.27.26v5.22c0,.19-.08.26-.25.26h-.71c-.18,0-.28-.07-.28-.28V52.24H616c-.25,0-.3-.12-.3-.33v-.33a1.27,1.27,0,0,1,.15-.58l2.63-5.78c.07-.15.16-.28.35-.28Z"/><path class="cls-2" d="M686.58,54.15l-1.92-2.94h-.85v2.85a.35.35,0,0,1-.38.39H682c-.28,0-.39-.13-.39-.4v-8.7c0-.38.09-.47.46-.47h2.09a4.48,4.48,0,0,1,3.43,1,3.12,3.12,0,0,1,.74,2.06,3,3,0,0,1-1.64,2.81v0L689,54a.38.38,0,0,1,.08.23.2.2,0,0,1-.22.18H687.2A.65.65,0,0,1,686.58,54.15Zm-2.24-7.62h-.53v3h.69A1.45,1.45,0,0,0,686.12,48C686.12,46.92,685.38,46.53,684.34,46.53Z"/><path class="cls-2" d="M697.38,54.15c0,.19-.09.3-.33.3h-5.2c-.24,0-.31-.08-.31-.3v-.46a.46.46,0,0,1,.17-.41c.73-.78,1.56-1.53,2.26-2.29,1.31-1.41,2.08-2.51,2.08-3.56a1.51,1.51,0,0,0-1.65-1.56,4.07,4.07,0,0,0-2,.58.24.24,0,0,1-.13,0c-.09,0-.14-.06-.2-.17l-.2-.44a.31.31,0,0,1,0-.15.28.28,0,0,1,.15-.22,4.9,4.9,0,0,1,2.58-.73,2.53,2.53,0,0,1,2.8,2.52c0,1.44-.87,2.64-2.57,4.4-.55.58-1.13,1.15-1.67,1.69h3.91c.23,0,.33.07.33.27Z"/><path class="cls-2" d="M703,54.59a5,5,0,0,1-2.34-.49c-.11-.05-.17-.12-.17-.19s0,0,0-.1l.22-.57a.17.17,0,0,1,.17-.12l.12,0a4.61,4.61,0,0,0,1.88.42,1.84,1.84,0,0,0,2-1.89c0-1.3-1.05-1.87-2.26-1.87h-.4c-.18,0-.24-.09-.24-.24V49.1c0-.15,0-.24.22-.24h.4c1.15,0,1.92-.51,1.92-1.64,0-1-.7-1.45-1.67-1.45a3.68,3.68,0,0,0-1.68.47.33.33,0,0,1-.15.06c-.06,0-.1,0-.14-.14l-.22-.5a.23.23,0,0,1,0-.09c0-.07,0-.11.12-.17a4.48,4.48,0,0,1,2.32-.62,2.51,2.51,0,0,1,2.76,2.36,2.29,2.29,0,0,1-1.56,2.14,2.46,2.46,0,0,1,1.92,2.4A3,3,0,0,1,703,54.59Z"/><path class="cls-2" d="M712,54.59a5.06,5.06,0,0,1-2.35-.49c-.11-.05-.16-.12-.16-.19a.26.26,0,0,1,0-.1l.22-.57a.15.15,0,0,1,.16-.12l.13,0a4.57,4.57,0,0,0,1.87.42,1.83,1.83,0,0,0,2-1.89c0-1.3-1-1.87-2.26-1.87h-.4c-.18,0-.23-.09-.23-.24V49.1c0-.15,0-.24.22-.24h.4c1.14,0,1.91-.51,1.91-1.64,0-1-.7-1.45-1.67-1.45a3.71,3.71,0,0,0-1.68.47.33.33,0,0,1-.15.06s-.1,0-.14-.14l-.22-.5a.92.92,0,0,1,0-.09c0-.07.05-.11.13-.17a4.45,4.45,0,0,1,2.32-.62,2.51,2.51,0,0,1,2.75,2.36,2.28,2.28,0,0,1-1.55,2.14,2.45,2.45,0,0,1,1.91,2.4A3,3,0,0,1,712,54.59Z"/><path class="cls-2" d="M740.06,53.47a.45.45,0,0,1-.33.52,8.91,8.91,0,0,1-3.42.64c-2.77,0-4.54-2-4.54-4.93a4.69,4.69,0,0,1,4.72-5,6,6,0,0,1,2.72.59.31.31,0,0,1,.2.29.8.8,0,0,1,0,.18L739,46.81c-.06.15-.14.22-.24.22a.55.55,0,0,1-.23-.07,5.08,5.08,0,0,0-1.88-.42,2.34,2.34,0,0,0-1.71.72,3.42,3.42,0,0,0-.78,2.36c0,2.19,1.07,3.13,2.34,3.13a5.78,5.78,0,0,0,1.41-.14V50.49H736.8a.33.33,0,0,1-.34-.36V49.06c0-.25.14-.35.37-.35h2.84c.27,0,.39.1.39.37Z"/><path class="cls-2" d="M746,54.59c-1.73,0-3.13-.93-3.13-2.71a2.21,2.21,0,0,1,.42-1.25,3.47,3.47,0,0,1,1.64-1.24,2.38,2.38,0,0,1,1.13-4.61,2.41,2.41,0,0,1,2.69,2.33,2.71,2.71,0,0,1-1.66,2.18c1.4.58,2.09,1.43,2.09,2.46A2.94,2.94,0,0,1,746,54.59Zm1.38-3.88a4.34,4.34,0,0,0-1.46-.88c-.92.38-1.74,1-1.74,2A1.81,1.81,0,0,0,746,53.64a1.73,1.73,0,0,0,1.83-1.78A1.51,1.51,0,0,0,747.38,50.71Zm-1.38-5a1.36,1.36,0,0,0-1.42,1.37c0,.88.69,1.38,1.48,1.76a2.14,2.14,0,0,0,1.38-1.74A1.32,1.32,0,0,0,746,45.73Z"/><path class="cls-2" d="M756.33,53.8a3.47,3.47,0,0,1-2.29.79,5.69,5.69,0,0,1-1.2-.17c-.16,0-.18-.14-.15-.29l.11-.49c0-.21.1-.21.25-.18a5.84,5.84,0,0,0,.91.09,2.24,2.24,0,0,0,1.63-.6,4.86,4.86,0,0,0,1-2.86,2.79,2.79,0,0,1-2,.8,2.62,2.62,0,0,1-2.71-2.84,3,3,0,0,1,2.94-3.27c2.36,0,3.15,1.94,3.15,4.18A6.56,6.56,0,0,1,756.33,53.8Zm-1.47-8c-1.19,0-1.6,1.18-1.6,2.13s.43,1.92,1.54,1.92a2.58,2.58,0,0,0,1.88-.89c0-.08,0-.22,0-.33C756.69,47,756.14,45.81,754.86,45.81Z"/><path class="cls-2" d="M778,54.45h-2.76c-.33,0-.41-.14-.41-.48V45.28c0-.34.14-.4.45-.4h2.24c2.45,0,3.65.71,3.65,2.34a1.94,1.94,0,0,1-1.49,2h0a2.34,2.34,0,0,1,2.24,2.4C782,53.91,780,54.45,778,54.45Zm-.33-7.92H777v2.15h.53c1,0,1.5-.29,1.5-1.16C779.06,46.86,778.55,46.53,777.71,46.53Zm1.35,3.85a3.11,3.11,0,0,0-1.34-.19H777v2.58h.86a3.53,3.53,0,0,0,1.13-.14,1.13,1.13,0,0,0,.72-1.12A1.18,1.18,0,0,0,779.06,50.38Z"/><path class="cls-2" d="M787.8,54.59c-2.35,0-3.13-2-3.13-4.18a6.66,6.66,0,0,1,1.62-4.76,3.33,3.33,0,0,1,2.31-.87,5,5,0,0,1,1.23.16c.18.05.18.2.15.34l-.09.45c0,.18-.14.21-.29.18a5,5,0,0,0-1-.1,2.06,2.06,0,0,0-1.5.6,4.69,4.69,0,0,0-1,2.87,2.81,2.81,0,0,1,2-.8,2.63,2.63,0,0,1,2.72,2.84A3,3,0,0,1,787.8,54.59Zm.07-5.08a2.6,2.6,0,0,0-1.86.88c0,.11,0,.21,0,.32,0,1.7.54,2.84,1.82,2.84s1.61-1.21,1.61-2.12S789,49.51,787.87,49.51Z"/><path class="cls-2" d="M796.59,54.59c-1.74,0-3.13-.93-3.13-2.71a2.27,2.27,0,0,1,.41-1.25,3.47,3.47,0,0,1,1.64-1.24,2.38,2.38,0,0,1,1.13-4.61,2.41,2.41,0,0,1,2.69,2.33,2.7,2.7,0,0,1-1.65,2.18c1.39.58,2.08,1.43,2.08,2.46A2.93,2.93,0,0,1,796.59,54.59ZM798,50.71a4.34,4.34,0,0,0-1.46-.88c-.93.38-1.74,1-1.74,2a1.8,1.8,0,0,0,1.86,1.81,1.72,1.72,0,0,0,1.82-1.78A1.5,1.5,0,0,0,798,50.71Zm-1.38-5a1.36,1.36,0,0,0-1.42,1.37c0,.88.69,1.38,1.47,1.76A2.14,2.14,0,0,0,798,47.12,1.31,1.31,0,0,0,796.59,45.73Z"/><rect class="cls-2" x="651.51" y="38.89" width="1.07" height="22.42"/><path class="cls-2" d="M569.72,149.69c0,.17-.09.21-.26.21H568l-.29,1.91h1.44c.16,0,.19.06.19.17v.08l0,.47c0,.2-.11.22-.29.22h-1.47l-.38,2.5c0,.18-.11.25-.35.25h-.56c-.17,0-.22,0-.22-.15a.72.72,0,0,1,0-.13l.42-2.47h-1.94l-.41,2.47c0,.2-.08.28-.36.28h-.52c-.2,0-.25-.06-.25-.18a.66.66,0,0,1,0-.13l.39-2.44H562c-.16,0-.2-.07-.2-.16s0-.06,0-.1l.07-.45c0-.17.08-.23.33-.23h1.35l.29-1.91h-1.43c-.14,0-.2-.07-.2-.17s0,0,0-.08l.07-.47c0-.15.07-.19.25-.19H564l.42-2.79c0-.15.06-.21.2-.21h.69c.18,0,.22,0,.22.16a.62.62,0,0,1,0,.13l-.42,2.71H567l.43-2.78c0-.17.08-.22.25-.22h.66c.16,0,.22.06.22.17s0,.05,0,.1l-.4,2.73h1.44c.11,0,.18,0,.18.14v0Zm-2.82.21H565l-.3,1.91h1.9Z"/><path class="cls-2" d="M577.85,146.73a1.28,1.28,0,0,1-.13.49l-3.71,8a.42.42,0,0,1-.43.28h-.77a.2.2,0,0,1-.22-.21.42.42,0,0,1,0-.15l3.81-8.07H572c-.22,0-.29-.08-.29-.28v-.52c0-.18.06-.28.28-.28h5.53c.22,0,.29.07.29.28Z"/><path class="cls-2" d="M586.81,146.73a1.26,1.26,0,0,1-.12.49l-3.71,8a.43.43,0,0,1-.43.28h-.77a.2.2,0,0,1-.22-.21.28.28,0,0,1,0-.15l3.8-8.07H581c-.22,0-.29-.08-.29-.28v-.52c0-.18.06-.28.28-.28h5.53c.22,0,.29.07.29.28Z"/><path class="cls-2" d="M595.78,146.73a1.28,1.28,0,0,1-.13.49l-3.71,8a.43.43,0,0,1-.43.28h-.77a.2.2,0,0,1-.22-.21.28.28,0,0,1,0-.15l3.81-8.07H590c-.22,0-.29-.08-.29-.28v-.52c0-.18.05-.28.28-.28h5.53c.22,0,.29.07.29.28Z"/><path class="cls-2" d="M602.74,155.17c0,.23-.08.33-.3.33h-.61c-.25,0-.33-.1-.33-.33v-7.81l-2,1.23a.44.44,0,0,1-.2.07.21.21,0,0,1-.18-.11l-.27-.46a.36.36,0,0,1-.06-.15.31.31,0,0,1,.18-.24l2.54-1.58A.78.78,0,0,1,602,146h.44c.2,0,.28.11.28.32Z"/><path class="cls-2" d="M610.77,155.64c-2.36,0-3.14-1.95-3.14-4.18a6.66,6.66,0,0,1,1.62-4.76,3.33,3.33,0,0,1,2.32-.87,4.93,4.93,0,0,1,1.22.16c.18,0,.18.2.16.34l-.1.45c0,.18-.14.21-.29.18a4.94,4.94,0,0,0-1-.1,2.06,2.06,0,0,0-1.5.6,4.69,4.69,0,0,0-1.05,2.87,2.81,2.81,0,0,1,2-.8,2.63,2.63,0,0,1,2.72,2.84A3,3,0,0,1,610.77,155.64Zm.06-5.08a2.6,2.6,0,0,0-1.86.88c0,.11,0,.21,0,.32,0,1.7.54,2.84,1.82,2.84s1.61-1.21,1.61-2.12S612,150.56,610.83,150.56Z"/><path class="cls-2" d="M622.31,155.21c0,.18-.08.29-.21.29h-.59c-.21,0-.29-.08-.29-.26v-.5a2.81,2.81,0,0,1-2,.9c-2,0-2.84-1.63-2.84-3.44,0-2,1.18-3.53,3-3.53a2.49,2.49,0,0,1,1.8.77v-3.36c0-.18,0-.27.22-.29l.74-.1c.14,0,.21.07.21.24Zm-1.17-4.64a2,2,0,0,0-1.63-1c-1.24,0-2,1-2,2.54s.65,2.55,1.85,2.55a2.35,2.35,0,0,0,1.74-.91Z"/><path class="cls-2" d="M686.58,155.19l-1.92-2.93h-.85v2.85a.35.35,0,0,1-.38.39H682c-.28,0-.39-.13-.39-.4v-8.71c0-.37.09-.46.46-.46h2.09a4.48,4.48,0,0,1,3.43,1,3.11,3.11,0,0,1,.74,2,3,3,0,0,1-1.64,2.82v0l2.26,3.22a.43.43,0,0,1,.08.24.2.2,0,0,1-.22.18H687.2A.64.64,0,0,1,686.58,155.19Zm-2.24-7.61h-.53v3h.69a1.44,1.44,0,0,0,1.62-1.55C686.12,148,685.38,147.58,684.34,147.58Z"/><path class="cls-2" d="M695.5,155.17c0,.23-.08.33-.3.33h-.61c-.25,0-.33-.1-.33-.33v-7.81l-2,1.23a.45.45,0,0,1-.19.07.19.19,0,0,1-.18-.11l-.28-.46a.33.33,0,0,1-.05-.15.29.29,0,0,1,.18-.24l2.53-1.58a.78.78,0,0,1,.51-.13h.45c.19,0,.27.11.27.32Z"/><path class="cls-2" d="M704.46,155.17c0,.23-.08.33-.3.33h-.61c-.24,0-.33-.1-.33-.33v-7.81l-2,1.23a.4.4,0,0,1-.19.07.19.19,0,0,1-.18-.11l-.27-.46a.36.36,0,0,1-.06-.15.31.31,0,0,1,.18-.24l2.54-1.58a.75.75,0,0,1,.51-.13h.44c.19,0,.27.11.27.32Z"/><path class="cls-2" d="M713.68,154.85a3.51,3.51,0,0,1-2.29.79,5.69,5.69,0,0,1-1.2-.17c-.17,0-.18-.14-.15-.29l.11-.5c0-.2.09-.2.25-.18a4.7,4.7,0,0,0,.91.1,2.23,2.23,0,0,0,1.62-.61,4.8,4.8,0,0,0,1-2.85,2.79,2.79,0,0,1-2,.8,2.62,2.62,0,0,1-2.7-2.84,3,3,0,0,1,2.94-3.27c2.36,0,3.14,1.94,3.14,4.18A6.59,6.59,0,0,1,713.68,154.85Zm-1.48-8c-1.18,0-1.6,1.18-1.6,2.13s.43,1.91,1.55,1.91A2.55,2.55,0,0,0,714,150c0-.08,0-.22,0-.33C714,148,713.49,146.86,712.2,146.86Z"/><path class="cls-2" d="M740.06,154.52a.46.46,0,0,1-.33.52,8.91,8.91,0,0,1-3.42.64c-2.77,0-4.54-2-4.54-4.93a4.69,4.69,0,0,1,4.72-5,6,6,0,0,1,2.72.59.3.3,0,0,1,.2.29.8.8,0,0,1,0,.18l-.41,1.08c-.06.15-.14.22-.24.22a.55.55,0,0,1-.23-.07,5.08,5.08,0,0,0-1.88-.42,2.34,2.34,0,0,0-1.71.72,3.4,3.4,0,0,0-.78,2.36c0,2.19,1.07,3.13,2.34,3.13a5.78,5.78,0,0,0,1.41-.14v-2.12H736.8a.33.33,0,0,1-.34-.36V150.1c0-.24.14-.34.37-.34h2.84c.27,0,.39.1.39.37Z"/><path class="cls-2" d="M747.12,155.17c0,.23-.08.33-.3.33h-.61c-.25,0-.33-.1-.33-.33v-7.81l-2,1.23a.45.45,0,0,1-.19.07.19.19,0,0,1-.18-.11l-.28-.46a.33.33,0,0,1-.05-.15.29.29,0,0,1,.18-.24l2.53-1.58a.78.78,0,0,1,.51-.13h.45c.19,0,.27.11.27.32Z"/><path class="cls-2" d="M756.08,155.17c0,.23-.08.33-.3.33h-.61c-.24,0-.33-.1-.33-.33v-7.81l-2,1.23a.4.4,0,0,1-.19.07.19.19,0,0,1-.18-.11l-.27-.46a.36.36,0,0,1-.06-.15.31.31,0,0,1,.18-.24l2.54-1.58a.75.75,0,0,1,.51-.13h.44c.19,0,.27.11.27.32Z"/><path class="cls-2" d="M763.63,155.64a5.06,5.06,0,0,1-2.35-.49c-.11-.05-.16-.12-.16-.19a.22.22,0,0,1,0-.1l.22-.58a.15.15,0,0,1,.16-.11l.13,0a4.57,4.57,0,0,0,1.87.42,1.84,1.84,0,0,0,2-1.89c0-1.3-1-1.87-2.26-1.87h-.4c-.18,0-.24-.09-.24-.25v-.46c0-.16,0-.24.23-.24h.4c1.14,0,1.91-.51,1.91-1.64,0-1-.7-1.45-1.67-1.45a3.71,3.71,0,0,0-1.68.47.33.33,0,0,1-.15.06c-.06,0-.1,0-.14-.14l-.22-.5a.54.54,0,0,1,0-.1c0-.06,0-.11.13-.16a4.44,4.44,0,0,1,2.31-.62,2.51,2.51,0,0,1,2.76,2.36,2.28,2.28,0,0,1-1.56,2.14,2.45,2.45,0,0,1,1.92,2.4A3,3,0,0,1,763.63,155.64Z"/><path class="cls-2" d="M787,155.5h-2.75c-.34,0-.42-.14-.42-.48v-8.69c0-.34.14-.4.46-.4h2.23c2.46,0,3.66.71,3.66,2.34a1.94,1.94,0,0,1-1.49,2h0a2.34,2.34,0,0,1,2.23,2.4C790.92,155,789,155.5,787,155.5Zm-.33-7.92H786v2.15h.52c1,0,1.51-.29,1.51-1.16C788,147.91,787.51,147.58,786.67,147.58Zm1.36,3.85a3.16,3.16,0,0,0-1.34-.19H786v2.58h.85a3.49,3.49,0,0,0,1.13-.14,1.13,1.13,0,0,0,.72-1.12A1.18,1.18,0,0,0,788,151.43Z"/><path class="cls-2" d="M797.71,155.17c0,.23-.09.33-.31.33h-.6c-.25,0-.34-.1-.34-.33v-7.81l-2,1.23a.37.37,0,0,1-.19.07.19.19,0,0,1-.18-.11l-.27-.46a.36.36,0,0,1-.06-.15.31.31,0,0,1,.18-.24l2.54-1.58A.75.75,0,0,1,797,146h.44c.19,0,.28.11.28.32Z"/><path class="cls-2" d="M805.57,155.64c-2.5,0-3.26-2.69-3.26-4.89s.83-4.92,3.3-4.92,3.24,2.69,3.24,4.88S808.06,155.64,805.57,155.64Zm0-8.74c-1.57,0-1.94,2.21-1.94,3.83s.36,3.82,1.93,3.82,1.93-2.21,1.93-3.82S807.12,146.9,805.59,146.9Z"/><path class="cls-2" d="M815.88,154.85a3.47,3.47,0,0,1-2.29.79,5.69,5.69,0,0,1-1.2-.17c-.16,0-.18-.14-.15-.29l.11-.5c0-.2.1-.2.25-.18a4.78,4.78,0,0,0,.91.1,2.25,2.25,0,0,0,1.63-.61,4.8,4.8,0,0,0,1-2.85,2.8,2.8,0,0,1-2,.8,2.62,2.62,0,0,1-2.71-2.84,3,3,0,0,1,2.94-3.27c2.36,0,3.15,1.94,3.15,4.18A6.56,6.56,0,0,1,815.88,154.85Zm-1.47-8c-1.19,0-1.6,1.18-1.6,2.13s.42,1.91,1.54,1.91a2.57,2.57,0,0,0,1.88-.88c0-.08,0-.22,0-.33C816.24,148,815.69,146.86,814.41,146.86Z"/><rect class="cls-2" x="651.51" y="139.94" width="1.07" height="22.42"/><path class="cls-2" d="M569.72,250.73c0,.16-.09.2-.26.2H568l-.29,1.92h1.44c.16,0,.19.06.19.17v.08l0,.47c0,.19-.11.22-.29.22h-1.47l-.38,2.49c0,.18-.11.25-.35.25h-.56c-.17,0-.22,0-.22-.15a.57.57,0,0,1,0-.12l.42-2.47h-1.94l-.41,2.47c0,.19-.08.27-.36.27h-.52c-.2,0-.25,0-.25-.18a.53.53,0,0,1,0-.12l.39-2.44H562c-.16,0-.2-.07-.2-.17s0-.05,0-.09l.07-.46c0-.16.08-.22.33-.22h1.35l.29-1.92h-1.43c-.14,0-.2-.07-.2-.16s0-.06,0-.09l.07-.46c0-.16.07-.2.25-.2H564l.42-2.78c0-.16.06-.21.2-.21h.69c.18,0,.22,0,.22.15a.76.76,0,0,1,0,.14l-.42,2.7H567l.43-2.77c0-.18.08-.22.25-.22h.66c.16,0,.22.05.22.16s0,.06,0,.1l-.4,2.73h1.44c.11,0,.18,0,.18.14v0Zm-2.82.2H565l-.3,1.92h1.9Z"/><path class="cls-2" d="M577.39,253c0,.32,0,.38-.41.38h-4.24a2.17,2.17,0,0,0,2.18,2.34,4.9,4.9,0,0,0,1.66-.29c.12,0,.26-.07.3.09l.15.51c0,.13,0,.18-.15.25a5.46,5.46,0,0,1-2.11.4c-2.12,0-3.25-1.39-3.25-3.48a3.19,3.19,0,0,1,3.21-3.47,2.55,2.55,0,0,1,1.88.76,3.17,3.17,0,0,1,.78,2.27Zm-1.16-.42v-.19a1.56,1.56,0,0,0-1.56-1.75,2,2,0,0,0-1.9,1.94Z"/><path class="cls-2" d="M586,256.23c0,.19-.08.3-.33.3h-5.2c-.23,0-.3-.08-.3-.3v-.46a.49.49,0,0,1,.16-.41c.73-.77,1.56-1.53,2.27-2.29,1.31-1.41,2.08-2.51,2.08-3.56A1.51,1.51,0,0,0,583,248a4,4,0,0,0-2,.58.25.25,0,0,1-.14,0c-.08,0-.13,0-.19-.16l-.21-.44a.56.56,0,0,1,0-.15.31.31,0,0,1,.15-.23,5,5,0,0,1,2.58-.73,2.54,2.54,0,0,1,2.8,2.53c0,1.43-.87,2.63-2.56,4.4-.55.58-1.13,1.14-1.67,1.68h3.9c.24,0,.33.07.33.28Z"/><path class="cls-2" d="M594.62,253c0,.32-.06.38-.42.38H590a2.16,2.16,0,0,0,2.18,2.34,4.88,4.88,0,0,0,1.65-.29c.13,0,.27-.07.31.09l.15.51c0,.13,0,.18-.15.25a5.53,5.53,0,0,1-2.11.4c-2.13,0-3.26-1.39-3.26-3.48a3.19,3.19,0,0,1,3.22-3.47,2.53,2.53,0,0,1,1.87.76,3.18,3.18,0,0,1,.79,2.27Zm-1.16-.42v-.19a1.56,1.56,0,0,0-1.56-1.75,2,2,0,0,0-1.9,1.94Z"/><path class="cls-2" d="M601.33,256.2c0,.24-.08.33-.3.33h-.61c-.25,0-.33-.09-.33-.33v-7.81l-2,1.23a.45.45,0,0,1-.19.07.19.19,0,0,1-.18-.11l-.28-.45a.58.58,0,0,1-.05-.16c0-.08.05-.16.18-.23l2.54-1.59a.75.75,0,0,1,.51-.12h.44c.19,0,.27.11.27.32Z"/><path class="cls-2" d="M611.84,253c0,.32-.05.38-.41.38h-4.24a2.17,2.17,0,0,0,2.18,2.34,4.9,4.9,0,0,0,1.66-.29c.12,0,.26-.07.3.09l.15.51c0,.13,0,.18-.15.25a5.46,5.46,0,0,1-2.11.4c-2.12,0-3.25-1.39-3.25-3.48a3.19,3.19,0,0,1,3.21-3.47,2.55,2.55,0,0,1,1.88.76,3.17,3.17,0,0,1,.78,2.27Zm-1.16-.42v-.19a1.56,1.56,0,0,0-1.56-1.75,2,2,0,0,0-1.9,1.94Z"/><path class="cls-2" d="M617.45,256.67c-2.49,0-3.25-2.69-3.25-4.88s.83-4.93,3.3-4.93,3.24,2.69,3.24,4.89S620,256.67,617.45,256.67Zm0-8.73c-1.57,0-1.94,2.21-1.94,3.82s.36,3.82,1.93,3.82,1.93-2.21,1.93-3.82S619,247.94,617.48,247.94Z"/><path class="cls-2" d="M686.58,256.23l-1.92-2.94h-.85v2.86a.34.34,0,0,1-.38.38H682c-.28,0-.39-.12-.39-.4v-8.7c0-.37.09-.47.46-.47h2.09a4.52,4.52,0,0,1,3.43,1,3.16,3.16,0,0,1,.74,2.06,3,3,0,0,1-1.64,2.81v0l2.26,3.23a.38.38,0,0,1,.08.23c0,.13-.11.18-.22.18H687.2A.65.65,0,0,1,686.58,256.23Zm-2.24-7.61h-.53v3h.69a1.45,1.45,0,0,0,1.62-1.56C686.12,249,685.38,248.62,684.34,248.62Z"/><path class="cls-2" d="M697.38,256.23c0,.19-.09.3-.33.3h-5.2c-.24,0-.31-.08-.31-.3v-.46a.47.47,0,0,1,.17-.41c.73-.77,1.56-1.53,2.26-2.29,1.31-1.41,2.08-2.51,2.08-3.56A1.51,1.51,0,0,0,694.4,248a4.07,4.07,0,0,0-2,.58.24.24,0,0,1-.13,0c-.09,0-.14,0-.2-.16l-.2-.44a.34.34,0,0,1,0-.15.28.28,0,0,1,.15-.23,5,5,0,0,1,2.58-.73,2.54,2.54,0,0,1,2.8,2.53c0,1.43-.87,2.63-2.57,4.4-.55.58-1.13,1.14-1.67,1.68h3.91c.23,0,.33.07.33.28Z"/><path class="cls-2" d="M706.34,256.23c0,.19-.08.3-.33.3h-5.2c-.23,0-.3-.08-.3-.3v-.46a.46.46,0,0,1,.16-.41c.73-.77,1.56-1.53,2.26-2.29,1.31-1.41,2.09-2.51,2.09-3.56a1.51,1.51,0,0,0-1.66-1.56,4,4,0,0,0-2,.58.3.3,0,0,1-.14,0c-.08,0-.14,0-.19-.16l-.21-.44a.34.34,0,0,1,0-.15.31.31,0,0,1,.15-.23,5,5,0,0,1,2.58-.73,2.54,2.54,0,0,1,2.8,2.53c0,1.43-.87,2.63-2.56,4.4-.56.58-1.14,1.14-1.67,1.68H706c.23,0,.33.07.33.28Z"/><path class="cls-2" d="M712.49,256.67c-2.36,0-3.13-1.94-3.13-4.18a6.65,6.65,0,0,1,1.61-4.76,3.37,3.37,0,0,1,2.32-.87,5.11,5.11,0,0,1,1.23.17c.18,0,.18.19.15.33l-.09.46c-.05.17-.14.2-.29.17a5.85,5.85,0,0,0-1-.09,2.07,2.07,0,0,0-1.51.59,4.87,4.87,0,0,0-1,2.87,2.84,2.84,0,0,1,2-.8,2.62,2.62,0,0,1,2.71,2.84A3,3,0,0,1,712.49,256.67Zm.07-5.08a2.62,2.62,0,0,0-1.86.89c0,.11,0,.2,0,.31,0,1.7.54,2.85,1.83,2.85s1.61-1.22,1.61-2.13S713.69,251.59,712.56,251.59Z"/><path class="cls-2" d="M740.06,255.55a.47.47,0,0,1-.33.53,8.92,8.92,0,0,1-3.42.63c-2.77,0-4.54-2-4.54-4.92a4.7,4.7,0,0,1,4.72-5,6,6,0,0,1,2.72.6.3.3,0,0,1,.2.29,1.16,1.16,0,0,1,0,.18l-.41,1.07c-.06.15-.14.22-.24.22a.55.55,0,0,1-.23-.07,5.09,5.09,0,0,0-1.88-.41,2.3,2.3,0,0,0-1.71.72,3.39,3.39,0,0,0-.78,2.36c0,2.19,1.07,3.13,2.34,3.13a6.33,6.33,0,0,0,1.41-.14v-2.13H736.8a.32.32,0,0,1-.34-.35v-1.08c0-.25.14-.35.37-.35h2.84c.27,0,.39.1.39.38Z"/><path class="cls-2" d="M749,256.23c0,.19-.09.3-.33.3h-5.2c-.24,0-.31-.08-.31-.3v-.46a.47.47,0,0,1,.17-.41c.73-.77,1.56-1.53,2.26-2.29,1.31-1.41,2.08-2.51,2.08-3.56A1.51,1.51,0,0,0,746,248a4.07,4.07,0,0,0-2,.58.24.24,0,0,1-.13,0c-.09,0-.14,0-.2-.16l-.2-.44a.34.34,0,0,1,0-.15.28.28,0,0,1,.15-.23,5,5,0,0,1,2.58-.73,2.54,2.54,0,0,1,2.8,2.53c0,1.43-.87,2.63-2.57,4.4-.55.58-1.13,1.14-1.67,1.68h3.91c.23,0,.33.07.33.28Z"/><path class="cls-2" d="M758,256.23c0,.19-.08.3-.33.3h-5.2c-.23,0-.3-.08-.3-.3v-.46a.46.46,0,0,1,.16-.41c.73-.77,1.56-1.53,2.26-2.29,1.31-1.41,2.09-2.51,2.09-3.56A1.51,1.51,0,0,0,755,248a4,4,0,0,0-2,.58.3.3,0,0,1-.14,0c-.08,0-.14,0-.19-.16l-.21-.44a.34.34,0,0,1,0-.15.31.31,0,0,1,.15-.23,5,5,0,0,1,2.58-.73,2.54,2.54,0,0,1,2.8,2.53c0,1.43-.87,2.63-2.56,4.4-.56.58-1.14,1.14-1.67,1.68h3.9c.23,0,.33.07.33.28Z"/><path class="cls-2" d="M763.59,256.67a5,5,0,0,1-2.22-.56c-.16-.09-.21-.14-.21-.23a.34.34,0,0,1,0-.15l.22-.51c0-.11.1-.15.17-.15a.53.53,0,0,1,.2.07,4,4,0,0,0,1.88.47,1.85,1.85,0,0,0,2-1.92,2,2,0,0,0-.59-1.5,3.2,3.2,0,0,0-2.13-.6h-.87a.36.36,0,0,1-.41-.41v-3.83c0-.24.1-.32.3-.32h4.21c.21,0,.32.07.32.29v.48c0,.21-.06.28-.29.28h-3.3v2.56h.42c1.94,0,3.65.86,3.65,3C767,255.57,765.5,256.67,763.59,256.67Z"/><path class="cls-2" d="M787,256.53h-2.75c-.34,0-.42-.13-.42-.48v-8.69c0-.33.14-.4.46-.4h2.23c2.46,0,3.66.72,3.66,2.35a1.94,1.94,0,0,1-1.49,2v0a2.33,2.33,0,0,1,2.23,2.4C790.92,256,789,256.53,787,256.53Zm-.33-7.91H786v2.15h.52c1,0,1.51-.29,1.51-1.16C788,249,787.51,248.62,786.67,248.62Zm1.36,3.84a3.16,3.16,0,0,0-1.34-.19H786v2.58h.85a3.51,3.51,0,0,0,1.13-.13,1.15,1.15,0,0,0,.72-1.12A1.19,1.19,0,0,0,788,252.46Z"/><path class="cls-2" d="M799.58,256.23c0,.19-.08.3-.33.3h-5.2c-.23,0-.3-.08-.3-.3v-.46a.49.49,0,0,1,.16-.41c.73-.77,1.56-1.53,2.26-2.29,1.32-1.41,2.09-2.51,2.09-3.56A1.51,1.51,0,0,0,796.6,248a4,4,0,0,0-2,.58.27.27,0,0,1-.14,0c-.08,0-.14,0-.19-.16l-.21-.44a.34.34,0,0,1,0-.15.31.31,0,0,1,.15-.23,5,5,0,0,1,2.58-.73,2.54,2.54,0,0,1,2.8,2.53c0,1.43-.87,2.63-2.56,4.4-.56.58-1.13,1.14-1.67,1.68h3.9c.24,0,.33.07.33.28Z"/><path class="cls-2" d="M808.55,256.23c0,.19-.09.3-.34.3H803c-.23,0-.3-.08-.3-.3v-.46a.47.47,0,0,1,.17-.41c.73-.77,1.56-1.53,2.26-2.29,1.31-1.41,2.08-2.51,2.08-3.56a1.51,1.51,0,0,0-1.65-1.56,4,4,0,0,0-2,.58.24.24,0,0,1-.13,0c-.09,0-.14,0-.2-.16l-.2-.44a.37.37,0,0,1,0-.15c0-.09.06-.16.16-.23a5,5,0,0,1,2.58-.73,2.54,2.54,0,0,1,2.8,2.53c0,1.43-.87,2.63-2.57,4.4-.55.58-1.13,1.14-1.67,1.68h3.9c.24,0,.34.07.34.28Z"/><path class="cls-2" d="M815.28,247c.11,0,.15,0,.15.12a.52.52,0,0,1-.06.22l-2.63,5.89h3.39v-2.2c0-.22.11-.27.29-.27h.68c.19,0,.27.06.27.27v5.21c0,.19-.08.26-.25.26h-.71c-.18,0-.28-.07-.28-.27v-1.93h-4.47c-.25,0-.3-.13-.3-.33v-.34a1.27,1.27,0,0,1,.15-.58l2.64-5.77c.06-.16.15-.28.34-.28Z"/><rect class="cls-2" x="651.51" y="240.98" width="1.07" height="22.42"/><path class="cls-1" d="M909.61,154a5.26,5.26,0,0,1-2.12.44c-2.24,0-3.33-1.58-3.33-3.77s1.31-3.85,3.44-3.85a4.45,4.45,0,0,1,2,.45c.12.06.17.12.17.18a.44.44,0,0,1,0,.14l-.25.67c0,.09-.08.13-.15.13a.3.3,0,0,1-.11,0,3.27,3.27,0,0,0-1.54-.38c-1.48,0-2.05,1.36-2.05,2.64,0,1.64.76,2.68,2.07,2.68a3.81,3.81,0,0,0,1.53-.34l.12,0c.08,0,.13,0,.17.16l.22.57a.44.44,0,0,1,0,.15C909.78,153.84,909.74,153.9,909.61,154Z"/><path class="cls-1" d="M924.2,154.39c-2,0-3.19-1.48-3.19-3.78s1.27-3.84,3.27-3.84,3.19,1.6,3.19,3.77C927.47,152.94,926.1,154.39,924.2,154.39Zm0-6.46c-1.06,0-1.77,1-1.77,2.65s.65,2.65,1.77,2.65,1.77-.92,1.77-2.65S925.38,147.93,924.24,147.93Z"/><path class="cls-1" d="M943.5,154c0,.19-.09.25-.25.25h-3.78c-.19,0-.28-.06-.28-.3v-6.78a.24.24,0,0,1,.26-.27h.84c.2,0,.27.08.27.28v5.93h2.69a.22.22,0,0,1,.25.25Z"/><path class="cls-1" d="M957.37,154.39c-2,0-3.19-1.48-3.19-3.78s1.27-3.84,3.27-3.84,3.2,1.6,3.2,3.77C960.65,152.94,959.28,154.39,957.37,154.39Zm0-6.46c-1.06,0-1.78,1-1.78,2.65s.65,2.65,1.78,2.65,1.76-.92,1.76-2.65S958.55,147.93,957.42,147.93Z"/><path class="cls-1" d="M977.46,154.26h-1a.41.41,0,0,1-.41-.21l-1.53-2.5h-.82V154c0,.16-.06.27-.24.27h-.87c-.18,0-.26-.08-.26-.27v-6.77c0-.23,0-.31.29-.31h1.57a3.18,3.18,0,0,1,2.46.79,2.35,2.35,0,0,1-.86,3.6l1.75,2.68a.37.37,0,0,1,0,.15C977.62,154.22,977.56,154.26,977.46,154.26Zm-3.2-6.31h-.53v2.57h.66a1.25,1.25,0,0,0,1.41-1.31C975.8,148.28,975.19,148,974.26,148Z"/><path class="cls-1" d="M1004.24,151.68l-.64,0V154c0,.15-.06.25-.26.25h-.85c-.17,0-.26-.07-.26-.29V147.2c0-.21.07-.29.27-.29H1004a3.08,3.08,0,0,1,2.47.81,2.29,2.29,0,0,1,.53,1.51C1007,150.87,1005.8,151.68,1004.24,151.68Zm-.09-3.71h-.55v2.64h.63c.9,0,1.43-.43,1.43-1.34S1005.07,148,1004.15,148Z"/><path class="cls-1" d="M1018.26,154.26h-.94c-.11,0-.15,0-.15-.14a.23.23,0,0,1,0-.11l2.59-6.89a.29.29,0,0,1,.29-.21h.85a.28.28,0,0,1,.29.19l2.61,6.85a.39.39,0,0,1,0,.14c0,.11-.06.17-.19.17h-.95a.32.32,0,0,1-.36-.25l-.55-1.57h-2.69l-.55,1.6A.27.27,0,0,1,1018.26,154.26Zm3.17-2.85-.76-2.24-.21-.69h0c-.05.18-.12.41-.22.7l-.76,2.23Z"/><path class="cls-1" d="M1039.52,154c0,.19-.1.25-.26.25h-3.78c-.19,0-.28-.06-.28-.3v-6.78a.24.24,0,0,1,.26-.27h.85c.19,0,.26.08.26.28v5.93h2.69c.18,0,.26.09.26.25Z"/><path class="cls-1" d="M1055.43,154c0,.17-.08.25-.26.25h-3.94c-.21,0-.28,0-.28-.29v-6.79c0-.17.07-.27.24-.27h4c.21,0,.24.1.22.25l-.08.63c0,.19-.13.23-.36.23h-2.66v1.92h2.45c.2,0,.27.08.27.23v.61c0,.18-.08.25-.26.25h-2.46v2.13h2.84c.18,0,.27.07.27.24Z"/><path class="cls-1" d="M1072.39,147.79c0,.18-.14.23-.33.23h-1.92v6c0,.2,0,.24-.22.24H1069c-.19,0-.22,0-.22-.23v-6h-2c-.18,0-.24-.08-.24-.26v-.63c0-.15.07-.22.23-.22h5.38c.27,0,.35.09.33.27Z"/><path class="cls-1" d="M1089,147.79c0,.18-.13.23-.32.23h-1.93v6c0,.2,0,.24-.22.24h-.93c-.2,0-.23,0-.23-.23v-6h-2c-.18,0-.25-.08-.25-.26v-.63c0-.15.08-.22.24-.22h5.37c.28,0,.35.09.33.27Z"/><path class="cls-1" d="M1104.87,154c0,.17-.07.25-.25.25h-3.94c-.21,0-.29,0-.29-.29v-6.79c0-.17.08-.27.25-.27h4c.21,0,.24.1.22.25l-.07.63c0,.19-.14.23-.36.23h-2.67v1.92h2.46c.2,0,.26.08.26.23v.61c0,.18-.07.25-.25.25h-2.47v2.13h2.85c.18,0,.26.07.26.24Z"/><polygon class="cls-4" points="43.6 64.39 56.28 75.8 65.17 21.87 43.6 64.39"/><path class="cls-4" d="M66.18,21.94,57.12,76.86a.46.46,0,0,1-.49.41l17.91-.75Z"/><polygon class="cls-4" points="87.92 65.28 67.2 22.01 75.4 75.56 87.92 65.28"/><polygon class="cls-5" points="43.6 166.55 56.28 177.95 65.17 124.02 43.6 166.55"/><path class="cls-5" d="M66.18,124.09,57.12,179a.49.49,0,0,1-.32.39.51.51,0,0,1-.17,0l17.91-.75Z"/><polygon class="cls-5" points="87.92 167.43 67.2 124.16 75.4 177.71 87.92 167.43"/></svg>