<svg id="Layer_1" data-name="Layer 1" xmlns="http://www.w3.org/2000/svg" viewBox="0 0 192.99 209.03"><defs><style>.cls-1{fill:#3a0a00;}</style></defs><path class="cls-1" d="M53.52,65.38h4.11L68,78.9V69.11a3.11,3.11,0,0,0-.68-2.19,2.5,2.5,0,0,0-1.83-.67v-.87h6v.87a2.94,2.94,0,0,0-1.38.26,2.07,2.07,0,0,0-.79.93A3.18,3.18,0,0,0,69,68.91V82.59H67.92L57.17,68.51V78.9a2.82,2.82,0,0,0,.71,2.1,3.12,3.12,0,0,0,2.2.71v.88H53.52v-.88a2.77,2.77,0,0,0,2-.8A2.62,2.62,0,0,0,56.2,79V67.39L56,67.16a3.76,3.76,0,0,0-.82-.75,2,2,0,0,0-.87-.16h-.78Z"/><path class="cls-1" d="M84.26,81.39l.42.65a2.57,2.57,0,0,1-1.88.87,2,2,0,0,1-1.33-.43,3.41,3.41,0,0,1-1-1.51,6.93,6.93,0,0,1-2,1.55,4.68,4.68,0,0,1-2,.39A3.92,3.92,0,0,1,74,82.19a2.3,2.3,0,0,1-.87-1.85,3.27,3.27,0,0,1,2-2.82A14.09,14.09,0,0,1,80.45,76V74.37a2,2,0,0,0-.71-1.51,2.63,2.63,0,0,0-1.81-.63,3.45,3.45,0,0,0-1.74.42c-.35.21-.52.41-.52.62a1.13,1.13,0,0,0,.27.54,1.45,1.45,0,0,1,.34.83,1.12,1.12,0,0,1-.34.85,1.17,1.17,0,0,1-.88.34,1.32,1.32,0,0,1-1-.4,1.37,1.37,0,0,1-.39-1A2.66,2.66,0,0,1,75,72.31a5.64,5.64,0,0,1,3.4-1,4.59,4.59,0,0,1,3,.84,2.58,2.58,0,0,1,1,2.06v5.95a2.11,2.11,0,0,0,.26,1.17.77.77,0,0,0,.66.38A1.59,1.59,0,0,0,84.26,81.39Zm-3.81-4.6a9.44,9.44,0,0,0-4.19,1.33,2.33,2.33,0,0,0-.92,2,2,2,0,0,0,.48,1.4,1.61,1.61,0,0,0,1.24.51A3.18,3.18,0,0,0,79.44,81a3.6,3.6,0,0,0,1-2.61Z"/><path class="cls-1" d="M88.87,67.24h.78v4.44h3.53v1.07H89.65v7a2.06,2.06,0,0,0,.43,1.39,1.41,1.41,0,0,0,1.1.48,1.67,1.67,0,0,0,1.35-.73,4.5,4.5,0,0,0,.65-2.42H94a5.11,5.11,0,0,1-1,3.23,3,3,0,0,1-2.39,1A2.92,2.92,0,0,1,88.47,82a2.57,2.57,0,0,1-.76-1.94V72.75h-1.9v-.81a3.1,3.1,0,0,0,2-1.08A6.11,6.11,0,0,0,88.87,67.24Z"/><path class="cls-1" d="M99,71.49v7.22a2.88,2.88,0,0,0,.67,2.05,2.23,2.23,0,0,0,1.72.72,2.82,2.82,0,0,0,2.21-1,3.87,3.87,0,0,0,.91-2.64V73.71a1,1,0,0,0-.4-.87,2.87,2.87,0,0,0-1.54-.34v-.82l3.83-.19v8.94a1.25,1.25,0,0,0,.35.95,1.37,1.37,0,0,0,1,.33h.68v.78l-3.66.09-.24-2.15a7.89,7.89,0,0,1-2,1.74,3.87,3.87,0,0,1-2,.58,3.36,3.36,0,0,1-2.47-1,4.47,4.47,0,0,1-1-3.32V73.71a1.09,1.09,0,0,0-.5-1,3.08,3.08,0,0,0-1.44-.25v-.82Z"/><path class="cls-1" d="M109.66,71.68l3.92-.19V75.9a9.8,9.8,0,0,1,1.51-3.3,2.7,2.7,0,0,1,2.19-1.11,1.88,1.88,0,0,1,1.41.54,2,2,0,0,1,.53,1.45,1.74,1.74,0,0,1-.35,1.14,1.14,1.14,0,0,1-.89.4,1.09,1.09,0,0,1-.85-.35,1.34,1.34,0,0,1-.32-.94A1.44,1.44,0,0,1,117,73a1.48,1.48,0,0,0,.17-.36c0-.12-.07-.17-.22-.17a1.69,1.69,0,0,0-1.08.55,5,5,0,0,0-1.29,2.14,11.47,11.47,0,0,0-.7,3.39V80.9a.72.72,0,0,0,.28.61,1.72,1.72,0,0,0,1,.2h1.39v.88h-6.77v-.88h1.08a1.34,1.34,0,0,0,.82-.21.63.63,0,0,0,.28-.52V74a1.68,1.68,0,0,0-.33-1.15,1.24,1.24,0,0,0-1-.37h-1Z"/><path class="cls-1" d="M131.93,81.39l.42.65a2.6,2.6,0,0,1-1.89.87,2,2,0,0,1-1.33-.43,3.41,3.41,0,0,1-.95-1.51,6.91,6.91,0,0,1-1.94,1.55,4.76,4.76,0,0,1-2,.39,3.9,3.9,0,0,1-2.54-.72,2.28,2.28,0,0,1-.88-1.85,3.27,3.27,0,0,1,2-2.82,14.09,14.09,0,0,1,5.31-1.5V74.37a2,2,0,0,0-.71-1.51,2.6,2.6,0,0,0-1.8-.63,3.46,3.46,0,0,0-1.75.42c-.35.21-.52.41-.52.62a1.09,1.09,0,0,0,.28.54,1.53,1.53,0,0,1,.34.83,1.15,1.15,0,0,1-.34.85,1.19,1.19,0,0,1-.89.34,1.34,1.34,0,0,1-1-.4,1.37,1.37,0,0,1-.39-1,2.66,2.66,0,0,1,1.3-2.11,5.64,5.64,0,0,1,3.4-1,4.57,4.57,0,0,1,3,.84,2.58,2.58,0,0,1,1,2.06v5.95a2.11,2.11,0,0,0,.26,1.17.77.77,0,0,0,.66.38A1.62,1.62,0,0,0,131.93,81.39Zm-3.82-4.6a9.44,9.44,0,0,0-4.19,1.33,2.33,2.33,0,0,0-.92,2,2,2,0,0,0,.48,1.4,1.62,1.62,0,0,0,1.24.51A3.18,3.18,0,0,0,127.1,81a3.56,3.56,0,0,0,1-2.61Z"/><path class="cls-1" d="M137.78,65.18V81a.63.63,0,0,0,.2.5,1.06,1.06,0,0,0,.71.23h1.15v.88h-6.18v-.88h1.1a1.09,1.09,0,0,0,.79-.25.94.94,0,0,0,.26-.72V67.47a1.05,1.05,0,0,0-.31-.85,1.56,1.56,0,0,0-1.06-.37h-1v-.87Z"/><path class="cls-1" d="M53.15,100.28l3.92-.2v4.41a9.73,9.73,0,0,1,1.51-3.29,2.71,2.71,0,0,1,2.19-1.12,1.85,1.85,0,0,1,1.41.55,1.94,1.94,0,0,1,.53,1.44,1.66,1.66,0,0,1-.35,1.14,1.11,1.11,0,0,1-.89.41,1.05,1.05,0,0,1-.84-.35,1.29,1.29,0,0,1-.32-.94,1.48,1.48,0,0,1,.18-.72,1.32,1.32,0,0,0,.18-.36c0-.12-.08-.18-.23-.18a1.76,1.76,0,0,0-1.08.56,5,5,0,0,0-1.29,2.14,11.74,11.74,0,0,0-.7,3.39v2.34a.72.72,0,0,0,.28.6,1.66,1.66,0,0,0,1,.21H60v.88H53.22v-.88H54.3a1.37,1.37,0,0,0,.83-.21.67.67,0,0,0,.28-.52v-7a1.73,1.73,0,0,0-.34-1.16,1.28,1.28,0,0,0-1-.36h-1Z"/><path class="cls-1" d="M69,100a4.91,4.91,0,0,1,3.7,1.58,5.86,5.86,0,0,1,1.49,4.19,6.39,6.39,0,0,1-.67,3,5,5,0,0,1-1.9,2,5.16,5.16,0,0,1-2.67.73,4.67,4.67,0,0,1-3.59-1.6,6.63,6.63,0,0,1,0-8.35A4.76,4.76,0,0,1,69,100Zm0,.82A2.56,2.56,0,0,0,66.9,102a6.54,6.54,0,0,0-.83,3.73,6.75,6.75,0,0,0,.83,3.8,2.51,2.51,0,0,0,2.14,1.2,2.58,2.58,0,0,0,2.21-1.2,7,7,0,0,0,.84-3.92,6.22,6.22,0,0,0-.83-3.66A2.62,2.62,0,0,0,69,100.78Z"/><path class="cls-1" d="M87.34,110l.42.65a2.6,2.6,0,0,1-1.89.87,2,2,0,0,1-1.33-.43,3.47,3.47,0,0,1-1-1.51,7.1,7.1,0,0,1-1.94,1.55,4.76,4.76,0,0,1-2,.39,4,4,0,0,1-2.55-.72,2.3,2.3,0,0,1-.87-1.85,3.27,3.27,0,0,1,2-2.82,14.09,14.09,0,0,1,5.31-1.5V103a2,2,0,0,0-.71-1.51,2.6,2.6,0,0,0-1.8-.63,3.46,3.46,0,0,0-1.75.42c-.35.21-.52.41-.52.61a1.1,1.1,0,0,0,.28.55,1.5,1.5,0,0,1,.33.83,1.15,1.15,0,0,1-.33.85,1.22,1.22,0,0,1-.89.33,1.31,1.31,0,0,1-1-.39,1.37,1.37,0,0,1-.39-1,2.66,2.66,0,0,1,1.3-2.11,5.57,5.57,0,0,1,3.4-1,4.63,4.63,0,0,1,3,.83,2.61,2.61,0,0,1,1,2.06v6a2.11,2.11,0,0,0,.26,1.17.77.77,0,0,0,.66.38A1.64,1.64,0,0,0,87.34,110Zm-3.82-4.6a9.32,9.32,0,0,0-4.19,1.33,2.33,2.33,0,0,0-.92,2,2,2,0,0,0,.48,1.4,1.65,1.65,0,0,0,1.24.5,3.17,3.17,0,0,0,2.38-1,3.6,3.6,0,0,0,1-2.61Z"/><path class="cls-1" d="M90.39,107.08A6.37,6.37,0,0,0,92,109.86a3.51,3.51,0,0,0,2.31.78,3.06,3.06,0,0,0,2-.55,1.72,1.72,0,0,0,.68-1.41,1.47,1.47,0,0,0-.94-1.4,16.3,16.3,0,0,0-2.3-.53,9.69,9.69,0,0,1-2.47-.73A2.85,2.85,0,0,1,90.18,105a2.89,2.89,0,0,1-.39-1.47,3.31,3.31,0,0,1,.81-2.17,3.56,3.56,0,0,1,2.9-1.25,4.32,4.32,0,0,1,2.63.9l.77-.82h.48l.3,3.89H96.9a4.88,4.88,0,0,0-1.39-2.38,3.27,3.27,0,0,0-2.15-.73,2.59,2.59,0,0,0-1.74.54A1.71,1.71,0,0,0,91,102.8a1.4,1.4,0,0,0,.58,1.14,5.13,5.13,0,0,0,2.24.73,16.77,16.77,0,0,1,2.52.55,3,3,0,0,1,1.48,1.08,2.92,2.92,0,0,1,.52,1.77,3.15,3.15,0,0,1-1.13,2.44,4.2,4.2,0,0,1-2.89,1,4.81,4.81,0,0,1-3-1.07l-.85,1h-.62l-.23-4.34Z"/><path class="cls-1" d="M103,95.84h.78v4.44h3.52v1.07h-3.52v7a2,2,0,0,0,.43,1.39,1.39,1.39,0,0,0,1.09.48,1.64,1.64,0,0,0,1.35-.73,4.5,4.5,0,0,0,.65-2.42h.78a5.13,5.13,0,0,1-1,3.23,3,3,0,0,1-2.38,1,2.94,2.94,0,0,1-2.12-.74,2.61,2.61,0,0,1-.76-1.94v-7.32H99.92v-.81a3.07,3.07,0,0,0,2-1.08A6.2,6.2,0,0,0,103,95.84Z"/><path class="cls-1" d="M119.6,105.81h-7.8a5.68,5.68,0,0,0,.93,3.51,3.21,3.21,0,0,0,2.55,1.16q2.28,0,3.66-2.6l.76.33a5.32,5.32,0,0,1-4.91,3.3,4.9,4.9,0,0,1-3.69-1.58,5.7,5.7,0,0,1-1.49-4.05,6.17,6.17,0,0,1,1.47-4.29,4.68,4.68,0,0,1,3.63-1.63,4.63,4.63,0,0,1,2.73.81,4.82,4.82,0,0,1,1.73,2.34A7.63,7.63,0,0,1,119.6,105.81Zm-7.8-.83h4.72a.78.78,0,0,0,.65-.28,1.53,1.53,0,0,0,.24-1,3.17,3.17,0,0,0-.8-2.18,2.44,2.44,0,0,0-1.88-.9,2.52,2.52,0,0,0-2,1.09A5.28,5.28,0,0,0,111.8,105Z"/><path class="cls-1" d="M127.47,94l4.26-.2V108.7a1.86,1.86,0,0,0,.33,1.24,1.26,1.26,0,0,0,1,.37h.75v.88h-3.72l-.28-2.23a5.12,5.12,0,0,1-1.55,1.79,3.51,3.51,0,0,1-2,.6,4,4,0,0,1-3.17-1.56,6.21,6.21,0,0,1-1.31-4.12,5.91,5.91,0,0,1,1.68-4.42,4.17,4.17,0,0,1,3-1.29,3.43,3.43,0,0,1,1.88.52,4.47,4.47,0,0,1,1.45,1.58V95.91a.93.93,0,0,0-.38-.78,2,2,0,0,0-1.18-.28h-.78Zm-.67,6.94a2.33,2.33,0,0,0-2,1,6.22,6.22,0,0,0-.74,3.49,6.78,6.78,0,0,0,.76,3.75,2.26,2.26,0,0,0,1.94,1.09,2.64,2.64,0,0,0,2.17-1.22,5.9,5.9,0,0,0,.9-3.55,5.62,5.62,0,0,0-1-3.48A2.5,2.5,0,0,0,126.8,100.92Z"/><path class="cls-1" d="M61.65,136.55l.76.22c-.6,2.23-1.94,3.34-4,3.34a4.92,4.92,0,0,1-3.71-1.5,5.48,5.48,0,0,1-1.45-4,6.05,6.05,0,0,1,1.59-4.48,5.06,5.06,0,0,1,3.72-1.59,4,4,0,0,1,2.65.89,2.55,2.55,0,0,1,1,2,1.52,1.52,0,0,1-.39,1.07,1.23,1.23,0,0,1-.92.43,1.21,1.21,0,0,1-.89-.36,1.19,1.19,0,0,1-.36-.87,1.47,1.47,0,0,1,.4-1,.61.61,0,0,0,.18-.35.86.86,0,0,0-.45-.65,2.15,2.15,0,0,0-1.24-.32,2.49,2.49,0,0,0-2.15,1,6.77,6.77,0,0,0-1,4,5.68,5.68,0,0,0,.94,3.54,2.87,2.87,0,0,0,2.37,1.2C60,139.11,61,138.26,61.65,136.55Z"/><path class="cls-1" d="M69,128.55a4.88,4.88,0,0,1,3.7,1.59,5.86,5.86,0,0,1,1.49,4.19,6.39,6.39,0,0,1-.67,3,5,5,0,0,1-1.9,2,5.26,5.26,0,0,1-2.67.73,4.68,4.68,0,0,1-3.59-1.61,5.89,5.89,0,0,1-1.48-4.16,6,6,0,0,1,1.48-4.18A4.77,4.77,0,0,1,69,128.55Zm0,.83a2.53,2.53,0,0,0-2.14,1.18,6.54,6.54,0,0,0-.83,3.73,6.69,6.69,0,0,0,.83,3.79,2.51,2.51,0,0,0,2.14,1.2,2.58,2.58,0,0,0,2.21-1.2,7,7,0,0,0,.84-3.92,6.2,6.2,0,0,0-.83-3.65A2.62,2.62,0,0,0,69,129.38Z"/><path class="cls-1" d="M79.54,128.88h2.72v1H79.54v8a1,1,0,0,0,.26.77,1.48,1.48,0,0,0,1,.29h1.49v.87H75.58v-.87h.92a1.33,1.33,0,0,0,.86-.21.8.8,0,0,0,.25-.65v-8.16H75.72v-1h1.89v-.83a6.94,6.94,0,0,1,1.2-4.39,3.63,3.63,0,0,1,3-1.52,3.07,3.07,0,0,1,2,.64,2.13,2.13,0,0,1,.74,1.68,1.5,1.5,0,0,1-.36,1.06,1.17,1.17,0,0,1-.9.39,1.09,1.09,0,0,1-.81-.31,1.07,1.07,0,0,1-.32-.79,1.11,1.11,0,0,1,.42-.9c.22-.18.34-.32.34-.42a.46.46,0,0,0-.26-.36,1.53,1.53,0,0,0-.79-.16,2,2,0,0,0-1.66.88,4.22,4.22,0,0,0-.68,2.61Z"/><path class="cls-1" d="M87.48,128.88H90.2v1H87.48v8a1,1,0,0,0,.25.77,1.51,1.51,0,0,0,1,.29H90.2v.87H83.52v-.87h.92a1.33,1.33,0,0,0,.86-.21.82.82,0,0,0,.24-.65v-8.16H83.66v-1h1.88v-.83a6.94,6.94,0,0,1,1.2-4.39,3.65,3.65,0,0,1,3-1.52,3,3,0,0,1,2,.64,2.1,2.1,0,0,1,.74,1.68,1.54,1.54,0,0,1-.35,1.06,1.17,1.17,0,0,1-.9.39,1.09,1.09,0,0,1-.81-.31,1,1,0,0,1-.32-.79,1.11,1.11,0,0,1,.42-.9q.33-.27.33-.42a.44.44,0,0,0-.26-.36,1.47,1.47,0,0,0-.78-.16,2,2,0,0,0-1.67.88,4.22,4.22,0,0,0-.67,2.61Z"/><path class="cls-1" d="M101.92,134.41H94.11a5.68,5.68,0,0,0,.93,3.51,3.23,3.23,0,0,0,2.55,1.15q2.28,0,3.66-2.59l.76.32a5.32,5.32,0,0,1-4.91,3.31,4.86,4.86,0,0,1-3.68-1.58,5.67,5.67,0,0,1-1.5-4.05,6.17,6.17,0,0,1,1.47-4.29A4.69,4.69,0,0,1,97,128.55a4.62,4.62,0,0,1,2.73.82,4.9,4.9,0,0,1,1.74,2.34A8.11,8.11,0,0,1,101.92,134.41Zm-7.81-.83h4.72a.81.81,0,0,0,.66-.28,1.62,1.62,0,0,0,.23-1,3.16,3.16,0,0,0-.8-2.17,2.44,2.44,0,0,0-1.88-.9A2.51,2.51,0,0,0,95,130.33,5.4,5.4,0,0,0,94.11,133.58Z"/><path class="cls-1" d="M113.83,134.41H106a5.55,5.55,0,0,0,.93,3.51,3.19,3.19,0,0,0,2.54,1.15c1.52,0,2.75-.86,3.67-2.59l.76.32c-1.14,2.21-2.77,3.31-4.91,3.31a4.9,4.9,0,0,1-3.69-1.58,5.7,5.7,0,0,1-1.49-4.05,6.17,6.17,0,0,1,1.47-4.29,4.88,4.88,0,0,1,6.36-.82,4.88,4.88,0,0,1,1.73,2.34A7.87,7.87,0,0,1,113.83,134.41Zm-7.8-.83h4.72a.78.78,0,0,0,.65-.28,1.55,1.55,0,0,0,.23-1,3.15,3.15,0,0,0-.79-2.17,2.44,2.44,0,0,0-1.88-.9,2.54,2.54,0,0,0-2.06,1.08A5.41,5.41,0,0,0,106,133.58Z"/></svg>