<svg id="Layer_1" data-name="Layer 1" xmlns="http://www.w3.org/2000/svg" viewBox="0 0 192.99 209.03"><defs><style>.cls-1{font-size:6.65px;font-family:CenturySchoolbook, Century Schoolbook;letter-spacing:0.1em;}.cls-1,.cls-2{fill:#ffe6ce;}</style></defs><text class="cls-1" transform="translate(75.7 118.94)">- roastery -</text><path class="cls-2" d="M73.27,105.33A4.18,4.18,0,0,1,70,107c-1.45,0-2.1-.53-2.42-2a6.49,6.49,0,0,1-4.69,2c-1.89,0-3.25-1-3.25-3.13a3.88,3.88,0,0,1,2-3.3c1.12-.74,2.51-1.27,5.93-2.25v-2c0-1.89-.65-2.75-2.39-2.75-1.06,0-1.92.39-1.92,1.1a1,1,0,0,0,.33.67,2,2,0,0,1,.56,1.24,1.84,1.84,0,0,1-2,1.77,1.8,1.8,0,0,1-1.92-2c0-2.36,2.3-3.72,5.64-3.72,3.6,0,5.78,1.42,5.78,4v7.7c0,.5.21.83.62.83a.38.38,0,0,0,.32-.12l.3-.29Zm-5.75-6c-2.36.65-3.6,1.85-3.6,3.57,0,1.29.65,2,1.53,2a2.41,2.41,0,0,0,2.07-1.18Z"/><path class="cls-2" d="M75.72,93c0-2.33.21-4.1,1.18-5.28a4.86,4.86,0,0,1,4-1.5c2.51,0,4.22,1.21,4.22,3a1.78,1.78,0,0,1-1.83,1.89,1.72,1.72,0,0,1-1.77-1.68c0-1,.65-1.27.65-1.69s-.32-.56-.85-.56c-1.06,0-1.48.59-1.48,2.33V93h2.54v1.3H79.82v9.15c0,1.92.36,2.39,2.42,2.45v.7H74v-.7c1.36-.15,1.68-.53,1.68-1.86V94.29H74V93Z"/><path class="cls-2" d="M86,93c0-2.33.21-4.1,1.18-5.28a4.87,4.87,0,0,1,4-1.5c2.5,0,4.21,1.21,4.21,3a1.78,1.78,0,0,1-1.82,1.89,1.72,1.72,0,0,1-1.77-1.68c0-1,.64-1.27.64-1.69s-.32-.56-.85-.56c-1.06,0-1.48.59-1.48,2.33V93h2.54v1.3H90.05v9.15c0,1.92.36,2.39,2.42,2.45v.7h-8.2v-.7c1.36-.15,1.68-.53,1.68-1.86V94.29H81.63V93Z"/><path class="cls-2" d="M105.1,103.29c-1.77,2.8-3.33,3.72-5.84,3.72-3.57,0-6-3-6-7,0-4.4,2.48-7.35,6.17-7.35a4.76,4.76,0,0,1,3.77,1.48,8.45,8.45,0,0,1,1.74,5.25H97.49c.18,2.8.62,5.51,3.51,5.51,1.27,0,2.18-.56,3.39-2Zm-3.81-5.63a6.66,6.66,0,0,0-.26-2.72c-.41-.88-.77-1.39-1.62-1.39-1.36,0-2.07,1.18-2.07,4.72h4Z"/><path class="cls-2" d="M115.13,103.61c-1.21,2.42-2.39,3.34-4.37,3.34a3,3,0,0,1-3.3-3.16v-9.5H105.9V93.5c2.12-1.45,3.21-3,4.92-5.49h.74v5h2.8v1.3h-2.8v8.79c0,1.18.33,1.77,1.15,1.77.62,0,1.09-.44,1.68-1.56Z"/><path class="cls-2" d="M127.7,103.29c-1.77,2.8-3.34,3.72-5.84,3.72-3.57,0-6-3-6-7,0-4.4,2.48-7.35,6.16-7.35a4.77,4.77,0,0,1,3.78,1.48,8.45,8.45,0,0,1,1.74,5.25h-7.43c.17,2.8.62,5.51,3.51,5.51,1.27,0,2.18-.56,3.39-2Zm-3.81-5.63a6.66,6.66,0,0,0-.26-2.72c-.42-.88-.77-1.39-1.63-1.39-1.35,0-2.06,1.18-2.06,4.72h4Z"/><path class="cls-2" d="M134.63,95.41c1.39-2,2.51-2.77,4-2.77A2.27,2.27,0,0,1,141,95a1.85,1.85,0,0,1-1.86,2,1.91,1.91,0,0,1-1.77-1.12c-.32-.54-.59-.68-.82-.68-1,0-1.8,1.32-1.8,3.07v5.22c0,1.89.32,2.3,2.12,2.42v.7h-7.81v-.7c1.29-.24,1.59-.56,1.59-1.77V95.59c0-1.39-.36-1.71-1.62-1.89V93h5.6Z"/><path class="cls-2" d="M155.58,105.33a4.19,4.19,0,0,1-3.31,1.68c-1.44,0-2.09-.53-2.42-2a6.49,6.49,0,0,1-4.69,2c-1.88,0-3.24-1-3.24-3.13a3.89,3.89,0,0,1,2-3.3c1.13-.74,2.51-1.27,5.93-2.25v-2c0-1.89-.64-2.75-2.39-2.75-1.06,0-1.91.39-1.91,1.1a1,1,0,0,0,.32.67,1.92,1.92,0,0,1,.56,1.24,1.83,1.83,0,0,1-2,1.77,1.8,1.8,0,0,1-1.92-2c0-2.36,2.3-3.72,5.63-3.72,3.6,0,5.79,1.42,5.79,4v7.7c0,.5.2.83.62.83a.4.4,0,0,0,.32-.12l.29-.29Zm-5.76-6c-2.36.65-3.59,1.85-3.59,3.57,0,1.29.64,2,1.53,2a2.38,2.38,0,0,0,2.06-1.18Z"/><path class="cls-2" d="M59.18,104.23c-1.62,1.66-2.86,2.81-4.45,2.81-1.42,0-2.63-.39-4.48-3.63l-4-7a7,7,0,0,1-1.5.65v7c0,1.41.2,1.62,1.33,1.62h1.62v.88H37.41v-.88H39c1.13,0,1.33-.21,1.33-1.62V88.45c0-1.42-.2-1.62-1.33-1.62H37.41v-.89H47.74v.89H46.12c-1.13,0-1.33.2-1.33,1.62v6.87a5,5,0,0,1-2.78.83c-.14,0-.2.06-.2.15s.06.15.2.15c3.52,0,5.93-.56,8.38-8.18a3.49,3.49,0,0,1,3.4-2.77,2.9,2.9,0,0,1,3,3.07A3,3,0,0,1,54,91.64a2.63,2.63,0,0,1-2.33-1.36c-.23-.44-.23-.83-.47-.83-.09,0-.18,0-.3.39a21.89,21.89,0,0,1-1.56,3.39l5.49,9.17c1.24,2,2.3,2.57,3.77,1.13Z"/></svg>