<svg id="Layer_1" data-name="Layer 1" xmlns="http://www.w3.org/2000/svg" viewBox="0 0 192.99 209.03"><defs><style>.cls-1{fill:#fff;}.cls-2{fill:#3a0a00;}</style></defs><rect class="cls-1" x="74.73" y="77.14" width="46.1" height="50.53"/><path class="cls-2" d="M96.49,65.3a36.84,36.84,0,1,0,36.85,36.84A36.84,36.84,0,0,0,96.49,65.3Zm14.31,58c-2.79,0-5.16-.75-8.82-7.13l-7.77-13.75a13.06,13.06,0,0,1-3,1.28v13.8c0,2.78.41,3.19,2.61,3.19h3.19v1.74H76.75V120.7h3.19c2.2,0,2.61-.41,2.61-3.19V86.77c0-2.79-.41-3.19-2.61-3.19H76.75V81.84h20.3v1.74H93.86c-2.2,0-2.61.4-2.61,3.19v13.51c-1.1,1-3,1.4-5.45,1.63-.29,0-.41.11-.41.29s.12.29.41.29c6.9-.06,11.66-1.1,16.47-16.07,1-3.07,3-5.45,6.67-5.45a5.69,5.69,0,0,1,5.92,6,5.83,5.83,0,0,1-5.57,6,5.14,5.14,0,0,1-4.58-2.67c-.47-.87-.47-1.62-.93-1.62-.17,0-.35.06-.58.75a43.28,43.28,0,0,1-3.07,6.67l10.78,18c2.44,4,4.53,5,7.43,2.21l1.22,1.39C116.37,121.05,113.93,123.31,110.8,123.31Z"/></svg>